;TYPE=PLATED
;Layer: PTH_Through
;EasyEDA Pro v1.6.32, 2022-10-17 22:27:43
;Gerber Generator version 0.3
M48
METRIC,LZ,0000.00
;Hole size 1 = 0.30 METRIC
T01C0.30
;Hole size 2 = 0.30 METRIC
T02C0.30
;Hole size 3 = 0.60 METRIC
T03C0.60
;Hole size 4 = 0.85 METRIC
T04C0.85
;Hole size 5 = 1.05 METRIC
T05C1.05
;Hole size 6 = 1.85 METRIC
T06C1.85
%
G05
G90
T01
X000406Y-001714
X000406Y-002222
X000406Y-002730
X000406Y-003238
X000406Y-004254
X000406Y-004762
X000406Y-005270
X000406Y-005778
X000406Y-006286
X000406Y-006794
X000406Y-007302
X-000102Y-001714
X-000102Y-002222
X-000102Y-003238
X-000102Y-004254
X-000102Y-004762
X-000102Y-005270
X-000102Y-005778
X-000102Y-006286
X-000102Y-006794
X-000102Y-007302
X-000610Y-001714
X-000610Y-002222
X-000610Y-003238
X-000610Y-004254
X-000610Y-005270
X-000610Y-005778
X-000610Y-006794
X-001118Y-001714
X-001118Y-002222
X-001118Y-002730
X-001118Y-003238
X-001118Y-005270
X-001118Y-005778
X-001118Y-006286
X-001118Y-006794
X-001118Y-007302
X-001626Y-003238
X-001626Y-004254
X-001626Y-005270
X-001626Y-005778
X-001626Y-007302
X-002134Y-001714
X-002134Y-003238
X-002134Y-005270
X-002134Y-005778
X-002134Y-007302
X-002642Y-003238
X-002642Y-003746
X-002642Y-005778
X-002642Y-006286
X-002642Y-006794
X-002642Y-007302
X-003150Y-001714
X-003150Y-003238
X-003150Y-003746
X-003150Y-004254
X-003150Y-004762
X-003150Y-005270
X-003150Y-005778
X-003150Y-006286
X-003150Y-006794
X-003150Y-007302
X-003658Y-001714
X-003658Y-002730
X-003658Y-003238
X-003658Y-003746
X-003658Y-004254
X-003658Y-004762
X-003658Y-005270
X-003658Y-005778
X-003658Y-006286
X-003658Y-006794
X-003658Y-007302
X-003658Y-001524
X-003658Y-002032
X-003658Y-002540
X-003658Y-003048
X-003658Y-003556
X-003658Y-004064
X-003988Y-003785
X-003988Y-004293
X-003988Y-004801
X-003988Y-005309
X-003988Y-005817
X-003988Y-006325
X-003988Y-006833
X-003988Y-007341
X-003988Y-007849
X-004496Y-003785
X-004496Y-004293
X-004496Y-004801
X-004496Y-005309
X-004496Y-005817
X-004496Y-006833
X-004496Y-007341
X-004496Y-007849
X-004496Y-008357
X-005004Y-003785
X-005004Y-004293
X-005004Y-004801
X-005004Y-005309
X-005004Y-005817
X-005004Y-006833
X-005004Y-007341
X-005004Y-007849
X-005004Y-008357
X-005512Y-003785
X-005512Y-004293
X-005512Y-004801
X-005512Y-005309
X-005512Y-005817
X-005512Y-006325
X-005512Y-006833
X-005512Y-007341
X-005512Y-007849
X-003658Y-001346
X-003658Y-001854
X-003658Y-002870
X-003658Y-003378
X-003658Y-003886
T02
X-004724Y-000711
X-004737Y-006515
X-004737Y-008115
X001016Y-006413
X001791Y-004496
X001791Y-004674
X001829Y-002184
T03
X003576Y-002745G85X003646Y-002745
X003923Y-002745G85X003993Y-002745
X003923Y-002030G85X003993Y-002030
X003576Y-002030G85X003646Y-002030
T04
X003670Y-004647
X003670Y-004447
X003670Y-003631
X003670Y-003431
T05
X001308Y-007404
X001562Y-007404
X001816Y-007404
X002070Y-007404
X002324Y-007404
X002578Y-007404
X002832Y-007404
X003086Y-007404
X003340Y-007404
X003594Y-007404
X003848Y-007404
X004102Y-007404
T06
X-004724Y-008115
X-004724Y-006515
X-004724Y-000711
X-004724Y-002311
M30