G04 Layer: TopLayer*
G04 EasyEDA Pro v1.6.32, 2022-10-17 22:27:42*
G04 Gerber Generator version 0.3*
G04 Scale: 100 percent, Rotated: No, Reflected: No*
G04 Dimensions in millimeters*
G04 Leading zeros omitted, absolute positions, 4 integers and 2 decimals*
G04 Panelize: V-CUT, Column: 1, Row: 1, Board Size: 99.693mm x 90.043mm, Panelized Board Size: 99.693mm x 95.438mm, Panelized Method: Only Board Outline*
%FSLAX42Y42*%
%MOMM*%
%ADD10C,1.000001*%
%ADD999C,0.2032*%
%ADD11C,0.254*%
%ADD12C,0.00508*%
%ADD13O,1.69926X1.00076*%
%ADD14O,0.364007X2.082013*%
%ADD15O,1.88722X0.57404*%
%ADD16C,1.399997*%
%ADD17C,1.524*%
%ADD18C,0.610001*%
%ADD19C,0.619999*%
%ADD20C,1.849984*%
%ADD21C,0.599999*%
%ADD22C,0.499999*%
%ADD23C,0.299999*%
G75*


G04 Panelize Start*
G54D10*
G01X-4639Y-130D03*
G01X3330Y-130D03*
G01X-4139Y-8874D03*
G01X2830Y-8874D03*
G04 Panelize End*

G04 Copper Start*
G36*
G01X866Y-6449D02*
G01X866Y-7591D01*
G01X-3635Y-7584D01*
G01Y-2352D01*
G01X-3539D01*
G01Y-2360D01*
G03X-3503Y-2396I36J0D01*
G01X-3399D01*
G01X-3367Y-2428D01*
G01Y-2830D01*
G01X-3371D01*
G03X-3407Y-2866I0J-36D01*
G01Y-3078D01*
G03X-3371Y-3114I36J0D01*
G01X-3232D01*
G03X-3196Y-3078I0J36D01*
G01Y-2866D01*
G03X-3232Y-2830I-36J0D01*
G01X-3236D01*
G01Y-2401D01*
G03Y-2396I-66J0D01*
G01X-3063D01*
G03X-3027Y-2360I0J36D01*
G01Y-2352D01*
G01X-3005D01*
G01Y-2360D01*
G03X-2969Y-2396I36J0D01*
G01X-2797D01*
G03X-2761Y-2360I0J36D01*
G01Y-2347D01*
G01X-2723D01*
G03X-2700Y-2375I35J5D01*
G03X-2723Y-2408I13J-34D01*
G01Y-2468D01*
G03X-2700Y-2502I36J0D01*
G03X-2723Y-2535I13J-34D01*
G01Y-2595D01*
G03X-2688Y-2631I36J0D01*
G01X-2676D01*
G01Y-2836D01*
G01X-2686D01*
G03X-2722Y-2872I0J-36D01*
G01Y-2923D01*
G01X-2790D01*
G01Y-2866D01*
G03X-2826Y-2830I-36J0D01*
G01X-2966D01*
G03X-3002Y-2866I0J-36D01*
G01Y-3078D01*
G03X-2966Y-3114I36J0D01*
G01X-2826D01*
G03X-2790Y-3078I0J36D01*
G01Y-3020D01*
G01X-2722D01*
G01Y-3072D01*
G03X-2686Y-3108I36J0D01*
G01X-2486D01*
G03X-2450Y-3072I0J36D01*
G01Y-2872D01*
G03X-2486Y-2836I-36J0D01*
G01X-2579D01*
G01Y-2631D01*
G01X-2568D01*
G03X-2532Y-2595I0J36D01*
G01Y-2535D01*
G03X-2555Y-2502I-36J0D01*
G03X-2532Y-2468I-13J34D01*
G01Y-2408D01*
G03X-2555Y-2375I-36J0D01*
G03X-2532Y-2341I-13J34D01*
G01Y-2281D01*
G03X-2555Y-2248I-36J0D01*
G03X-2532Y-2214I-13J34D01*
G01Y-2154D01*
G03X-2568Y-2119I-36J0D01*
G01X-2579D01*
G01Y-2065D01*
G01X-2542D01*
G03X-2506Y-2029I0J36D01*
G01Y-1857D01*
G03X-2542Y-1821I-36J0D01*
G01X-2568D01*
G01Y-1683D01*
G01X-2559D01*
G03X-2524Y-1647I0J36D01*
G01Y-1559D01*
G01X-2389Y-1424D01*
G01X866D01*
G01Y-3973D01*
G01X580Y-3687D01*
G03X533Y-3668I-47J-47D01*
G01X-94D01*
G01Y-3483D01*
G03X-130Y-3447I-36J0D01*
G01X-205D01*
G01Y-3366D01*
G03X-220Y-3332I-49J0D01*
G01X-624Y-2928D01*
G01X-613D01*
G03X-577Y-2892I0J36D01*
G01Y-2772D01*
G03X-613Y-2736I-36J0D01*
G01X-752D01*
G01Y-2153D01*
G01X-626D01*
G03X-590Y-2117I0J36D01*
G01Y-1997D01*
G03X-626Y-1962I-36J0D01*
G01X-976D01*
G03X-1012Y-1997I0J-36D01*
G01Y-2117D01*
G03X-976Y-2153I36J0D01*
G01X-849D01*
G01Y-2736D01*
G01X-963D01*
G03X-999Y-2772I0J-36D01*
G01Y-2791D01*
G01X-1211D01*
G01Y-2654D01*
G03X-1247Y-2618I-36J0D01*
G01X-1428D01*
G01X-1452Y-2595D01*
G03X-1463Y-2586I-34J-34D01*
G03X-1441Y-2553I-14J33D01*
G01Y-2432D01*
G03X-1443Y-2420I-36J0D01*
G03X-1426Y-2409I-17J45D01*
G01X-1298Y-2281D01*
G03X-1284Y-2247I-34J34D01*
G01Y-1852D01*
G01X-1270D01*
G03X-1234Y-1816I0J36D01*
G01Y-1716D01*
G03X-1270Y-1680I-36J0D01*
G01X-1395D01*
G03X-1431Y-1716I0J-36D01*
G01Y-1816D01*
G03X-1395Y-1852I36J0D01*
G01X-1381D01*
G01Y-2227D01*
G01X-1481Y-2326D01*
G01X-1623D01*
G01X-1590Y-2293D01*
G01X-1477D01*
G03X-1441Y-2257I0J36D01*
G01Y-2137D01*
G03X-1477Y-2101I-36J0D01*
G01X-1647D01*
G03X-1683Y-2137I0J-36D01*
G01Y-2249D01*
G01X-1696Y-2263D01*
G01X-1955D01*
G03X-1973Y-2248I-31J-19D01*
G03X-1955Y-2233I-13J34D01*
G01X-1892D01*
G03X-1858Y-2219I0J49D01*
G01X-1540Y-1901D01*
G03X-1526Y-1867I-34J34D01*
G01Y-1851D01*
G01X-1505D01*
G03X-1469Y-1815I0J36D01*
G01Y-1715D01*
G03X-1505Y-1679I-36J0D01*
G01X-1645D01*
G03X-1681Y-1715I0J-36D01*
G01Y-1815D01*
G03X-1645Y-1851I36J0D01*
G01X-1628D01*
G01X-1912Y-2136D01*
G01X-1955D01*
G03X-1986Y-2119I-31J-19D01*
G01X-2106D01*
G03X-2142Y-2154I0J-36D01*
G01Y-2214D01*
G03X-2119Y-2248I36J0D01*
G03X-2142Y-2281I13J-34D01*
G01Y-2341D01*
G03X-2119Y-2375I36J0D01*
G03X-2142Y-2408I13J-34D01*
G01Y-2468D01*
G03X-2119Y-2502I36J0D01*
G03X-2142Y-2535I13J-34D01*
G01Y-2595D01*
G03X-2116Y-2630I36J0D01*
G01X-2181Y-2695D01*
G03X-2195Y-2729I34J-34D01*
G01Y-2836D01*
G01X-2246D01*
G03X-2282Y-2872I0J-36D01*
G01Y-3039D01*
G01X-2892Y-3649D01*
G03X-2906Y-3683I34J-34D01*
G01Y-5448D01*
G03X-2892Y-5483I49J0D01*
G01X-2651Y-5724D01*
G03X-2616Y-5738I34J34D01*
G01X-1068D01*
G01X-765Y-6041D01*
G01X-806D01*
G03X-842Y-6077I0J-36D01*
G01Y-6217D01*
G03X-806Y-6253I36J0D01*
G01X-376D01*
G03X-340Y-6217I0J36D01*
G01Y-6077D01*
G03X-376Y-6041I-36J0D01*
G01X-628D01*
G01X-1014Y-5655D01*
G03X-1048Y-5641I-34J-34D01*
G01X-2596D01*
G01X-2809Y-5428D01*
G01Y-3703D01*
G01X-2213Y-3108D01*
G01X-2046D01*
G03X-2011Y-3072I0J36D01*
G01Y-2872D01*
G03X-2046Y-2836I-36J0D01*
G01X-2098D01*
G01Y-2749D01*
G01X-2026Y-2677D01*
G01X-1951D01*
G01Y-2703D01*
G03X-1915Y-2739I36J0D01*
G01X-1742D01*
G03X-1707Y-2703I0J36D01*
G01Y-2677D01*
G01X-1507D01*
G01Y-2858D01*
G03X-1471Y-2894I36J0D01*
G01X-1247D01*
G03X-1227Y-2888I0J36D01*
G01X-999D01*
G01Y-2892D01*
G03X-963Y-2928I36J0D01*
G01X-761D01*
G01X-303Y-3386D01*
G01Y-3447D01*
G01X-378D01*
G03X-414Y-3483I0J-36D01*
G01Y-3985D01*
G03X-378Y-4021I36J0D01*
G01X-130D01*
G03X-94Y-3985I0J36D01*
G01Y-3800D01*
G01X506D01*
G01X866Y-4160D01*
G01Y-4919D01*
G01X-345D01*
G01X-366Y-4893D01*
G03X-368Y-4890I-28J-22D01*
G01X-943Y-4284D01*
G03X-969Y-4273I-26J-25D01*
G01X-1114D01*
G03X-1139Y-4284I0J-36D01*
G01X-1611Y-4755D01*
G01X-2210D01*
G03X-2182Y-4720I-8J35D01*
G01Y-4540D01*
G03X-2218Y-4505I-36J0D01*
G01X-2278D01*
G03X-2311Y-4528I0J-36D01*
G03X-2345Y-4505I-34J-13D01*
G01X-2405D01*
G03X-2438Y-4528I0J-36D01*
G03X-2472Y-4505I-34J-13D01*
G01X-2532D01*
G03X-2565Y-4528I0J-36D01*
G03X-2577Y-4512I-34J-13D01*
G01X-2558Y-4494D01*
G01X-1867D01*
G03X-1833Y-4479I0J49D01*
G01X-1747Y-4394D01*
G03X-1733Y-4359I-34J34D01*
G01Y-4179D01*
G01X-1716D01*
G03X-1651Y-4115I0J65D01*
G03X-1681Y-4060I-65J0D01*
G01X-1663Y-4042D01*
G03X-1652Y-4016I-25J25D01*
G01Y-4000D01*
G03X-1651Y-3988I-63J13D01*
G03X-1652Y-3975I-65J0D01*
G01Y-3873D01*
G03X-1651Y-3861I-63J13D01*
G03X-1652Y-3848I-65J0D01*
G01Y-3746D01*
G03X-1651Y-3734I-63J13D01*
G03X-1652Y-3721I-65J0D01*
G01Y-3682D01*
G03X-1663Y-3657I-36J0D01*
G01X-1694Y-3626D01*
G03X-1719Y-3615I-25J-25D01*
G01X-2157D01*
G03X-2177Y-3622I0J-36D01*
G01X-2680D01*
G03X-2716Y-3658I0J-36D01*
G01Y-4213D01*
G03X-2705Y-4239I36J0D01*
G01X-2654Y-4290D01*
G03X-2629Y-4300I25J25D01*
G03X-2604Y-4290I0J36D01*
G01X-2563Y-4249D01*
G03X-2532Y-4266I31J18D01*
G01X-2472D01*
G03X-2438Y-4243I0J36D01*
G03X-2405Y-4266I34J13D01*
G01X-2345D01*
G03X-2311Y-4243I0J36D01*
G03X-2278Y-4266I34J13D01*
G01X-2218D01*
G03X-2182Y-4230I0J36D01*
G01Y-4197D01*
G01X-2129Y-4251D01*
G01Y-4379D01*
G03X-2124Y-4396I36J0D01*
G01X-2578D01*
G03X-2612Y-4411I0J-49D01*
G01X-2663Y-4461D01*
G03X-2677Y-4496I34J-34D01*
G01Y-4510D01*
G03X-2695Y-4540I19J-31D01*
G01Y-4720D01*
G03X-2659Y-4756I36J0D01*
G01X-2614D01*
G03X-2631Y-4766I8J-35D01*
G01X-2674Y-4809D01*
G03X-2690Y-4839I20J-30D01*
G03X-2680Y-4864I36J0D01*
G01X-2677Y-4866D01*
G01Y-4978D01*
G03X-2667Y-5004I36J0D01*
G01X-2638Y-5032D01*
G03X-2613Y-5043I25J25D01*
G01X-2382D01*
G01X-2198Y-5226D01*
G03X-2173Y-5237I25J25D01*
G01X-802D01*
G03X-827Y-5271I11J-34D01*
G01Y-5551D01*
G03X-792Y-5587I36J0D01*
G01X-682D01*
G03X-646Y-5551I0J36D01*
G01Y-5271D01*
G03X-671Y-5237I-36J0D01*
G01X-629D01*
G03X-607Y-5229I0J36D01*
G01X-377Y-5050D01*
G01X866D01*
G01Y-6352D01*
G01X-340D01*
G01Y-6331D01*
G03X-376Y-6295I-36J0D01*
G01X-806D01*
G03X-842Y-6331I0J-36D01*
G01Y-6352D01*
G01X-1185D01*
G01Y-5866D01*
G03X-1221Y-5830I-36J0D01*
G01X-2081D01*
G03X-2117Y-5866I0J-36D01*
G01Y-6936D01*
G03X-2081Y-6972I36J0D01*
G01X-1221D01*
G03X-1185Y-6936I0J36D01*
G01Y-6924D01*
G01X-1000Y-7109D01*
G01Y-7236D01*
G03X-964Y-7272I36J0D01*
G01X-816D01*
G03X-780Y-7236I0J36D01*
G01Y-7064D01*
G03X-816Y-7028I-36J0D01*
G01X-944D01*
G01X-1185Y-6786D01*
G01Y-6449D01*
G01X-842D01*
G01Y-6471D01*
G03X-806Y-6507I36J0D01*
G01X-376D01*
G03X-340Y-6471I0J36D01*
G01Y-6449D01*
G01X866D01*
G37*
%LPC*%
G36*
G01X-1004Y-4233D02*
G03X-984Y-4227I0J36D01*
G01X-648D01*
G03X-612Y-4191I0J36D01*
G01Y-3493D01*
G01Y-3492D01*
G03X-616Y-3477I-36J0D01*
G03X-651Y-3447I-35J-6D01*
G01X-898D01*
G03X-923Y-3457I0J-36D01*
G01X-1435D01*
G03X-1471Y-3492I0J-36D01*
G01Y-3493D01*
G01Y-4191D01*
G03X-1435Y-4227I36J0D01*
G01X-1099D01*
G03X-1079Y-4233I20J30D01*
G01X-1004D01*
G37*
G36*
G01X-2264Y-1683D02*
G03X-2228Y-1647I0J36D01*
G01Y-1611D01*
G01X-1680D01*
G03X-1645Y-1641I35J5D01*
G01X-1505D01*
G03X-1469Y-1605I0J36D01*
G01Y-1604D01*
G01X-1430D01*
G03X-1395Y-1632I35J8D01*
G01X-1270D01*
G03X-1234Y-1596I0J36D01*
G01Y-1496D01*
G03X-1270Y-1460I-36J0D01*
G01X-1395D01*
G03X-1431Y-1496I0J-36D01*
G01Y-1507D01*
G01X-1469D01*
G01Y-1505D01*
G03X-1505Y-1469I-36J0D01*
G01X-1645D01*
G03X-1681Y-1505I0J-36D01*
G01Y-1514D01*
G01X-2228D01*
G01Y-1477D01*
G03X-2264Y-1441I-36J0D01*
G01X-2384D01*
G03X-2420Y-1477I0J-36D01*
G01Y-1647D01*
G03X-2384Y-1683I36J0D01*
G01X-2264D01*
G37*
G36*
G01X-2493Y-2540D02*
G03X-2457Y-2576I36J0D01*
G01X-2217D01*
G03X-2181Y-2540I0J36D01*
G01Y-2210D01*
G03X-2217Y-2174I-36J0D01*
G01X-2457D01*
G03X-2493Y-2210I0J-36D01*
G01Y-2540D01*
G37*
G36*
G01X-842Y-6725D02*
G03X-806Y-6761I36J0D01*
G01X-376D01*
G03X-340Y-6725I0J36D01*
G01Y-6585D01*
G03X-376Y-6549I-36J0D01*
G01X-806D01*
G03X-842Y-6585I0J-36D01*
G01Y-6725D01*
G37*
G36*
G01X-1507Y-3377D02*
G03X-1471Y-3412I36J0D01*
G01X-1247D01*
G03X-1211Y-3377I0J36D01*
G01Y-3172D01*
G03X-1247Y-3136I-36J0D01*
G01X-1471D01*
G03X-1507Y-3172I0J-36D01*
G01Y-3377D01*
G37*
G36*
G01X-478Y-2117D02*
G03X-442Y-2153I36J0D01*
G01X-92D01*
G03X-56Y-2117I0J36D01*
G01Y-1997D01*
G03X-92Y-1962I-36J0D01*
G01X-442D01*
G03X-478Y-1997I0J-36D01*
G01Y-2117D01*
G37*
G36*
G01X-79Y-2928D02*
G03X-43Y-2892I0J36D01*
G01Y-2772D01*
G03X-79Y-2736I-36J0D01*
G01X-429D01*
G03X-465Y-2772I0J-36D01*
G01Y-2892D01*
G03X-429Y-2928I36J0D01*
G01X-79D01*
G37*
G36*
G01X-2129Y-4697D02*
G03X-2093Y-4733I36J0D01*
G01X-1920D01*
G03X-1884Y-4697I0J36D01*
G01Y-4549D01*
G03X-1920Y-4513I-36J0D01*
G01X-2093D01*
G03X-2129Y-4549I0J-36D01*
G01Y-4697D01*
G37*
G36*
G01X-2416Y-5343D02*
G03X-2380Y-5308I0J36D01*
G01Y-5159D01*
G03X-2416Y-5123I-36J0D01*
G01X-2588D01*
G03X-2624Y-5159I0J-36D01*
G01Y-5308D01*
G03X-2588Y-5343I36J0D01*
G01X-2416D01*
G37*
G36*
G01X-1742Y-3057D02*
G03X-1707Y-3022I0J36D01*
G01Y-2873D01*
G03X-1742Y-2837I-36J0D01*
G01X-1915D01*
G03X-1951Y-2873I0J-36D01*
G01Y-3022D01*
G03X-1915Y-3057I36J0D01*
G01X-1742D01*
G37*
G36*
G01X-497Y-7272D02*
G03X-461Y-7236I0J36D01*
G01Y-7064D01*
G03X-497Y-7028I-36J0D01*
G01X-646D01*
G03X-682Y-7064I0J-36D01*
G01Y-7236D01*
G03X-646Y-7272I36J0D01*
G01X-497D01*
G37*
G36*
G01X-2408Y-2029D02*
G03X-2372Y-2065I36J0D01*
G01X-2223D01*
G03X-2188Y-2029I0J36D01*
G01Y-1857D01*
G03X-2223Y-1821I-36J0D01*
G01X-2372D01*
G03X-2408Y-1857I0J-36D01*
G01Y-2029D01*
G37*
%LPD*%
G36*
G01X-2723Y-2214D02*
G03X-2722Y-2225I36J0D01*
G01X-2761D01*
G01Y-2212D01*
G03X-2797Y-2176I-36J0D01*
G01X-2969D01*
G03X-3005Y-2212I0J-36D01*
G01Y-2220D01*
G01X-3027D01*
G01Y-2212D01*
G03X-3063Y-2176I-36J0D01*
G01X-3236D01*
G03X-3272Y-2212I0J-36D01*
G01Y-2220D01*
G01X-3294D01*
G01Y-2212D01*
G03X-3330Y-2176I-36J0D01*
G01X-3503D01*
G03X-3539Y-2212I0J-36D01*
G01Y-2220D01*
G01X-3635D01*
G01Y-1242D01*
G01X866Y-1256D01*
G01Y-1293D01*
G01X-2416D01*
G03X-2463Y-1312I0J-66D01*
G01X-2592Y-1441D01*
G01X-2680D01*
G03X-2716Y-1477I0J-36D01*
G01Y-1647D01*
G03X-2680Y-1683I36J0D01*
G01X-2665D01*
G01Y-1821D01*
G01X-2690D01*
G03X-2726Y-1857I0J-36D01*
G01Y-2029D01*
G03X-2690Y-2065I36J0D01*
G01X-2676D01*
G01Y-2119D01*
G01X-2688D01*
G03X-2723Y-2154I0J-36D01*
G01Y-2214D01*
G37*
%LPC*%
G36*
G01X-2797Y-2078D02*
G03X-2761Y-2042I0J36D01*
G01Y-1893D01*
G03X-2797Y-1857I-36J0D01*
G01X-2969D01*
G03X-3005Y-1893I0J-36D01*
G01Y-2042D01*
G03X-2969Y-2078I36J0D01*
G01X-2797D01*
G37*
G36*
G01X-3272Y-2042D02*
G03X-3236Y-2078I36J0D01*
G01X-3063D01*
G03X-3027Y-2042I0J36D01*
G01Y-1893D01*
G03X-3063Y-1857I-36J0D01*
G01X-3236D01*
G03X-3272Y-1893I0J-36D01*
G01Y-2042D01*
G37*
G36*
G01X-3539Y-2042D02*
G03X-3503Y-2078I36J0D01*
G01X-3330D01*
G03X-3294Y-2042I0J36D01*
G01Y-1893D01*
G03X-3330Y-1857I-36J0D01*
G01X-3503D01*
G03X-3539Y-1893I0J-36D01*
G01Y-2042D01*
G37*
%LPD*%
G36*
G01X-2565Y-4037D02*
G01X-2566Y-4037D01*
G03X-2599Y-4014I-33J-13D01*
G01X-2659D01*
G03X-2670Y-4016I0J-36D01*
G01Y-3807D01*
G03X-2642Y-3813I28J61D01*
G03X-2596Y-3795I0J67D01*
G01X-2487D01*
G01Y-3844D01*
G03X-2452Y-3880I36J0D01*
G01X-2331D01*
G03X-2295Y-3844I0J36D01*
G01Y-3674D01*
G03X-2296Y-3668I-36J0D01*
G01X-2191D01*
G03X-2192Y-3674I35J-6D01*
G01Y-3844D01*
G03X-2156Y-3880I36J0D01*
G01X-2035D01*
G03X-1999Y-3844I0J36D01*
G01Y-3674D01*
G03X-2002Y-3661I-36J0D01*
G01X-1723D01*
G01X-1716Y-3669D01*
G01X-1847D01*
G03X-1911Y-3734I0J-65D01*
G03X-1858Y-3797I65J0D01*
G03X-1911Y-3861I11J-63D01*
G03X-1858Y-3924I65J0D01*
G03X-1911Y-3988I11J-63D01*
G03X-1896Y-4029I65J0D01*
G01X-2189D01*
G03X-2218Y-4014I-29J-21D01*
G01X-2278D01*
G03X-2307Y-4029I0J-36D01*
G01X-2316D01*
G03X-2345Y-4014I-29J-21D01*
G01X-2405D01*
G03X-2434Y-4029I0J-36D01*
G01X-2443D01*
G03X-2472Y-4014I-29J-21D01*
G01X-2532D01*
G03X-2565Y-4037I0J-36D01*
G37*
G36*
G01X-2169Y-5191D02*
G01X-2360Y-5000D01*
G03X-2367Y-4997I-7J-7D01*
G01X-2381D01*
G03X-2380Y-4989I-35J8D01*
G01Y-4841D01*
G03X-2416Y-4805I-36J0D01*
G01X-2588D01*
G03X-2624Y-4841I0J-36D01*
G01Y-4982D01*
G01X-2631Y-4974D01*
G01Y-4851D01*
G03X-2634Y-4844I-10J0D01*
G01X-2639Y-4839D01*
G01X-2602Y-4801D01*
G01X-1596D01*
G03X-1589Y-4798I0J10D01*
G01X-1114Y-4323D01*
G03X-1115Y-4332I35J-9D01*
G01Y-4431D01*
G03X-1079Y-4467I36J0D01*
G01X-1004D01*
G03X-968Y-4431I0J36D01*
G01Y-4332D01*
G03X-969Y-4323I-36J0D01*
G01X-401Y-4922D01*
G01X-357Y-4977D01*
G01X-633Y-5191D01*
G01X-736D01*
G01X-2169D01*
G37*
%LPC*%
G36*
G01X-827Y-5131D02*
G03X-792Y-5167I36J0D01*
G01X-682D01*
G03X-646Y-5131I0J36D01*
G01Y-4851D01*
G03X-682Y-4815I-36J0D01*
G01X-792D01*
G03X-827Y-4851I0J-36D01*
G01Y-5131D01*
G37*
%LPD*%
G36*
G01X-1683Y-2553D02*
G03X-1671Y-2580I36J0D01*
G01X-1707D01*
G01Y-2555D01*
G03X-1742Y-2519I-36J0D01*
G01X-1915D01*
G03X-1950Y-2547I0J-36D01*
G01Y-2535D01*
G03X-1973Y-2502I-36J0D01*
G03X-1950Y-2468I-13J34D01*
G01Y-2423D01*
G01X-1682D01*
G03X-1683Y-2432I35J-9D01*
G01Y-2553D01*
G37*
G36*
G01X-658Y-4021D02*
G01X-658Y-4181D01*
G01X-968D01*
G01Y-4097D01*
G03X-1004Y-4061I-36J0D01*
G01X-1079D01*
G03X-1115Y-4094I0J-36D01*
G03X-1164Y-4051I-61J-21D01*
G03X-1111Y-3988I-11J64D01*
G03X-1164Y-3924I-65J0D01*
G03X-1111Y-3861I-11J64D01*
G03X-1164Y-3797I-65J0D01*
G03X-1111Y-3734I-11J64D01*
G03X-1176Y-3669I-65J0D01*
G01X-1307D01*
G03X-1371Y-3734I0J-65D01*
G03X-1318Y-3797I65J0D01*
G03X-1371Y-3861I11J-63D01*
G03X-1318Y-3924I65J0D01*
G03X-1371Y-3988I11J-63D01*
G03X-1318Y-4051I65J0D01*
G03X-1371Y-4115I11J-63D01*
G03X-1307Y-4179I65J0D01*
G01X-1176D01*
G03X-1115Y-4136I0J65D01*
G01Y-4181D01*
G01X-1425D01*
G01Y-3503D01*
G01X-934D01*
G01Y-3985D01*
G03X-898Y-4021I36J0D01*
G01X-658D01*
G37*
G54D999*
G01X866Y-6449D02*
G01X866Y-7591D01*
G01X-3635Y-7584D01*
G01Y-2352D01*
G01X-3539D01*
G01Y-2360D01*
G03X-3503Y-2396I36J0D01*
G01X-3399D01*
G01X-3367Y-2428D01*
G01Y-2830D01*
G01X-3371D01*
G03X-3407Y-2866I0J-36D01*
G01Y-3078D01*
G03X-3371Y-3114I36J0D01*
G01X-3232D01*
G03X-3196Y-3078I0J36D01*
G01Y-2866D01*
G03X-3232Y-2830I-36J0D01*
G01X-3236D01*
G01Y-2401D01*
G03Y-2396I-66J0D01*
G01X-3063D01*
G03X-3027Y-2360I0J36D01*
G01Y-2352D01*
G01X-3005D01*
G01Y-2360D01*
G03X-2969Y-2396I36J0D01*
G01X-2797D01*
G03X-2761Y-2360I0J36D01*
G01Y-2347D01*
G01X-2723D01*
G03X-2700Y-2375I35J5D01*
G03X-2723Y-2408I13J-34D01*
G01Y-2468D01*
G03X-2700Y-2502I36J0D01*
G03X-2723Y-2535I13J-34D01*
G01Y-2595D01*
G03X-2688Y-2631I36J0D01*
G01X-2676D01*
G01Y-2836D01*
G01X-2686D01*
G03X-2722Y-2872I0J-36D01*
G01Y-2923D01*
G01X-2790D01*
G01Y-2866D01*
G03X-2826Y-2830I-36J0D01*
G01X-2966D01*
G03X-3002Y-2866I0J-36D01*
G01Y-3078D01*
G03X-2966Y-3114I36J0D01*
G01X-2826D01*
G03X-2790Y-3078I0J36D01*
G01Y-3020D01*
G01X-2722D01*
G01Y-3072D01*
G03X-2686Y-3108I36J0D01*
G01X-2486D01*
G03X-2450Y-3072I0J36D01*
G01Y-2872D01*
G03X-2486Y-2836I-36J0D01*
G01X-2579D01*
G01Y-2631D01*
G01X-2568D01*
G03X-2532Y-2595I0J36D01*
G01Y-2535D01*
G03X-2555Y-2502I-36J0D01*
G03X-2532Y-2468I-13J34D01*
G01Y-2408D01*
G03X-2555Y-2375I-36J0D01*
G03X-2532Y-2341I-13J34D01*
G01Y-2281D01*
G03X-2555Y-2248I-36J0D01*
G03X-2532Y-2214I-13J34D01*
G01Y-2154D01*
G03X-2568Y-2119I-36J0D01*
G01X-2579D01*
G01Y-2065D01*
G01X-2542D01*
G03X-2506Y-2029I0J36D01*
G01Y-1857D01*
G03X-2542Y-1821I-36J0D01*
G01X-2568D01*
G01Y-1683D01*
G01X-2559D01*
G03X-2524Y-1647I0J36D01*
G01Y-1559D01*
G01X-2389Y-1424D01*
G01X866D01*
G01Y-3973D01*
G01X580Y-3687D01*
G03X533Y-3668I-47J-47D01*
G01X-94D01*
G01Y-3483D01*
G03X-130Y-3447I-36J0D01*
G01X-205D01*
G01Y-3366D01*
G03X-220Y-3332I-49J0D01*
G01X-624Y-2928D01*
G01X-613D01*
G03X-577Y-2892I0J36D01*
G01Y-2772D01*
G03X-613Y-2736I-36J0D01*
G01X-752D01*
G01Y-2153D01*
G01X-626D01*
G03X-590Y-2117I0J36D01*
G01Y-1997D01*
G03X-626Y-1962I-36J0D01*
G01X-976D01*
G03X-1012Y-1997I0J-36D01*
G01Y-2117D01*
G03X-976Y-2153I36J0D01*
G01X-849D01*
G01Y-2736D01*
G01X-963D01*
G03X-999Y-2772I0J-36D01*
G01Y-2791D01*
G01X-1211D01*
G01Y-2654D01*
G03X-1247Y-2618I-36J0D01*
G01X-1428D01*
G01X-1452Y-2595D01*
G03X-1463Y-2586I-34J-34D01*
G03X-1441Y-2553I-14J33D01*
G01Y-2432D01*
G03X-1443Y-2420I-36J0D01*
G03X-1426Y-2409I-17J45D01*
G01X-1298Y-2281D01*
G03X-1284Y-2247I-34J34D01*
G01Y-1852D01*
G01X-1270D01*
G03X-1234Y-1816I0J36D01*
G01Y-1716D01*
G03X-1270Y-1680I-36J0D01*
G01X-1395D01*
G03X-1431Y-1716I0J-36D01*
G01Y-1816D01*
G03X-1395Y-1852I36J0D01*
G01X-1381D01*
G01Y-2227D01*
G01X-1481Y-2326D01*
G01X-1623D01*
G01X-1590Y-2293D01*
G01X-1477D01*
G03X-1441Y-2257I0J36D01*
G01Y-2137D01*
G03X-1477Y-2101I-36J0D01*
G01X-1647D01*
G03X-1683Y-2137I0J-36D01*
G01Y-2249D01*
G01X-1696Y-2263D01*
G01X-1955D01*
G03X-1973Y-2248I-31J-19D01*
G03X-1955Y-2233I-13J34D01*
G01X-1892D01*
G03X-1858Y-2219I0J49D01*
G01X-1540Y-1901D01*
G03X-1526Y-1867I-34J34D01*
G01Y-1851D01*
G01X-1505D01*
G03X-1469Y-1815I0J36D01*
G01Y-1715D01*
G03X-1505Y-1679I-36J0D01*
G01X-1645D01*
G03X-1681Y-1715I0J-36D01*
G01Y-1815D01*
G03X-1645Y-1851I36J0D01*
G01X-1628D01*
G01X-1912Y-2136D01*
G01X-1955D01*
G03X-1986Y-2119I-31J-19D01*
G01X-2106D01*
G03X-2142Y-2154I0J-36D01*
G01Y-2214D01*
G03X-2119Y-2248I36J0D01*
G03X-2142Y-2281I13J-34D01*
G01Y-2341D01*
G03X-2119Y-2375I36J0D01*
G03X-2142Y-2408I13J-34D01*
G01Y-2468D01*
G03X-2119Y-2502I36J0D01*
G03X-2142Y-2535I13J-34D01*
G01Y-2595D01*
G03X-2116Y-2630I36J0D01*
G01X-2181Y-2695D01*
G03X-2195Y-2729I34J-34D01*
G01Y-2836D01*
G01X-2246D01*
G03X-2282Y-2872I0J-36D01*
G01Y-3039D01*
G01X-2892Y-3649D01*
G03X-2906Y-3683I34J-34D01*
G01Y-5448D01*
G03X-2892Y-5483I49J0D01*
G01X-2651Y-5724D01*
G03X-2616Y-5738I34J34D01*
G01X-1068D01*
G01X-765Y-6041D01*
G01X-806D01*
G03X-842Y-6077I0J-36D01*
G01Y-6217D01*
G03X-806Y-6253I36J0D01*
G01X-376D01*
G03X-340Y-6217I0J36D01*
G01Y-6077D01*
G03X-376Y-6041I-36J0D01*
G01X-628D01*
G01X-1014Y-5655D01*
G03X-1048Y-5641I-34J-34D01*
G01X-2596D01*
G01X-2809Y-5428D01*
G01Y-3703D01*
G01X-2213Y-3108D01*
G01X-2046D01*
G03X-2011Y-3072I0J36D01*
G01Y-2872D01*
G03X-2046Y-2836I-36J0D01*
G01X-2098D01*
G01Y-2749D01*
G01X-2026Y-2677D01*
G01X-1951D01*
G01Y-2703D01*
G03X-1915Y-2739I36J0D01*
G01X-1742D01*
G03X-1707Y-2703I0J36D01*
G01Y-2677D01*
G01X-1507D01*
G01Y-2858D01*
G03X-1471Y-2894I36J0D01*
G01X-1247D01*
G03X-1227Y-2888I0J36D01*
G01X-999D01*
G01Y-2892D01*
G03X-963Y-2928I36J0D01*
G01X-761D01*
G01X-303Y-3386D01*
G01Y-3447D01*
G01X-378D01*
G03X-414Y-3483I0J-36D01*
G01Y-3985D01*
G03X-378Y-4021I36J0D01*
G01X-130D01*
G03X-94Y-3985I0J36D01*
G01Y-3800D01*
G01X506D01*
G01X866Y-4160D01*
G01Y-4919D01*
G01X-345D01*
G01X-366Y-4893D01*
G03X-368Y-4890I-28J-22D01*
G01X-943Y-4284D01*
G03X-969Y-4273I-26J-25D01*
G01X-1114D01*
G03X-1139Y-4284I0J-36D01*
G01X-1611Y-4755D01*
G01X-2210D01*
G03X-2182Y-4720I-8J35D01*
G01Y-4540D01*
G03X-2218Y-4505I-36J0D01*
G01X-2278D01*
G03X-2311Y-4528I0J-36D01*
G03X-2345Y-4505I-34J-13D01*
G01X-2405D01*
G03X-2438Y-4528I0J-36D01*
G03X-2472Y-4505I-34J-13D01*
G01X-2532D01*
G03X-2565Y-4528I0J-36D01*
G03X-2577Y-4512I-34J-13D01*
G01X-2558Y-4494D01*
G01X-1867D01*
G03X-1833Y-4479I0J49D01*
G01X-1747Y-4394D01*
G03X-1733Y-4359I-34J34D01*
G01Y-4179D01*
G01X-1716D01*
G03X-1651Y-4115I0J65D01*
G03X-1681Y-4060I-65J0D01*
G01X-1663Y-4042D01*
G03X-1652Y-4016I-25J25D01*
G01Y-4000D01*
G03X-1651Y-3988I-63J13D01*
G03X-1652Y-3975I-65J0D01*
G01Y-3873D01*
G03X-1651Y-3861I-63J13D01*
G03X-1652Y-3848I-65J0D01*
G01Y-3746D01*
G03X-1651Y-3734I-63J13D01*
G03X-1652Y-3721I-65J0D01*
G01Y-3682D01*
G03X-1663Y-3657I-36J0D01*
G01X-1694Y-3626D01*
G03X-1719Y-3615I-25J-25D01*
G01X-2157D01*
G03X-2177Y-3622I0J-36D01*
G01X-2680D01*
G03X-2716Y-3658I0J-36D01*
G01Y-4213D01*
G03X-2705Y-4239I36J0D01*
G01X-2654Y-4290D01*
G03X-2629Y-4300I25J25D01*
G03X-2604Y-4290I0J36D01*
G01X-2563Y-4249D01*
G03X-2532Y-4266I31J18D01*
G01X-2472D01*
G03X-2438Y-4243I0J36D01*
G03X-2405Y-4266I34J13D01*
G01X-2345D01*
G03X-2311Y-4243I0J36D01*
G03X-2278Y-4266I34J13D01*
G01X-2218D01*
G03X-2182Y-4230I0J36D01*
G01Y-4197D01*
G01X-2129Y-4251D01*
G01Y-4379D01*
G03X-2124Y-4396I36J0D01*
G01X-2578D01*
G03X-2612Y-4411I0J-49D01*
G01X-2663Y-4461D01*
G03X-2677Y-4496I34J-34D01*
G01Y-4510D01*
G03X-2695Y-4540I19J-31D01*
G01Y-4720D01*
G03X-2659Y-4756I36J0D01*
G01X-2614D01*
G03X-2631Y-4766I8J-35D01*
G01X-2674Y-4809D01*
G03X-2690Y-4839I20J-30D01*
G03X-2680Y-4864I36J0D01*
G01X-2677Y-4866D01*
G01Y-4978D01*
G03X-2667Y-5004I36J0D01*
G01X-2638Y-5032D01*
G03X-2613Y-5043I25J25D01*
G01X-2382D01*
G01X-2198Y-5226D01*
G03X-2173Y-5237I25J25D01*
G01X-802D01*
G03X-827Y-5271I11J-34D01*
G01Y-5551D01*
G03X-792Y-5587I36J0D01*
G01X-682D01*
G03X-646Y-5551I0J36D01*
G01Y-5271D01*
G03X-671Y-5237I-36J0D01*
G01X-629D01*
G03X-607Y-5229I0J36D01*
G01X-377Y-5050D01*
G01X866D01*
G01Y-6352D01*
G01X-340D01*
G01Y-6331D01*
G03X-376Y-6295I-36J0D01*
G01X-806D01*
G03X-842Y-6331I0J-36D01*
G01Y-6352D01*
G01X-1185D01*
G01Y-5866D01*
G03X-1221Y-5830I-36J0D01*
G01X-2081D01*
G03X-2117Y-5866I0J-36D01*
G01Y-6936D01*
G03X-2081Y-6972I36J0D01*
G01X-1221D01*
G03X-1185Y-6936I0J36D01*
G01Y-6924D01*
G01X-1000Y-7109D01*
G01Y-7236D01*
G03X-964Y-7272I36J0D01*
G01X-816D01*
G03X-780Y-7236I0J36D01*
G01Y-7064D01*
G03X-816Y-7028I-36J0D01*
G01X-944D01*
G01X-1185Y-6786D01*
G01Y-6449D01*
G01X-842D01*
G01Y-6471D01*
G03X-806Y-6507I36J0D01*
G01X-376D01*
G03X-340Y-6471I0J36D01*
G01Y-6449D01*
G01X866D01*
G01X-1004Y-4233D02*
G03X-984Y-4227I0J36D01*
G01X-648D01*
G03X-612Y-4191I0J36D01*
G01Y-3493D01*
G01Y-3492D01*
G03X-616Y-3477I-36J0D01*
G03X-651Y-3447I-35J-6D01*
G01X-898D01*
G03X-923Y-3457I0J-36D01*
G01X-1435D01*
G03X-1471Y-3492I0J-36D01*
G01Y-3493D01*
G01Y-4191D01*
G03X-1435Y-4227I36J0D01*
G01X-1099D01*
G03X-1079Y-4233I20J30D01*
G01X-1004D01*
G01X-2264Y-1683D02*
G03X-2228Y-1647I0J36D01*
G01Y-1611D01*
G01X-1680D01*
G03X-1645Y-1641I35J5D01*
G01X-1505D01*
G03X-1469Y-1605I0J36D01*
G01Y-1604D01*
G01X-1430D01*
G03X-1395Y-1632I35J8D01*
G01X-1270D01*
G03X-1234Y-1596I0J36D01*
G01Y-1496D01*
G03X-1270Y-1460I-36J0D01*
G01X-1395D01*
G03X-1431Y-1496I0J-36D01*
G01Y-1507D01*
G01X-1469D01*
G01Y-1505D01*
G03X-1505Y-1469I-36J0D01*
G01X-1645D01*
G03X-1681Y-1505I0J-36D01*
G01Y-1514D01*
G01X-2228D01*
G01Y-1477D01*
G03X-2264Y-1441I-36J0D01*
G01X-2384D01*
G03X-2420Y-1477I0J-36D01*
G01Y-1647D01*
G03X-2384Y-1683I36J0D01*
G01X-2264D01*
G01X-2493Y-2540D02*
G03X-2457Y-2576I36J0D01*
G01X-2217D01*
G03X-2181Y-2540I0J36D01*
G01Y-2210D01*
G03X-2217Y-2174I-36J0D01*
G01X-2457D01*
G03X-2493Y-2210I0J-36D01*
G01Y-2540D01*
G01X-842Y-6725D02*
G03X-806Y-6761I36J0D01*
G01X-376D01*
G03X-340Y-6725I0J36D01*
G01Y-6585D01*
G03X-376Y-6549I-36J0D01*
G01X-806D01*
G03X-842Y-6585I0J-36D01*
G01Y-6725D01*
G01X-1507Y-3377D02*
G03X-1471Y-3412I36J0D01*
G01X-1247D01*
G03X-1211Y-3377I0J36D01*
G01Y-3172D01*
G03X-1247Y-3136I-36J0D01*
G01X-1471D01*
G03X-1507Y-3172I0J-36D01*
G01Y-3377D01*
G01X-478Y-2117D02*
G03X-442Y-2153I36J0D01*
G01X-92D01*
G03X-56Y-2117I0J36D01*
G01Y-1997D01*
G03X-92Y-1962I-36J0D01*
G01X-442D01*
G03X-478Y-1997I0J-36D01*
G01Y-2117D01*
G01X-79Y-2928D02*
G03X-43Y-2892I0J36D01*
G01Y-2772D01*
G03X-79Y-2736I-36J0D01*
G01X-429D01*
G03X-465Y-2772I0J-36D01*
G01Y-2892D01*
G03X-429Y-2928I36J0D01*
G01X-79D01*
G01X-2129Y-4697D02*
G03X-2093Y-4733I36J0D01*
G01X-1920D01*
G03X-1884Y-4697I0J36D01*
G01Y-4549D01*
G03X-1920Y-4513I-36J0D01*
G01X-2093D01*
G03X-2129Y-4549I0J-36D01*
G01Y-4697D01*
G01X-2416Y-5343D02*
G03X-2380Y-5308I0J36D01*
G01Y-5159D01*
G03X-2416Y-5123I-36J0D01*
G01X-2588D01*
G03X-2624Y-5159I0J-36D01*
G01Y-5308D01*
G03X-2588Y-5343I36J0D01*
G01X-2416D01*
G01X-1742Y-3057D02*
G03X-1707Y-3022I0J36D01*
G01Y-2873D01*
G03X-1742Y-2837I-36J0D01*
G01X-1915D01*
G03X-1951Y-2873I0J-36D01*
G01Y-3022D01*
G03X-1915Y-3057I36J0D01*
G01X-1742D01*
G01X-497Y-7272D02*
G03X-461Y-7236I0J36D01*
G01Y-7064D01*
G03X-497Y-7028I-36J0D01*
G01X-646D01*
G03X-682Y-7064I0J-36D01*
G01Y-7236D01*
G03X-646Y-7272I36J0D01*
G01X-497D01*
G01X-2408Y-2029D02*
G03X-2372Y-2065I36J0D01*
G01X-2223D01*
G03X-2188Y-2029I0J36D01*
G01Y-1857D01*
G03X-2223Y-1821I-36J0D01*
G01X-2372D01*
G03X-2408Y-1857I0J-36D01*
G01Y-2029D01*
G01X-2723Y-2214D02*
G03X-2722Y-2225I36J0D01*
G01X-2761D01*
G01Y-2212D01*
G03X-2797Y-2176I-36J0D01*
G01X-2969D01*
G03X-3005Y-2212I0J-36D01*
G01Y-2220D01*
G01X-3027D01*
G01Y-2212D01*
G03X-3063Y-2176I-36J0D01*
G01X-3236D01*
G03X-3272Y-2212I0J-36D01*
G01Y-2220D01*
G01X-3294D01*
G01Y-2212D01*
G03X-3330Y-2176I-36J0D01*
G01X-3503D01*
G03X-3539Y-2212I0J-36D01*
G01Y-2220D01*
G01X-3635D01*
G01Y-1242D01*
G01X866Y-1256D01*
G01Y-1293D01*
G01X-2416D01*
G03X-2463Y-1312I0J-66D01*
G01X-2592Y-1441D01*
G01X-2680D01*
G03X-2716Y-1477I0J-36D01*
G01Y-1647D01*
G03X-2680Y-1683I36J0D01*
G01X-2665D01*
G01Y-1821D01*
G01X-2690D01*
G03X-2726Y-1857I0J-36D01*
G01Y-2029D01*
G03X-2690Y-2065I36J0D01*
G01X-2676D01*
G01Y-2119D01*
G01X-2688D01*
G03X-2723Y-2154I0J-36D01*
G01Y-2214D01*
G01X-2797Y-2078D02*
G03X-2761Y-2042I0J36D01*
G01Y-1893D01*
G03X-2797Y-1857I-36J0D01*
G01X-2969D01*
G03X-3005Y-1893I0J-36D01*
G01Y-2042D01*
G03X-2969Y-2078I36J0D01*
G01X-2797D01*
G01X-3272Y-2042D02*
G03X-3236Y-2078I36J0D01*
G01X-3063D01*
G03X-3027Y-2042I0J36D01*
G01Y-1893D01*
G03X-3063Y-1857I-36J0D01*
G01X-3236D01*
G03X-3272Y-1893I0J-36D01*
G01Y-2042D01*
G01X-3539Y-2042D02*
G03X-3503Y-2078I36J0D01*
G01X-3330D01*
G03X-3294Y-2042I0J36D01*
G01Y-1893D01*
G03X-3330Y-1857I-36J0D01*
G01X-3503D01*
G03X-3539Y-1893I0J-36D01*
G01Y-2042D01*
G01X-2565Y-4037D02*
G01X-2566Y-4037D01*
G03X-2599Y-4014I-33J-13D01*
G01X-2659D01*
G03X-2670Y-4016I0J-36D01*
G01Y-3807D01*
G03X-2642Y-3813I28J61D01*
G03X-2596Y-3795I0J67D01*
G01X-2487D01*
G01Y-3844D01*
G03X-2452Y-3880I36J0D01*
G01X-2331D01*
G03X-2295Y-3844I0J36D01*
G01Y-3674D01*
G03X-2296Y-3668I-36J0D01*
G01X-2191D01*
G03X-2192Y-3674I35J-6D01*
G01Y-3844D01*
G03X-2156Y-3880I36J0D01*
G01X-2035D01*
G03X-1999Y-3844I0J36D01*
G01Y-3674D01*
G03X-2002Y-3661I-36J0D01*
G01X-1723D01*
G01X-1716Y-3669D01*
G01X-1847D01*
G03X-1911Y-3734I0J-65D01*
G03X-1858Y-3797I65J0D01*
G03X-1911Y-3861I11J-63D01*
G03X-1858Y-3924I65J0D01*
G03X-1911Y-3988I11J-63D01*
G03X-1896Y-4029I65J0D01*
G01X-2189D01*
G03X-2218Y-4014I-29J-21D01*
G01X-2278D01*
G03X-2307Y-4029I0J-36D01*
G01X-2316D01*
G03X-2345Y-4014I-29J-21D01*
G01X-2405D01*
G03X-2434Y-4029I0J-36D01*
G01X-2443D01*
G03X-2472Y-4014I-29J-21D01*
G01X-2532D01*
G03X-2565Y-4037I0J-36D01*
G01X-2169Y-5191D02*
G01X-2360Y-5000D01*
G03X-2367Y-4997I-7J-7D01*
G01X-2381D01*
G03X-2380Y-4989I-35J8D01*
G01Y-4841D01*
G03X-2416Y-4805I-36J0D01*
G01X-2588D01*
G03X-2624Y-4841I0J-36D01*
G01Y-4982D01*
G01X-2631Y-4974D01*
G01Y-4851D01*
G03X-2634Y-4844I-10J0D01*
G01X-2639Y-4839D01*
G01X-2602Y-4801D01*
G01X-1596D01*
G03X-1589Y-4798I0J10D01*
G01X-1114Y-4323D01*
G03X-1115Y-4332I35J-9D01*
G01Y-4431D01*
G03X-1079Y-4467I36J0D01*
G01X-1004D01*
G03X-968Y-4431I0J36D01*
G01Y-4332D01*
G03X-969Y-4323I-36J0D01*
G01X-401Y-4922D01*
G01X-357Y-4977D01*
G01X-633Y-5191D01*
G01X-736D01*
G01X-2169D01*
G01X-827Y-5131D02*
G03X-792Y-5167I36J0D01*
G01X-682D01*
G03X-646Y-5131I0J36D01*
G01Y-4851D01*
G03X-682Y-4815I-36J0D01*
G01X-792D01*
G03X-827Y-4851I0J-36D01*
G01Y-5131D01*
G01X-1683Y-2553D02*
G03X-1671Y-2580I36J0D01*
G01X-1707D01*
G01Y-2555D01*
G03X-1742Y-2519I-36J0D01*
G01X-1915D01*
G03X-1950Y-2547I0J-36D01*
G01Y-2535D01*
G03X-1973Y-2502I-36J0D01*
G03X-1950Y-2468I-13J34D01*
G01Y-2423D01*
G01X-1682D01*
G03X-1683Y-2432I35J-9D01*
G01Y-2553D01*
G01X-658Y-4021D02*
G01X-658Y-4181D01*
G01X-968D01*
G01Y-4097D01*
G03X-1004Y-4061I-36J0D01*
G01X-1079D01*
G03X-1115Y-4094I0J-36D01*
G03X-1164Y-4051I-61J-21D01*
G03X-1111Y-3988I-11J64D01*
G03X-1164Y-3924I-65J0D01*
G03X-1111Y-3861I-11J64D01*
G03X-1164Y-3797I-65J0D01*
G03X-1111Y-3734I-11J64D01*
G03X-1176Y-3669I-65J0D01*
G01X-1307D01*
G03X-1371Y-3734I0J-65D01*
G03X-1318Y-3797I65J0D01*
G03X-1371Y-3861I11J-63D01*
G03X-1318Y-3924I65J0D01*
G03X-1371Y-3988I11J-63D01*
G03X-1318Y-4051I65J0D01*
G03X-1371Y-4115I11J-63D01*
G03X-1307Y-4179I65J0D01*
G01X-1176D01*
G03X-1115Y-4136I0J65D01*
G01Y-4181D01*
G01X-1425D01*
G01Y-3503D01*
G01X-934D01*
G01Y-3985D01*
G03X-898Y-4021I36J0D01*
G01X-658D01*
G54D11*
G01X-1241Y-3861D02*
G01X-1121Y-3861D01*
G01X-1241Y-3861D02*
G01X-1362Y-3861D01*
G01X-775Y-3734D02*
G01X-924Y-3734D01*
G01X-775Y-3734D02*
G01X-775Y-4011D01*
G01X-1041Y-4147D02*
G01X-1041Y-4071D01*
G01X-1041Y-4147D02*
G01X-1105Y-4147D01*
G01X-1041Y-4147D02*
G01X-978Y-4147D01*
G01X-1241Y-3734D02*
G01X-1241Y-3679D01*
G01X-1241Y-3734D02*
G01X-1121Y-3734D01*
G01X-1241Y-3734D02*
G01X-1362Y-3734D01*
G01X-1241Y-4115D02*
G01X-1241Y-4169D01*
G01X-1241Y-4115D02*
G01X-1362Y-4115D01*
G01X-1241Y-3988D02*
G01X-1121Y-3988D01*
G01X-1241Y-3988D02*
G01X-1362Y-3988D01*
G01X-2095Y-3759D02*
G01X-2009Y-3759D01*
G01X-2095Y-3759D02*
G01X-2182Y-3759D01*
G01X-2095Y-3759D02*
G01X-2095Y-3870D01*
G01X-1781Y-3861D02*
G01X-1902Y-3861D01*
G01X-1781Y-3734D02*
G01X-1781Y-3679D01*
G01X-1781Y-3734D02*
G01X-1902Y-3734D01*
G01X-2629Y-4140D02*
G01X-2629Y-4024D01*
G01X-1781Y-3988D02*
G01X-1902Y-3988D01*
G01X-2502Y-4915D02*
G01X-2502Y-4815D01*
G01X-2502Y-4915D02*
G01X-2614Y-4915D01*
G01X-2502Y-4915D02*
G01X-2390Y-4915D01*
G01X-737Y-4991D02*
G01X-737Y-4825D01*
G01X-737Y-4991D02*
G01X-737Y-5157D01*
G01X-737Y-4991D02*
G01X-656Y-4991D01*
G01X-737Y-4991D02*
G01X-818Y-4991D01*
G01X-1041Y-4381D02*
G01X-1041Y-4457D01*
G01X-1041Y-4381D02*
G01X-1105Y-4381D01*
G01X-1041Y-4381D02*
G01X-978Y-4381D01*
G01X-591Y-6655D02*
G01X-350Y-6655D01*
G01X-591Y-6655D02*
G01X-832Y-6655D01*
G01X-591Y-6655D02*
G01X-591Y-6751D01*
G01X-591Y-6655D02*
G01X-591Y-6559D01*
G01X-737Y-5411D02*
G01X-737Y-5577D01*
G01X-737Y-5411D02*
G01X-656Y-5411D01*
G01X-737Y-5411D02*
G01X-818Y-5411D01*
G01X-1829Y-2947D02*
G01X-1829Y-3048D01*
G01X-1829Y-2947D02*
G01X-1829Y-2847D01*
G01X-1829Y-2947D02*
G01X-1941Y-2947D01*
G01X-1829Y-2947D02*
G01X-1716Y-2947D01*
G01X-2502Y-5233D02*
G01X-2502Y-5334D01*
G01X-2502Y-5233D02*
G01X-2502Y-5133D01*
G01X-2502Y-5233D02*
G01X-2614Y-5233D01*
G01X-2502Y-5233D02*
G01X-2390Y-5233D01*
G01X-1562Y-2493D02*
G01X-1673Y-2493D01*
G01X-1562Y-2493D02*
G01X-1451Y-2493D01*
G01X-2502Y-4140D02*
G01X-2502Y-4256D01*
G01X-2375Y-4630D02*
G01X-2375Y-4514D01*
G01X-2375Y-4140D02*
G01X-2375Y-4256D01*
G01X-2248Y-4630D02*
G01X-2192Y-4630D01*
G01X-2248Y-4630D02*
G01X-2248Y-4514D01*
G01X-571Y-7150D02*
G01X-471Y-7150D01*
G01X-571Y-7150D02*
G01X-672Y-7150D01*
G01X-571Y-7150D02*
G01X-571Y-7262D01*
G01X-571Y-7150D02*
G01X-571Y-7038D01*
G01X-267Y-2057D02*
G01X-468Y-2057D01*
G01X-267Y-2057D02*
G01X-66Y-2057D01*
G01X-267Y-2057D02*
G01X-267Y-1971D01*
G01X-267Y-2057D02*
G01X-267Y-2143D01*
G01X-3416Y-1967D02*
G01X-3416Y-1867D01*
G01X-3416Y-1967D02*
G01X-3416Y-2068D01*
G01X-3416Y-1967D02*
G01X-3304Y-1967D01*
G01X-3416Y-1967D02*
G01X-3529Y-1967D01*
G01X-254Y-2832D02*
G01X-455Y-2832D01*
G01X-254Y-2832D02*
G01X-53Y-2832D01*
G01X-254Y-2832D02*
G01X-254Y-2746D01*
G01X-254Y-2832D02*
G01X-254Y-2918D01*
G01X-1359Y-3274D02*
G01X-1359Y-3402D01*
G01X-1359Y-3274D02*
G01X-1359Y-3146D01*
G01X-1359Y-3274D02*
G01X-1497Y-3274D01*
G01X-1359Y-3274D02*
G01X-1221Y-3274D01*
G01X-2337Y-2375D02*
G01X-2337Y-2184D01*
G01X-2337Y-2375D02*
G01X-2337Y-2566D01*
G01X-2337Y-2375D02*
G01X-2191Y-2375D01*
G01X-2337Y-2375D02*
G01X-2483Y-2375D01*
G01X-2298Y-1943D02*
G01X-2198Y-1943D01*
G01X-2298Y-1943D02*
G01X-2398Y-1943D01*
G01X-2298Y-1943D02*
G01X-2298Y-2055D01*
G01X-2298Y-1943D02*
G01X-2298Y-1831D01*
G01X-2883Y-1967D02*
G01X-2883Y-1867D01*
G01X-2883Y-1967D02*
G01X-2883Y-2068D01*
G01X-2883Y-1967D02*
G01X-2771Y-1967D01*
G01X-2883Y-1967D02*
G01X-2995Y-1967D01*
G01X-2628Y-2438D02*
G01X-2714Y-2438D01*
G01X-2628Y-2438D02*
G01X-2542Y-2438D01*
G01X-3150Y-1967D02*
G01X-3150Y-1867D01*
G01X-3150Y-1967D02*
G01X-3150Y-2068D01*
G01X-3150Y-1967D02*
G01X-3037Y-1967D01*
G01X-3150Y-1967D02*
G01X-3262Y-1967D01*
G01X-2007Y-4623D02*
G01X-2007Y-4723D01*
G01X-2007Y-4623D02*
G01X-2007Y-4523D01*
G01X-2007Y-4623D02*
G01X-2119Y-4623D01*
G01X-2007Y-4623D02*
G01X-1894Y-4623D01*
G04 Copper End*

G04 PolygonModel Start*
G36*
G01X-4882Y-7763D02*
G01X-4884Y-7765D01*
G01X-4564D01*
G01X-4569Y-7760D01*
G01X-4574Y-7756D01*
G01X-4578Y-7751D01*
G01X-4583Y-7747D01*
G01X-4588Y-7742D01*
G01X-4594Y-7738D01*
G01X-4599Y-7734D01*
G01X-4604Y-7731D01*
G01X-4610Y-7727D01*
G01X-4615Y-7724D01*
G01X-4621Y-7720D01*
G01X-4627Y-7717D01*
G01X-4633Y-7714D01*
G01X-4639Y-7712D01*
G01X-4645Y-7709D01*
G01X-4651Y-7707D01*
G01X-4658Y-7705D01*
G01X-4664Y-7703D01*
G01X-4670Y-7701D01*
G01X-4677Y-7699D01*
G01X-4683Y-7698D01*
G01X-4690Y-7697D01*
G01X-4696Y-7696D01*
G01X-4703Y-7695D01*
G01X-4709D01*
G01X-4716Y-7694D01*
G01X-4723D01*
G01X-4729D01*
G01X-4736D01*
G01X-4742Y-7695D01*
G01X-4749D01*
G01X-4756Y-7696D01*
G01X-4762Y-7697D01*
G01X-4769Y-7699D01*
G01X-4775Y-7700D01*
G01X-4781Y-7702D01*
G01X-4788Y-7704D01*
G01X-4794Y-7706D01*
G01X-4800Y-7708D01*
G01X-4806Y-7710D01*
G01X-4813Y-7713D01*
G01X-4819Y-7716D01*
G01X-4824Y-7719D01*
G01X-4830Y-7722D01*
G01X-4836Y-7725D01*
G01X-4842Y-7729D01*
G01X-4847Y-7732D01*
G01X-4852Y-7736D01*
G01X-4858Y-7740D01*
G01X-4863Y-7744D01*
G01X-4868Y-7749D01*
G01X-4873Y-7753D01*
G01X-4877Y-7758D01*
G01X-4882Y-7763D01*
G37*
G54D12*
G01X-4882Y-7763D02*
G01X-4884Y-7765D01*
G01X-4564D01*
G01X-4569Y-7760D01*
G01X-4574Y-7756D01*
G01X-4578Y-7751D01*
G01X-4583Y-7747D01*
G01X-4588Y-7742D01*
G01X-4594Y-7738D01*
G01X-4599Y-7734D01*
G01X-4604Y-7731D01*
G01X-4610Y-7727D01*
G01X-4615Y-7724D01*
G01X-4621Y-7720D01*
G01X-4627Y-7717D01*
G01X-4633Y-7714D01*
G01X-4639Y-7712D01*
G01X-4645Y-7709D01*
G01X-4651Y-7707D01*
G01X-4658Y-7705D01*
G01X-4664Y-7703D01*
G01X-4670Y-7701D01*
G01X-4677Y-7699D01*
G01X-4683Y-7698D01*
G01X-4690Y-7697D01*
G01X-4696Y-7696D01*
G01X-4703Y-7695D01*
G01X-4709D01*
G01X-4716Y-7694D01*
G01X-4723D01*
G01X-4729D01*
G01X-4736D01*
G01X-4742Y-7695D01*
G01X-4749D01*
G01X-4756Y-7696D01*
G01X-4762Y-7697D01*
G01X-4769Y-7699D01*
G01X-4775Y-7700D01*
G01X-4781Y-7702D01*
G01X-4788Y-7704D01*
G01X-4794Y-7706D01*
G01X-4800Y-7708D01*
G01X-4806Y-7710D01*
G01X-4813Y-7713D01*
G01X-4819Y-7716D01*
G01X-4824Y-7719D01*
G01X-4830Y-7722D01*
G01X-4836Y-7725D01*
G01X-4842Y-7729D01*
G01X-4847Y-7732D01*
G01X-4852Y-7736D01*
G01X-4858Y-7740D01*
G01X-4863Y-7744D01*
G01X-4868Y-7749D01*
G01X-4873Y-7753D01*
G01X-4877Y-7758D01*
G01X-4882Y-7763D01*
G36*
G01X-4567Y-1064D02*
G01X-4564Y-1061D01*
G01X-4884D01*
G01X-4880Y-1066D01*
G01X-4875Y-1071D01*
G01X-4870Y-1075D01*
G01X-4866Y-1080D01*
G01X-4860Y-1084D01*
G01X-4855Y-1088D01*
G01X-4850Y-1092D01*
G01X-4845Y-1096D01*
G01X-4839Y-1099D01*
G01X-4833Y-1103D01*
G01X-4828Y-1106D01*
G01X-4822Y-1109D01*
G01X-4816Y-1112D01*
G01X-4810Y-1115D01*
G01X-4804Y-1117D01*
G01X-4797Y-1120D01*
G01X-4791Y-1122D01*
G01X-4785Y-1124D01*
G01X-4779Y-1126D01*
G01X-4772Y-1127D01*
G01X-4766Y-1129D01*
G01X-4759Y-1130D01*
G01X-4753Y-1131D01*
G01X-4746D01*
G01X-4739Y-1132D01*
G01X-4733D01*
G01X-4726Y-1133D01*
G01X-4720Y-1132D01*
G01X-4713D01*
G01X-4706D01*
G01X-4700Y-1131D01*
G01X-4693Y-1130D01*
G01X-4687Y-1129D01*
G01X-4680Y-1128D01*
G01X-4674Y-1126D01*
G01X-4667Y-1125D01*
G01X-4661Y-1123D01*
G01X-4655Y-1121D01*
G01X-4648Y-1119D01*
G01X-4642Y-1116D01*
G01X-4636Y-1114D01*
G01X-4630Y-1111D01*
G01X-4624Y-1108D01*
G01X-4619Y-1105D01*
G01X-4613Y-1101D01*
G01X-4607Y-1098D01*
G01X-4602Y-1094D01*
G01X-4596Y-1090D01*
G01X-4591Y-1086D01*
G01X-4586Y-1082D01*
G01X-4581Y-1078D01*
G01X-4576Y-1073D01*
G01X-4571Y-1069D01*
G01X-4567Y-1064D01*
G37*
G01X-4567Y-1064D02*
G01X-4564Y-1061D01*
G01X-4884D01*
G01X-4880Y-1066D01*
G01X-4875Y-1071D01*
G01X-4870Y-1075D01*
G01X-4866Y-1080D01*
G01X-4860Y-1084D01*
G01X-4855Y-1088D01*
G01X-4850Y-1092D01*
G01X-4845Y-1096D01*
G01X-4839Y-1099D01*
G01X-4833Y-1103D01*
G01X-4828Y-1106D01*
G01X-4822Y-1109D01*
G01X-4816Y-1112D01*
G01X-4810Y-1115D01*
G01X-4804Y-1117D01*
G01X-4797Y-1120D01*
G01X-4791Y-1122D01*
G01X-4785Y-1124D01*
G01X-4779Y-1126D01*
G01X-4772Y-1127D01*
G01X-4766Y-1129D01*
G01X-4759Y-1130D01*
G01X-4753Y-1131D01*
G01X-4746D01*
G01X-4739Y-1132D01*
G01X-4733D01*
G01X-4726Y-1133D01*
G01X-4720Y-1132D01*
G01X-4713D01*
G01X-4706D01*
G01X-4700Y-1131D01*
G01X-4693Y-1130D01*
G01X-4687Y-1129D01*
G01X-4680Y-1128D01*
G01X-4674Y-1126D01*
G01X-4667Y-1125D01*
G01X-4661Y-1123D01*
G01X-4655Y-1121D01*
G01X-4648Y-1119D01*
G01X-4642Y-1116D01*
G01X-4636Y-1114D01*
G01X-4630Y-1111D01*
G01X-4624Y-1108D01*
G01X-4619Y-1105D01*
G01X-4613Y-1101D01*
G01X-4607Y-1098D01*
G01X-4602Y-1094D01*
G01X-4596Y-1090D01*
G01X-4591Y-1086D01*
G01X-4586Y-1082D01*
G01X-4581Y-1078D01*
G01X-4576Y-1073D01*
G01X-4571Y-1069D01*
G01X-4567Y-1064D01*
G04 PolygonModel End*

G04 Pad Start*
G54D13*
G01X3611Y-2745D03*
G01X3958Y-2745D03*
G01X3958Y-2030D03*
G01X3611Y-2030D03*
G36*
G01X-376Y-6725D02*
G01X-376Y-6585D01*
G01X-806D01*
G01Y-6725D01*
G01X-376D01*
G37*
G36*
G01X-376Y-6217D02*
G01X-376Y-6077D01*
G01X-806D01*
G01Y-6217D01*
G01X-376D01*
G37*
G36*
G01X-1221Y-6936D02*
G01X-1221Y-5866D01*
G01X-2081D01*
G01Y-6936D01*
G01X-1221D01*
G37*
G36*
G01X-376Y-6471D02*
G01X-376Y-6331D01*
G01X-806D01*
G01Y-6471D01*
G01X-376D01*
G37*
G54D14*
G01X2377Y-4286D03*
G01X2312Y-4286D03*
G01X2247Y-4286D03*
G01X2182Y-4286D03*
G01X2117Y-4286D03*
G01X2052Y-4286D03*
G01X1987Y-4286D03*
G01X1922Y-4286D03*
G01X1857Y-4286D03*
G01X1792Y-4286D03*
G01X1727Y-4286D03*
G01X1662Y-4286D03*
G01X2377Y-4985D03*
G01X2312Y-4985D03*
G01X2247Y-4985D03*
G01X2182Y-4985D03*
G01X2117Y-4985D03*
G01X2052Y-4985D03*
G01X1987Y-4985D03*
G01X1922Y-4985D03*
G01X1857Y-4985D03*
G01X1792Y-4985D03*
G01X1727Y-4985D03*
G01X1662Y-4985D03*
G36*
G01X-2106Y-2595D02*
G01X-1986Y-2595D01*
G01Y-2535D01*
G01X-2106D01*
G01Y-2595D01*
G37*
G36*
G01X-2106Y-2468D02*
G01X-1986Y-2468D01*
G01Y-2408D01*
G01X-2106D01*
G01Y-2468D01*
G37*
G36*
G01X-2106Y-2341D02*
G01X-1986Y-2341D01*
G01Y-2281D01*
G01X-2106D01*
G01Y-2341D01*
G37*
G36*
G01X-2106Y-2214D02*
G01X-1986Y-2214D01*
G01Y-2154D01*
G01X-2106D01*
G01Y-2214D01*
G37*
G36*
G01X-2688Y-2214D02*
G01X-2568Y-2214D01*
G01Y-2154D01*
G01X-2688D01*
G01Y-2214D01*
G37*
G36*
G01X-2688Y-2341D02*
G01X-2568Y-2341D01*
G01Y-2281D01*
G01X-2688D01*
G01Y-2341D01*
G37*
G36*
G01X-2688Y-2468D02*
G01X-2568Y-2468D01*
G01Y-2408D01*
G01X-2688D01*
G01Y-2468D01*
G37*
G36*
G01X-2688Y-2595D02*
G01X-2568Y-2595D01*
G01Y-2535D01*
G01X-2688D01*
G01Y-2595D01*
G37*
G36*
G01X-2217Y-2210D02*
G01X-2457Y-2210D01*
G01Y-2540D01*
G01X-2217D01*
G01Y-2210D01*
G37*
G36*
G01X-1647Y-2257D02*
G01X-1477Y-2257D01*
G01Y-2137D01*
G01X-1647D01*
G01Y-2257D01*
G37*
G36*
G01X-1647Y-2553D02*
G01X-1477Y-2553D01*
G01Y-2432D01*
G01X-1647D01*
G01Y-2553D01*
G37*
G36*
G01X-2246Y-2872D02*
G01X-2246Y-3072D01*
G01X-2046D01*
G01Y-2872D01*
G01X-2246D01*
G37*
G36*
G01X-2686Y-2872D02*
G01X-2686Y-3072D01*
G01X-2486D01*
G01Y-2872D01*
G01X-2686D01*
G37*
G36*
G01X-2966Y-2866D02*
G01X-2966Y-3078D01*
G01X-2826D01*
G01Y-2866D01*
G01X-2966D01*
G37*
G36*
G01X-3371Y-2866D02*
G01X-3371Y-3078D01*
G01X-3232D01*
G01Y-2866D01*
G01X-3371D01*
G37*
G36*
G01X-1915Y-2703D02*
G01X-1742Y-2703D01*
G01Y-2555D01*
G01X-1915D01*
G01Y-2703D01*
G37*
G36*
G01X-1915Y-3022D02*
G01X-1742Y-3022D01*
G01Y-2873D01*
G01X-1915D01*
G01Y-3022D01*
G37*
G36*
G01X-2797Y-2212D02*
G01X-2969Y-2212D01*
G01Y-2360D01*
G01X-2797D01*
G01Y-2212D01*
G37*
G36*
G01X-2797Y-1893D02*
G01X-2969Y-1893D01*
G01Y-2042D01*
G01X-2797D01*
G01Y-1893D01*
G37*
G36*
G01X-2542Y-2029D02*
G01X-2542Y-1857D01*
G01X-2690D01*
G01Y-2029D01*
G01X-2542D01*
G37*
G36*
G01X-2223Y-2029D02*
G01X-2223Y-1857D01*
G01X-2372D01*
G01Y-2029D01*
G01X-2223D01*
G37*
G36*
G01X-3330Y-2212D02*
G01X-3503Y-2212D01*
G01Y-2360D01*
G01X-3330D01*
G01Y-2212D01*
G37*
G36*
G01X-3330Y-1893D02*
G01X-3503Y-1893D01*
G01Y-2042D01*
G01X-3330D01*
G01Y-1893D01*
G37*
G36*
G01X-3063Y-2212D02*
G01X-3236Y-2212D01*
G01Y-2360D01*
G01X-3063D01*
G01Y-2212D01*
G37*
G36*
G01X-3063Y-1893D02*
G01X-3236Y-1893D01*
G01Y-2042D01*
G01X-3063D01*
G01Y-1893D01*
G37*
G36*
G01X-2559Y-1647D02*
G01X-2559Y-1477D01*
G01X-2680D01*
G01Y-1647D01*
G01X-2559D01*
G37*
G36*
G01X-2264Y-1647D02*
G01X-2264Y-1477D01*
G01X-2384D01*
G01Y-1647D01*
G01X-2264D01*
G37*
G36*
G01X-1270Y-1496D02*
G01X-1395Y-1496D01*
G01Y-1596D01*
G01X-1270D01*
G01Y-1496D01*
G37*
G36*
G01X-1270Y-1716D02*
G01X-1395Y-1716D01*
G01Y-1816D01*
G01X-1270D01*
G01Y-1716D01*
G37*
G36*
G01X-1505Y-1505D02*
G01X-1645Y-1505D01*
G01Y-1605D01*
G01X-1505D01*
G01Y-1505D01*
G37*
G36*
G01X-1505Y-1715D02*
G01X-1645Y-1715D01*
G01Y-1815D01*
G01X-1505D01*
G01Y-1715D01*
G37*
G36*
G01X-816Y-7236D02*
G01X-816Y-7064D01*
G01X-964D01*
G01Y-7236D01*
G01X-816D01*
G37*
G36*
G01X-497Y-7236D02*
G01X-497Y-7064D01*
G01X-646D01*
G01Y-7236D01*
G01X-497D01*
G37*
G36*
G01X-2405Y-4540D02*
G01X-2405Y-4720D01*
G01X-2345D01*
G01Y-4540D01*
G01X-2405D01*
G37*
G36*
G01X-2278Y-4540D02*
G01X-2278Y-4720D01*
G01X-2218D01*
G01Y-4540D01*
G01X-2278D01*
G37*
G36*
G01X-2532Y-4540D02*
G01X-2532Y-4720D01*
G01X-2472D01*
G01Y-4540D01*
G01X-2532D01*
G37*
G36*
G01X-2659Y-4540D02*
G01X-2659Y-4720D01*
G01X-2599D01*
G01Y-4540D01*
G01X-2659D01*
G37*
G36*
G01X-2218Y-4230D02*
G01X-2218Y-4050D01*
G01X-2278D01*
G01Y-4230D01*
G01X-2218D01*
G37*
G36*
G01X-2345Y-4230D02*
G01X-2345Y-4050D01*
G01X-2405D01*
G01Y-4230D01*
G01X-2345D01*
G37*
G36*
G01X-2472Y-4230D02*
G01X-2472Y-4050D01*
G01X-2532D01*
G01Y-4230D01*
G01X-2472D01*
G37*
G36*
G01X-2599Y-4230D02*
G01X-2599Y-4050D01*
G01X-2659D01*
G01Y-4230D01*
G01X-2599D01*
G37*
G54D15*
G01X-1781Y-3734D03*
G01X-1781Y-3861D03*
G01X-1781Y-3988D03*
G01X-1781Y-4115D03*
G01X-1241Y-3734D03*
G01X-1241Y-3861D03*
G01X-1241Y-3988D03*
G01X-1241Y-4115D03*
G36*
G01X-1079Y-4197D02*
G01X-1004Y-4197D01*
G01Y-4097D01*
G01X-1079D01*
G01Y-4197D01*
G37*
G36*
G01X-1079Y-4431D02*
G01X-1004Y-4431D01*
G01Y-4332D01*
G01X-1079D01*
G01Y-4431D01*
G37*
G36*
G01X-651Y-3985D02*
G01X-651Y-3483D01*
G01X-898D01*
G01Y-3985D01*
G01X-651D01*
G37*
G36*
G01X-130Y-3985D02*
G01X-130Y-3483D01*
G01X-378D01*
G01Y-3985D01*
G01X-130D01*
G37*
G36*
G01X-2331Y-3844D02*
G01X-2331Y-3674D01*
G01X-2452D01*
G01Y-3844D01*
G01X-2331D01*
G37*
G36*
G01X-2035Y-3844D02*
G01X-2035Y-3674D01*
G01X-2156D01*
G01Y-3844D01*
G01X-2035D01*
G37*
G36*
G01X-2093Y-4379D02*
G01X-1920Y-4379D01*
G01Y-4230D01*
G01X-2093D01*
G01Y-4379D01*
G37*
G36*
G01X-2093Y-4697D02*
G01X-1920Y-4697D01*
G01Y-4549D01*
G01X-2093D01*
G01Y-4697D01*
G37*
G36*
G01X-2588Y-4989D02*
G01X-2416Y-4989D01*
G01Y-4841D01*
G01X-2588D01*
G01Y-4989D01*
G37*
G36*
G01X-2588Y-5308D02*
G01X-2416Y-5308D01*
G01Y-5159D01*
G01X-2588D01*
G01Y-5308D01*
G37*
G36*
G01X3740Y-4572D02*
G01X3600Y-4572D01*
G01Y-4722D01*
G01X3740D01*
G01Y-4572D01*
G37*
G54D16*
G01X3670Y-4447D03*
G36*
G01X3740Y-3556D02*
G01X3600Y-3556D01*
G01Y-3706D01*
G01X3740D01*
G01Y-3556D01*
G37*
G01X3670Y-3431D03*
G36*
G01X-976Y-1997D02*
G01X-976Y-2117D01*
G01X-626D01*
G01Y-1997D01*
G01X-976D01*
G37*
G36*
G01X-442Y-1997D02*
G01X-442Y-2117D01*
G01X-92D01*
G01Y-1997D01*
G01X-442D01*
G37*
G36*
G01X-963Y-2772D02*
G01X-963Y-2892D01*
G01X-613D01*
G01Y-2772D01*
G01X-963D01*
G37*
G36*
G01X-429Y-2772D02*
G01X-429Y-2892D01*
G01X-79D01*
G01Y-2772D01*
G01X-429D01*
G37*
G36*
G01X-682Y-4851D02*
G01X-792Y-4851D01*
G01Y-5131D01*
G01X-682D01*
G01Y-4851D01*
G37*
G36*
G01X-682Y-5271D02*
G01X-792Y-5271D01*
G01Y-5551D01*
G01X-682D01*
G01Y-5271D01*
G37*
G36*
G01X-4999Y-6715D02*
G01X-4449Y-6715D01*
G01Y-6215D01*
G01X-4999D01*
G01Y-6715D01*
G37*
G36*
G01X-4899Y-8415D02*
G01X-4549Y-8415D01*
G01Y-7915D01*
G01X-4899D01*
G01Y-8415D01*
G37*
G36*
G01X-4449Y-2111D02*
G01X-4999Y-2111D01*
G01Y-2611D01*
G01X-4449D01*
G01Y-2111D01*
G37*
G36*
G01X-4549Y-411D02*
G01X-4899Y-411D01*
G01Y-911D01*
G01X-4549D01*
G01Y-411D01*
G37*
G54D17*
G01X1308Y-7404D03*
G01X1562Y-7404D03*
G01X1816Y-7404D03*
G01X2070Y-7404D03*
G01X2324Y-7404D03*
G01X2578Y-7404D03*
G01X2832Y-7404D03*
G01X3086Y-7404D03*
G01X3340Y-7404D03*
G01X3594Y-7404D03*
G01X3848Y-7404D03*
G36*
G01X4178Y-7480D02*
G01X4178Y-7328D01*
G01X4026D01*
G01Y-7480D01*
G01X4178D01*
G37*
G36*
G01X-1471Y-3377D02*
G01X-1247Y-3377D01*
G01Y-3172D01*
G01X-1471D01*
G01Y-3377D01*
G37*
G36*
G01X-1471Y-2858D02*
G01X-1247Y-2858D01*
G01Y-2654D01*
G01X-1471D01*
G01Y-2858D01*
G37*
G04 Pad End*

G04 Via Start*
G54D18*
G01X-4724Y-711D03*
G54D19*
G01X406Y-1714D03*
G01X406Y-2222D03*
G01X406Y-2730D03*
G01X406Y-3238D03*
G01X406Y-4254D03*
G01X406Y-4762D03*
G01X406Y-5270D03*
G01X406Y-5778D03*
G01X406Y-6286D03*
G01X406Y-6794D03*
G01X406Y-7302D03*
G01X-102Y-1714D03*
G01X-102Y-2222D03*
G01X-102Y-3238D03*
G01X-102Y-4254D03*
G01X-102Y-4762D03*
G01X-102Y-5270D03*
G01X-102Y-5778D03*
G01X-102Y-6286D03*
G01X-102Y-6794D03*
G01X-102Y-7302D03*
G01X-610Y-1714D03*
G01X-610Y-2222D03*
G01X-610Y-3238D03*
G01X-610Y-4254D03*
G01X-610Y-5270D03*
G01X-610Y-5778D03*
G01X-610Y-6794D03*
G01X-1118Y-1714D03*
G01X-1118Y-2222D03*
G01X-1118Y-2730D03*
G01X-1118Y-3238D03*
G01X-1118Y-5270D03*
G01X-1118Y-5778D03*
G01X-1118Y-6286D03*
G01X-1118Y-6794D03*
G01X-1118Y-7302D03*
G01X-1626Y-3238D03*
G01X-1626Y-4254D03*
G01X-1626Y-5270D03*
G01X-1626Y-5778D03*
G01X-1626Y-7302D03*
G01X-2134Y-1714D03*
G01X-2134Y-3238D03*
G01X-2134Y-5270D03*
G01X-2134Y-5778D03*
G01X-2134Y-7302D03*
G01X-2642Y-3238D03*
G01X-2642Y-3746D03*
G01X-2642Y-5778D03*
G01X-2642Y-6286D03*
G01X-2642Y-6794D03*
G01X-2642Y-7302D03*
G01X-3150Y-1714D03*
G01X-3150Y-3238D03*
G01X-3150Y-3746D03*
G01X-3150Y-4254D03*
G01X-3150Y-4762D03*
G01X-3150Y-5270D03*
G01X-3150Y-5778D03*
G01X-3150Y-6286D03*
G01X-3150Y-6794D03*
G01X-3150Y-7302D03*
G01X-3658Y-1714D03*
G01X-3658Y-2730D03*
G01X-3658Y-3238D03*
G01X-3658Y-3746D03*
G01X-3658Y-4254D03*
G01X-3658Y-4762D03*
G01X-3658Y-5270D03*
G01X-3658Y-5778D03*
G01X-3658Y-6286D03*
G01X-3658Y-6794D03*
G01X-3658Y-7302D03*
G01X-3658Y-1524D03*
G01X-3658Y-2032D03*
G01X-3658Y-2540D03*
G01X-3658Y-3048D03*
G01X-3658Y-3556D03*
G01X-3658Y-4064D03*
G01X-3988Y-3785D03*
G01X-3988Y-4293D03*
G01X-3988Y-4801D03*
G01X-3988Y-5309D03*
G01X-3988Y-5817D03*
G01X-3988Y-6325D03*
G01X-3988Y-6833D03*
G01X-3988Y-7341D03*
G01X-3988Y-7849D03*
G01X-4496Y-3785D03*
G01X-4496Y-4293D03*
G01X-4496Y-4801D03*
G01X-4496Y-5309D03*
G01X-4496Y-5817D03*
G01X-4496Y-6833D03*
G01X-4496Y-7341D03*
G01X-4496Y-7849D03*
G01X-4496Y-8357D03*
G01X-5004Y-3785D03*
G01X-5004Y-4293D03*
G01X-5004Y-4801D03*
G01X-5004Y-5309D03*
G01X-5004Y-5817D03*
G01X-5004Y-6833D03*
G01X-5004Y-7341D03*
G01X-5004Y-7849D03*
G01X-5004Y-8357D03*
G01X-5512Y-3785D03*
G01X-5512Y-4293D03*
G01X-5512Y-4801D03*
G01X-5512Y-5309D03*
G01X-5512Y-5817D03*
G01X-5512Y-6325D03*
G01X-5512Y-6833D03*
G01X-5512Y-7341D03*
G01X-5512Y-7849D03*
G01X-3658Y-1346D03*
G01X-3658Y-1854D03*
G01X-3658Y-2870D03*
G01X-3658Y-3378D03*
G01X-3658Y-3886D03*
G54D18*
G01X-4737Y-6515D03*
G01X-4737Y-8115D03*
G01X1016Y-6413D03*
G01X1791Y-4496D03*
G01X1791Y-4674D03*
G01X1829Y-2184D03*
G54D20*
G01X-4724Y-8115D03*
G01X-4724Y-6515D03*
G01X-4724Y-711D03*
G01X-4724Y-2311D03*
G04 Via End*

G04 Track Start*
G54D21*
G01X-2416Y-1359D02*
G01X-2620Y-1562D01*
G54D11*
G01X-2628Y-2184D02*
G01X-2628Y-1955D01*
G01X-2616Y-1943D01*
G01Y-1566D01*
G01X-2620Y-1562D01*
G01X-2046Y-2565D02*
G01X-2046Y-2629D01*
G01X-2146Y-2972D02*
G01X-2146Y-2729D01*
G01X-2046Y-2629D01*
G01X-1829D01*
G01X-1781Y-3861D02*
G01X-1781Y-3988D01*
G01X-2324Y-1562D02*
G01X-1582Y-1562D01*
G01X-1575Y-1555D01*
G01X-1333Y-1546D02*
G01X-1342Y-1555D01*
G01X-1575D01*
G01X-1562Y-2197D02*
G01X-1676Y-2311D01*
G01X-2046D01*
G01X-1333Y-1766D02*
G01X-1333Y-2247D01*
G01X-1460Y-2375D01*
G01X-1982D01*
G01X-2046Y-2438D01*
G01X-1575Y-1867D02*
G01X-1892Y-2184D01*
G01X-2046D01*
G01X-1575Y-1765D02*
G01X-1575Y-1867D01*
G01X-2896Y-2972D02*
G01X-2586Y-2972D01*
G01X-2628Y-2565D02*
G01X-2628Y-2930D01*
G01X-2586Y-2972D01*
G01X-2248Y-4140D02*
G01X-2171Y-4140D01*
G01X-2007Y-4304D01*
G01X-1781Y-4115D02*
G01X-1781Y-4359D01*
G01X-1867Y-4445D01*
G01X-2578D01*
G01X-2629Y-4496D01*
G01Y-4630D01*
G01X-1241Y-3734D02*
G01X-1241Y-3861D01*
G01Y-3988D01*
G01Y-4115D01*
G01X-1781Y-3734D02*
G01X-1781Y-3861D01*
G01X-801Y-2057D02*
G01X-801Y-2819D01*
G01X-254Y-3366D02*
G01X-254Y-3734D01*
G01X-1241Y-3734D02*
G01X-775Y-3734D01*
G01X-1241Y-4115D02*
G01X-1074Y-4115D01*
G01X-1041Y-4147D01*
G01X-2502Y-4630D02*
G01X-2502Y-4915D01*
G01X-591Y-6147D02*
G01X-1048Y-5690D01*
G01X-2857Y-3683D02*
G01X-2146Y-2972D01*
G01X-1048Y-5690D02*
G01X-2616Y-5690D01*
G01X-2857Y-5448D01*
G01Y-3683D01*
G01X-890Y-7150D02*
G01X-1639Y-6401D01*
G54D21*
G01X-254Y-3734D02*
G01X533Y-3734D01*
G01X1384Y-4585D01*
G01X1829D01*
G54D22*
G01X2117Y-4873D01*
G01Y-4985D01*
G54D11*
G01X-591Y-6401D02*
G01X-1651Y-6401D01*
G54D21*
G01X-737Y-4991D02*
G01X-730Y-4985D01*
G54D11*
G01X-591Y-6401D02*
G01X1003Y-6401D01*
G01X1016Y-6413D01*
G01X1792Y-4286D02*
G01X1792Y-4495D01*
G01X1857Y-4286D02*
G01X1857Y-4430D01*
G01X2182Y-4422D02*
G01X2109Y-4495D01*
G01X1792D01*
G01X1857Y-4430D02*
G01X1792Y-4495D01*
G01X1791Y-4496D01*
G01X2182Y-4286D02*
G01X2182Y-4422D01*
G01X2247Y-4286D02*
G01X2247Y-4433D01*
G01X2184Y-4496D01*
G01X2110D01*
G01X2109Y-4495D01*
G54D22*
G01X1987Y-4985D02*
G01X1987Y-4870D01*
G01X1791Y-4674D01*
G54D21*
G01X1662Y-4985D02*
G01X-730Y-4985D01*
G54D23*
G01X1727Y-4286D02*
G01X1662Y-4286D01*
G01X1987Y-4286D02*
G01X1922Y-4286D01*
G01X2052Y-4286D02*
G01X2117Y-4286D01*
G01X2377Y-4286D02*
G01X2312Y-4286D01*
G54D11*
G01X-2642Y-3746D02*
G01X-2404Y-3746D01*
G01X-2391Y-3759D01*
G54D21*
G01X1003Y-1359D02*
G01X-2416Y-1359D01*
G01X1816Y-7404D02*
G01X1702Y-7290D01*
G01Y-4985D01*
G54D22*
G01X1727Y-4985D02*
G01X1702Y-4985D01*
G01X1662D01*
G54D11*
G01X1792Y-4985D02*
G01X1792Y-7126D01*
G01X2070Y-7404D01*
G01X1857Y-4985D02*
G01X1857Y-6937D01*
G01X2324Y-7404D01*
G01X1922Y-4985D02*
G01X1922Y-6748D01*
G01X2578Y-7404D01*
G01X2052Y-4985D02*
G01X2052Y-6624D01*
G01X2832Y-7404D01*
G01X2182Y-4985D02*
G01X2182Y-6500D01*
G01X3086Y-7404D01*
G01X2247Y-4985D02*
G01X2247Y-6311D01*
G01X3340Y-7404D01*
G01X2312Y-4985D02*
G01X2312Y-6122D01*
G01X3594Y-7404D01*
G54D21*
G01X1829Y-4585D02*
G01X2375Y-4585D01*
G01X4102Y-6312D02*
G01X4102Y-7404D01*
G01X2375Y-4585D02*
G01X4102Y-6312D01*
G01X1003Y-1359D02*
G01X1829Y-2184D01*
G01X3669Y-3429D02*
G01X2121Y-3429D01*
G01X1662Y-3888D01*
G01Y-4286D01*
G01X3670Y-3631D02*
G01X2199Y-3631D01*
G01X1922Y-3908D02*
G01X1922Y-4286D01*
G01X2199Y-3631D02*
G01X1922Y-3908D01*
G01X3670Y-4647D02*
G01X2999Y-3975D01*
G01X2553D01*
G01X2377Y-4286D02*
G01X2377Y-4151D01*
G01X2553Y-3975D01*
G01X2117Y-4286D02*
G01X2117Y-4119D01*
G01X3008Y-3785D02*
G01X3670Y-4447D01*
G01X2117Y-4119D02*
G01X2451Y-3785D01*
G01X3008D01*
G01X-4649Y-2286D02*
G01X-3416Y-2286D01*
G01X-3150D01*
G01X-2883D01*
G54D22*
G01X-2653Y-2286D01*
G01X-2628Y-2311D01*
G54D21*
G01X-3301Y-2972D02*
G01X-3301Y-2401D01*
G01X-3416Y-2286D01*
G01X-4649Y-2286D02*
G01X-4724Y-2361D01*
G01X3670Y-3431D02*
G01X3669Y-3429D01*
G54D11*
G01X-1359Y-2756D02*
G01X-1486Y-2629D01*
G01X-1829D01*
G01X-1359Y-2756D02*
G01X-1275Y-2839D01*
G01X-781D01*
G01X-801Y-2819D02*
G01X-781Y-2839D01*
G01X-254Y-3366D01*
G01X-1359Y-3274D02*
G01X-1395Y-3238D01*
G01X-1323Y-3238D02*
G01X-1118Y-3238D01*
G01X-1359Y-3274D02*
G01X-1323Y-3238D01*
G01X-1395Y-3238D02*
G01X-1626Y-3238D01*
G04 Track End*

M02*
