G04 Layer: DrillDrawingLayer*
G04 EasyEDA Pro v1.6.32, 2022-10-17 22:27:42*
G04 Gerber Generator version 0.3*
G04 Scale: 100 percent, Rotated: No, Reflected: No*
G04 Dimensions in millimeters*
G04 Leading zeros omitted, absolute positions, 4 integers and 2 decimals*
G04 Panelize: V-CUT, Column: 1, Row: 1, Board Size: 99.693mm x 90.043mm, Panelized Board Size: 99.693mm x 95.438mm, Panelized Method: Only Board Outline*
%FSLAX42Y42*%
%MOMM*%
%ADD10C,0.254*%
G75*


G04 Image Start*
G36*
G01X-4744Y-8095D02*
G01X-4744Y-8099D01*
G01X-4741D01*
G01X-4708D01*
G01Y-8132D01*
G01X-4741D01*
G01Y-8099D01*
G01X-4744D01*
G01Y-8135D01*
G01X-4704D01*
G01Y-8095D01*
G37*
G36*
G01X-4744Y-6495D02*
G01X-4744Y-6499D01*
G01X-4741D01*
G01X-4708D01*
G01Y-6532D01*
G01X-4741D01*
G01Y-6499D01*
G01X-4744D01*
G01Y-6535D01*
G01X-4704D01*
G01Y-6495D01*
G37*
G36*
G01X-4744Y-691D02*
G01X-4744Y-695D01*
G01X-4741D01*
G01X-4708D01*
G01Y-728D01*
G01X-4741D01*
G01Y-695D01*
G01X-4744D01*
G01Y-731D01*
G01X-4704D01*
G01Y-691D01*
G37*
G36*
G01X-4744Y-2291D02*
G01X-4744Y-2295D01*
G01X-4741D01*
G01X-4708D01*
G01Y-2328D01*
G01X-4741D01*
G01Y-2295D01*
G01X-4744D01*
G01Y-2331D01*
G01X-4704D01*
G01Y-2291D01*
G37*
G36*
G01X3611Y-2725D02*
G01X3609Y-2725D01*
G01X3607Y-2726D01*
G01X3605D01*
G01X3603Y-2727D01*
G01X3602Y-2728D01*
G01X3600Y-2729D01*
G01X3598Y-2730D01*
G01X3597Y-2731D01*
G01X3596Y-2733D01*
G01X3595Y-2734D01*
G01X3594Y-2736D01*
G01X3593Y-2737D01*
G01X3592Y-2739D01*
G01Y-2741D01*
G01X3591Y-2743D01*
G01Y-2745D01*
G01X3595D01*
G01Y-2744D01*
G01Y-2742D01*
G01Y-2740D01*
G01X3596Y-2739D01*
G01Y-2737D01*
G01X3597Y-2736D01*
G01X3598Y-2735D01*
G01X3599Y-2733D01*
G01X3601Y-2732D01*
G01X3602Y-2731D01*
G01X3603D01*
G01X3605Y-2730D01*
G01X3606Y-2729D01*
G01X3608D01*
G01X3609D01*
G01X3611D01*
G01X3613D01*
G01X3614D01*
G01X3616D01*
G01X3618Y-2730D01*
G01X3619Y-2731D01*
G01X3620D01*
G01X3622Y-2732D01*
G01X3623Y-2733D01*
G01X3624Y-2735D01*
G01X3625Y-2736D01*
G01X3626Y-2737D01*
G01Y-2739D01*
G01X3627Y-2740D01*
G01Y-2742D01*
G01X3628Y-2744D01*
G01Y-2745D01*
G01Y-2747D01*
G01X3627Y-2749D01*
G01Y-2750D01*
G01X3626Y-2752D01*
G01Y-2753D01*
G01X3625Y-2755D01*
G01X3624Y-2756D01*
G01X3623Y-2757D01*
G01X3622Y-2758D01*
G01X3620Y-2759D01*
G01X3619Y-2760D01*
G01X3618Y-2761D01*
G01X3616D01*
G01X3614D01*
G01X3613Y-2762D01*
G01X3611D01*
G01X3609D01*
G01X3608Y-2761D01*
G01X3606D01*
G01X3605D01*
G01X3603Y-2760D01*
G01X3602Y-2759D01*
G01X3601Y-2758D01*
G01X3599Y-2757D01*
G01X3598Y-2756D01*
G01X3597Y-2755D01*
G01X3596Y-2753D01*
G01Y-2752D01*
G01X3595Y-2750D01*
G01Y-2749D01*
G01Y-2747D01*
G01Y-2745D01*
G01X3591D01*
G01Y-2747D01*
G01X3592Y-2749D01*
G01Y-2751D01*
G01X3593Y-2753D01*
G01X3594Y-2755D01*
G01X3595Y-2756D01*
G01X3596Y-2758D01*
G01X3597Y-2759D01*
G01X3598Y-2761D01*
G01X3600Y-2762D01*
G01X3602Y-2763D01*
G01X3603Y-2764D01*
G01X3605D01*
G01X3607Y-2765D01*
G01X3609D01*
G01X3611D01*
G01X3613D01*
G01X3615D01*
G01X3617Y-2764D01*
G01X3619D01*
G01X3621Y-2763D01*
G01X3622Y-2762D01*
G01X3624Y-2761D01*
G01X3625Y-2759D01*
G01X3627Y-2758D01*
G01X3628Y-2756D01*
G01X3629Y-2755D01*
G01X3630Y-2753D01*
G01Y-2751D01*
G01X3631Y-2749D01*
G01Y-2747D01*
G01Y-2745D01*
G01Y-2743D01*
G01Y-2741D01*
G01X3630Y-2739D01*
G01Y-2737D01*
G01X3629Y-2736D01*
G01X3628Y-2734D01*
G01X3627Y-2733D01*
G01X3625Y-2731D01*
G01X3624Y-2730D01*
G01X3622Y-2729D01*
G01X3621Y-2728D01*
G01X3619Y-2727D01*
G01X3617Y-2726D01*
G01X3615D01*
G01X3613Y-2725D01*
G37*
G36*
G01X3958Y-2725D02*
G01X3956Y-2725D01*
G01X3954Y-2726D01*
G01X3952D01*
G01X3950Y-2727D01*
G01X3949Y-2728D01*
G01X3947Y-2729D01*
G01X3945Y-2730D01*
G01X3944Y-2731D01*
G01X3943Y-2733D01*
G01X3942Y-2734D01*
G01X3941Y-2736D01*
G01X3940Y-2737D01*
G01X3939Y-2739D01*
G01Y-2741D01*
G01X3938Y-2743D01*
G01Y-2745D01*
G01X3941D01*
G01X3942Y-2744D01*
G01Y-2742D01*
G01Y-2740D01*
G01X3943Y-2739D01*
G01Y-2737D01*
G01X3944Y-2736D01*
G01X3945Y-2735D01*
G01X3946Y-2733D01*
G01X3948Y-2732D01*
G01X3949Y-2731D01*
G01X3950D01*
G01X3952Y-2730D01*
G01X3953Y-2729D01*
G01X3955D01*
G01X3956D01*
G01X3958D01*
G01X3960D01*
G01X3961D01*
G01X3963D01*
G01X3965Y-2730D01*
G01X3966Y-2731D01*
G01X3967D01*
G01X3969Y-2732D01*
G01X3970Y-2733D01*
G01X3971Y-2735D01*
G01X3972Y-2736D01*
G01X3973Y-2737D01*
G01Y-2739D01*
G01X3974Y-2740D01*
G01Y-2742D01*
G01X3975Y-2744D01*
G01Y-2745D01*
G01Y-2747D01*
G01X3974Y-2749D01*
G01Y-2750D01*
G01X3973Y-2752D01*
G01Y-2753D01*
G01X3972Y-2755D01*
G01X3971Y-2756D01*
G01X3970Y-2757D01*
G01X3969Y-2758D01*
G01X3967Y-2759D01*
G01X3966Y-2760D01*
G01X3965Y-2761D01*
G01X3963D01*
G01X3961D01*
G01X3960Y-2762D01*
G01X3958D01*
G01X3956D01*
G01X3955Y-2761D01*
G01X3953D01*
G01X3952D01*
G01X3950Y-2760D01*
G01X3949Y-2759D01*
G01X3948Y-2758D01*
G01X3946Y-2757D01*
G01X3945Y-2756D01*
G01X3944Y-2755D01*
G01X3943Y-2753D01*
G01Y-2752D01*
G01X3942Y-2750D01*
G01Y-2749D01*
G01Y-2747D01*
G01X3941Y-2745D01*
G01X3938D01*
G01Y-2747D01*
G01X3939Y-2749D01*
G01Y-2751D01*
G01X3940Y-2753D01*
G01X3941Y-2755D01*
G01X3942Y-2756D01*
G01X3943Y-2758D01*
G01X3944Y-2759D01*
G01X3945Y-2761D01*
G01X3947Y-2762D01*
G01X3949Y-2763D01*
G01X3950Y-2764D01*
G01X3952D01*
G01X3954Y-2765D01*
G01X3956D01*
G01X3958D01*
G01X3960D01*
G01X3962D01*
G01X3964Y-2764D01*
G01X3966D01*
G01X3968Y-2763D01*
G01X3969Y-2762D01*
G01X3971Y-2761D01*
G01X3972Y-2759D01*
G01X3973Y-2758D01*
G01X3975Y-2756D01*
G01X3976Y-2755D01*
G01Y-2753D01*
G01X3977Y-2751D01*
G01X3978Y-2749D01*
G01Y-2747D01*
G01Y-2745D01*
G01Y-2743D01*
G01Y-2741D01*
G01X3977Y-2739D01*
G01X3976Y-2737D01*
G01Y-2736D01*
G01X3975Y-2734D01*
G01X3973Y-2733D01*
G01X3972Y-2731D01*
G01X3971Y-2730D01*
G01X3969Y-2729D01*
G01X3968Y-2728D01*
G01X3966Y-2727D01*
G01X3964Y-2726D01*
G01X3962D01*
G01X3960Y-2725D01*
G37*
G36*
G01X3958Y-2010D02*
G01X3956Y-2010D01*
G01X3954Y-2011D01*
G01X3952D01*
G01X3950Y-2012D01*
G01X3949Y-2013D01*
G01X3947Y-2014D01*
G01X3945Y-2015D01*
G01X3944Y-2016D01*
G01X3943Y-2018D01*
G01X3942Y-2019D01*
G01X3941Y-2021D01*
G01X3940Y-2022D01*
G01X3939Y-2024D01*
G01Y-2026D01*
G01X3938Y-2028D01*
G01Y-2030D01*
G01X3941D01*
G01X3942Y-2029D01*
G01Y-2027D01*
G01Y-2025D01*
G01X3943Y-2024D01*
G01Y-2022D01*
G01X3944Y-2021D01*
G01X3945Y-2020D01*
G01X3946Y-2018D01*
G01X3948Y-2017D01*
G01X3949Y-2016D01*
G01X3950D01*
G01X3952Y-2015D01*
G01X3953Y-2014D01*
G01X3955D01*
G01X3956D01*
G01X3958D01*
G01X3960D01*
G01X3961D01*
G01X3963D01*
G01X3965Y-2015D01*
G01X3966Y-2016D01*
G01X3967D01*
G01X3969Y-2017D01*
G01X3970Y-2018D01*
G01X3971Y-2020D01*
G01X3972Y-2021D01*
G01X3973Y-2022D01*
G01Y-2024D01*
G01X3974Y-2025D01*
G01Y-2027D01*
G01X3975Y-2029D01*
G01Y-2030D01*
G01Y-2032D01*
G01X3974Y-2034D01*
G01Y-2035D01*
G01X3973Y-2037D01*
G01Y-2038D01*
G01X3972Y-2040D01*
G01X3971Y-2041D01*
G01X3970Y-2042D01*
G01X3969Y-2043D01*
G01X3967Y-2044D01*
G01X3966Y-2045D01*
G01X3965Y-2046D01*
G01X3963D01*
G01X3961D01*
G01X3960Y-2047D01*
G01X3958D01*
G01X3956D01*
G01X3955Y-2046D01*
G01X3953D01*
G01X3952D01*
G01X3950Y-2045D01*
G01X3949Y-2044D01*
G01X3948Y-2043D01*
G01X3946Y-2042D01*
G01X3945Y-2041D01*
G01X3944Y-2040D01*
G01X3943Y-2038D01*
G01Y-2037D01*
G01X3942Y-2035D01*
G01Y-2034D01*
G01Y-2032D01*
G01X3941Y-2030D01*
G01X3938D01*
G01Y-2032D01*
G01X3939Y-2034D01*
G01Y-2036D01*
G01X3940Y-2038D01*
G01X3941Y-2040D01*
G01X3942Y-2041D01*
G01X3943Y-2043D01*
G01X3944Y-2044D01*
G01X3945Y-2046D01*
G01X3947Y-2047D01*
G01X3949Y-2048D01*
G01X3950Y-2049D01*
G01X3952D01*
G01X3954Y-2050D01*
G01X3956D01*
G01X3958D01*
G01X3960D01*
G01X3962D01*
G01X3964Y-2049D01*
G01X3966D01*
G01X3968Y-2048D01*
G01X3969Y-2047D01*
G01X3971Y-2046D01*
G01X3972Y-2044D01*
G01X3973Y-2043D01*
G01X3975Y-2041D01*
G01X3976Y-2040D01*
G01Y-2038D01*
G01X3977Y-2036D01*
G01X3978Y-2034D01*
G01Y-2032D01*
G01Y-2030D01*
G01Y-2028D01*
G01Y-2026D01*
G01X3977Y-2024D01*
G01X3976Y-2022D01*
G01Y-2021D01*
G01X3975Y-2019D01*
G01X3973Y-2018D01*
G01X3972Y-2016D01*
G01X3971Y-2015D01*
G01X3969Y-2014D01*
G01X3968Y-2013D01*
G01X3966Y-2012D01*
G01X3964Y-2011D01*
G01X3962D01*
G01X3960Y-2010D01*
G37*
G36*
G01X3611Y-2010D02*
G01X3609Y-2010D01*
G01X3607Y-2011D01*
G01X3605D01*
G01X3603Y-2012D01*
G01X3602Y-2013D01*
G01X3600Y-2014D01*
G01X3598Y-2015D01*
G01X3597Y-2016D01*
G01X3596Y-2018D01*
G01X3595Y-2019D01*
G01X3594Y-2021D01*
G01X3593Y-2022D01*
G01X3592Y-2024D01*
G01Y-2026D01*
G01X3591Y-2028D01*
G01Y-2030D01*
G01X3595D01*
G01Y-2029D01*
G01Y-2027D01*
G01Y-2025D01*
G01X3596Y-2024D01*
G01Y-2022D01*
G01X3597Y-2021D01*
G01X3598Y-2020D01*
G01X3599Y-2018D01*
G01X3601Y-2017D01*
G01X3602Y-2016D01*
G01X3603D01*
G01X3605Y-2015D01*
G01X3606Y-2014D01*
G01X3608D01*
G01X3609D01*
G01X3611D01*
G01X3613D01*
G01X3614D01*
G01X3616D01*
G01X3618Y-2015D01*
G01X3619Y-2016D01*
G01X3620D01*
G01X3622Y-2017D01*
G01X3623Y-2018D01*
G01X3624Y-2020D01*
G01X3625Y-2021D01*
G01X3626Y-2022D01*
G01Y-2024D01*
G01X3627Y-2025D01*
G01Y-2027D01*
G01X3628Y-2029D01*
G01Y-2030D01*
G01Y-2032D01*
G01X3627Y-2034D01*
G01Y-2035D01*
G01X3626Y-2037D01*
G01Y-2038D01*
G01X3625Y-2040D01*
G01X3624Y-2041D01*
G01X3623Y-2042D01*
G01X3622Y-2043D01*
G01X3620Y-2044D01*
G01X3619Y-2045D01*
G01X3618Y-2046D01*
G01X3616D01*
G01X3614D01*
G01X3613Y-2047D01*
G01X3611D01*
G01X3609D01*
G01X3608Y-2046D01*
G01X3606D01*
G01X3605D01*
G01X3603Y-2045D01*
G01X3602Y-2044D01*
G01X3601Y-2043D01*
G01X3599Y-2042D01*
G01X3598Y-2041D01*
G01X3597Y-2040D01*
G01X3596Y-2038D01*
G01Y-2037D01*
G01X3595Y-2035D01*
G01Y-2034D01*
G01Y-2032D01*
G01Y-2030D01*
G01X3591D01*
G01Y-2032D01*
G01X3592Y-2034D01*
G01Y-2036D01*
G01X3593Y-2038D01*
G01X3594Y-2040D01*
G01X3595Y-2041D01*
G01X3596Y-2043D01*
G01X3597Y-2044D01*
G01X3598Y-2046D01*
G01X3600Y-2047D01*
G01X3602Y-2048D01*
G01X3603Y-2049D01*
G01X3605D01*
G01X3607Y-2050D01*
G01X3609D01*
G01X3611D01*
G01X3613D01*
G01X3615D01*
G01X3617Y-2049D01*
G01X3619D01*
G01X3621Y-2048D01*
G01X3622Y-2047D01*
G01X3624Y-2046D01*
G01X3625Y-2044D01*
G01X3627Y-2043D01*
G01X3628Y-2041D01*
G01X3629Y-2040D01*
G01X3630Y-2038D01*
G01Y-2036D01*
G01X3631Y-2034D01*
G01Y-2032D01*
G01Y-2030D01*
G01Y-2028D01*
G01Y-2026D01*
G01X3630Y-2024D01*
G01Y-2022D01*
G01X3629Y-2021D01*
G01X3628Y-2019D01*
G01X3627Y-2018D01*
G01X3625Y-2016D01*
G01X3624Y-2015D01*
G01X3622Y-2014D01*
G01X3621Y-2013D01*
G01X3619Y-2012D01*
G01X3617Y-2011D01*
G01X3615D01*
G01X3613Y-2010D01*
G37*
G36*
G01X3650Y-4629D02*
G01X3652Y-4633D01*
G01X3656D01*
G01X3684D01*
G01X3677Y-4645D01*
G01X3670Y-4657D01*
G01X3663Y-4645D01*
G01X3656Y-4633D01*
G01X3652D01*
G01X3660Y-4647D01*
G01X3670Y-4664D01*
G01X3680Y-4647D01*
G01X3690Y-4629D01*
G37*
G36*
G01X3650Y-4429D02*
G01X3652Y-4433D01*
G01X3656D01*
G01X3684D01*
G01X3677Y-4445D01*
G01X3670Y-4457D01*
G01X3663Y-4445D01*
G01X3656Y-4433D01*
G01X3652D01*
G01X3660Y-4447D01*
G01X3670Y-4464D01*
G01X3680Y-4447D01*
G01X3690Y-4429D01*
G37*
G36*
G01X3650Y-3613D02*
G01X3652Y-3617D01*
G01X3656D01*
G01X3684D01*
G01X3677Y-3629D01*
G01X3670Y-3641D01*
G01X3663Y-3629D01*
G01X3656Y-3617D01*
G01X3652D01*
G01X3660Y-3631D01*
G01X3670Y-3648D01*
G01X3680Y-3631D01*
G01X3690Y-3613D01*
G37*
G36*
G01X3650Y-3413D02*
G01X3652Y-3417D01*
G01X3656D01*
G01X3684D01*
G01X3677Y-3429D01*
G01X3670Y-3441D01*
G01X3663Y-3429D01*
G01X3656Y-3417D01*
G01X3652D01*
G01X3660Y-3431D01*
G01X3670Y-3448D01*
G01X3680Y-3431D01*
G01X3690Y-3413D01*
G37*
G36*
G01X-4724Y-688D02*
G01X-4730Y-701D01*
G01X-4744Y-700D01*
G01X-4736Y-711D01*
G01X-4741Y-719D01*
G01X-4737D01*
G01X-4733Y-713D01*
G01X-4732Y-711D01*
G01X-4733Y-709D01*
G01X-4737Y-704D01*
G01X-4731Y-705D01*
G01X-4728D01*
G01X-4727Y-703D01*
G01X-4724Y-697D01*
G01X-4722Y-703D01*
G01X-4721Y-705D01*
G01X-4718D01*
G01X-4712Y-704D01*
G01X-4716Y-709D01*
G01X-4717Y-711D01*
G01X-4716Y-713D01*
G01X-4712Y-719D01*
G01X-4718Y-718D01*
G01X-4721D01*
G01X-4722Y-720D01*
G01X-4724Y-726D01*
G01X-4727Y-720D01*
G01X-4728Y-718D01*
G01X-4731D01*
G01X-4737Y-719D01*
G01X-4741D01*
G01X-4744Y-723D01*
G01X-4730Y-721D01*
G01X-4724Y-734D01*
G01X-4719Y-721D01*
G01X-4704Y-723D01*
G01X-4713Y-711D01*
G01X-4704Y-700D01*
G01X-4719Y-701D01*
G37*
G36*
G01X-4737Y-6492D02*
G01X-4743Y-6505D01*
G01X-4757Y-6504D01*
G01X-4749Y-6515D01*
G01X-4754Y-6523D01*
G01X-4750D01*
G01X-4746Y-6517D01*
G01X-4744Y-6515D01*
G01X-4746Y-6513D01*
G01X-4750Y-6508D01*
G01X-4743Y-6509D01*
G01X-4741D01*
G01X-4740Y-6507D01*
G01X-4737Y-6501D01*
G01X-4734Y-6507D01*
G01X-4733Y-6509D01*
G01X-4731D01*
G01X-4725Y-6508D01*
G01X-4728Y-6513D01*
G01X-4730Y-6515D01*
G01X-4728Y-6517D01*
G01X-4725Y-6523D01*
G01X-4731Y-6522D01*
G01X-4733D01*
G01X-4734Y-6524D01*
G01X-4737Y-6530D01*
G01X-4740Y-6524D01*
G01X-4741Y-6522D01*
G01X-4743D01*
G01X-4750Y-6523D01*
G01X-4754D01*
G01X-4757Y-6527D01*
G01X-4743Y-6525D01*
G01X-4737Y-6538D01*
G01X-4731Y-6525D01*
G01X-4717Y-6527D01*
G01X-4726Y-6515D01*
G01X-4717Y-6504D01*
G01X-4731Y-6505D01*
G37*
G36*
G01X-4737Y-8092D02*
G01X-4743Y-8105D01*
G01X-4757Y-8104D01*
G01X-4749Y-8115D01*
G01X-4754Y-8123D01*
G01X-4750D01*
G01X-4746Y-8117D01*
G01X-4744Y-8115D01*
G01X-4746Y-8113D01*
G01X-4750Y-8108D01*
G01X-4743Y-8109D01*
G01X-4741D01*
G01X-4740Y-8107D01*
G01X-4737Y-8101D01*
G01X-4734Y-8107D01*
G01X-4733Y-8109D01*
G01X-4731D01*
G01X-4725Y-8108D01*
G01X-4728Y-8113D01*
G01X-4730Y-8115D01*
G01X-4728Y-8117D01*
G01X-4725Y-8123D01*
G01X-4731Y-8122D01*
G01X-4733Y-8121D01*
G01X-4734Y-8124D01*
G01X-4737Y-8130D01*
G01X-4740Y-8124D01*
G01X-4741Y-8121D01*
G01X-4743Y-8122D01*
G01X-4750Y-8123D01*
G01X-4754D01*
G01X-4757Y-8127D01*
G01X-4743Y-8125D01*
G01X-4737Y-8138D01*
G01X-4731Y-8125D01*
G01X-4717Y-8127D01*
G01X-4726Y-8115D01*
G01X-4717Y-8104D01*
G01X-4731Y-8105D01*
G37*
G36*
G01X1016Y-6390D02*
G01X1010Y-6404D01*
G01X996Y-6402D01*
G01X1004Y-6413D01*
G01X999Y-6421D01*
G01X1003D01*
G01X1007Y-6416D01*
G01X1009Y-6413D01*
G01X1007Y-6411D01*
G01X1003Y-6406D01*
G01X1010Y-6407D01*
G01X1012D01*
G01X1013Y-6405D01*
G01X1016Y-6399D01*
G01X1019Y-6405D01*
G01X1020Y-6407D01*
G01X1022D01*
G01X1029Y-6406D01*
G01X1025Y-6411D01*
G01X1023Y-6413D01*
G01X1025Y-6416D01*
G01X1029Y-6421D01*
G01X1022Y-6420D01*
G01X1020D01*
G01X1019Y-6422D01*
G01X1016Y-6428D01*
G01X1013Y-6422D01*
G01X1012Y-6420D01*
G01X1010D01*
G01X1003Y-6421D01*
G01X999D01*
G01X996Y-6425D01*
G01X1010Y-6423D01*
G01X1016Y-6437D01*
G01X1022Y-6423D01*
G01X1036Y-6425D01*
G01X1028Y-6413D01*
G01X1036Y-6402D01*
G01X1022Y-6404D01*
G37*
G36*
G01X1791Y-4473D02*
G01X1785Y-4486D01*
G01X1771Y-4484D01*
G01X1779Y-4496D01*
G01X1774Y-4503D01*
G01X1778D01*
G01X1782Y-4498D01*
G01X1783Y-4496D01*
G01X1782Y-4494D01*
G01X1778Y-4489D01*
G01X1785D01*
G01X1787Y-4490D01*
G01X1788Y-4487D01*
G01X1791Y-4481D01*
G01X1793Y-4487D01*
G01X1794Y-4490D01*
G01X1797Y-4489D01*
G01X1803D01*
G01X1799Y-4494D01*
G01X1798Y-4496D01*
G01X1799Y-4498D01*
G01X1803Y-4503D01*
G01X1797Y-4502D01*
G01X1794D01*
G01X1793Y-4504D01*
G01X1791Y-4510D01*
G01X1788Y-4504D01*
G01X1787Y-4502D01*
G01X1785D01*
G01X1778Y-4503D01*
G01X1774D01*
G01X1771Y-4507D01*
G01X1785Y-4506D01*
G01X1791Y-4519D01*
G01X1796Y-4506D01*
G01X1811Y-4507D01*
G01X1802Y-4496D01*
G01X1811Y-4484D01*
G01X1796Y-4486D01*
G37*
G36*
G01X1791Y-4651D02*
G01X1785Y-4664D01*
G01X1771Y-4662D01*
G01X1779Y-4674D01*
G01X1774Y-4681D01*
G01X1778D01*
G01X1782Y-4676D01*
G01X1783Y-4674D01*
G01X1782Y-4672D01*
G01X1778Y-4666D01*
G01X1785Y-4667D01*
G01X1787D01*
G01X1788Y-4665D01*
G01X1791Y-4659D01*
G01X1793Y-4665D01*
G01X1794Y-4667D01*
G01X1797D01*
G01X1803Y-4666D01*
G01X1799Y-4672D01*
G01X1798Y-4674D01*
G01X1799Y-4676D01*
G01X1803Y-4681D01*
G01X1797Y-4680D01*
G01X1794D01*
G01X1793Y-4682D01*
G01X1791Y-4688D01*
G01X1788Y-4682D01*
G01X1787Y-4680D01*
G01X1785D01*
G01X1778Y-4681D01*
G01X1774D01*
G01X1771Y-4685D01*
G01X1785Y-4684D01*
G01X1791Y-4697D01*
G01X1796Y-4684D01*
G01X1811Y-4685D01*
G01X1802Y-4674D01*
G01X1811Y-4662D01*
G01X1796Y-4664D01*
G37*
G36*
G01X1829Y-2161D02*
G01X1823Y-2174D01*
G01X1809Y-2173D01*
G01X1817Y-2184D01*
G01X1812Y-2192D01*
G01X1816D01*
G01X1820Y-2186D01*
G01X1822Y-2184D01*
G01X1820Y-2182D01*
G01X1816Y-2177D01*
G01X1823Y-2178D01*
G01X1825D01*
G01X1826Y-2176D01*
G01X1829Y-2170D01*
G01X1831Y-2176D01*
G01X1832Y-2178D01*
G01X1835D01*
G01X1841Y-2177D01*
G01X1838Y-2182D01*
G01X1836Y-2184D01*
G01X1838Y-2186D01*
G01X1841Y-2192D01*
G01X1835Y-2191D01*
G01X1832D01*
G01X1831Y-2193D01*
G01X1829Y-2199D01*
G01X1826Y-2193D01*
G01X1825Y-2191D01*
G01X1823D01*
G01X1816Y-2192D01*
G01X1812D01*
G01X1809Y-2196D01*
G01X1823Y-2194D01*
G01X1829Y-2207D01*
G01X1835Y-2194D01*
G01X1849Y-2196D01*
G01X1840Y-2184D01*
G01X1849Y-2173D01*
G01X1835Y-2174D01*
G37*
G36*
G01X1288Y-7384D02*
G01X1291Y-7391D01*
G01X1295D01*
G01X1307Y-7396D01*
G01X1308Y-7397D01*
G01X1309Y-7396D01*
G01X1321Y-7391D01*
G01X1316Y-7403D01*
G01X1315Y-7404D01*
G01X1316Y-7405D01*
G01X1321Y-7417D01*
G01X1309Y-7412D01*
G01X1308Y-7411D01*
G01X1307Y-7412D01*
G01X1295Y-7417D01*
G01X1300Y-7405D01*
G01X1301Y-7404D01*
G01X1300Y-7403D01*
G01X1295Y-7391D01*
G01X1291D01*
G01X1297Y-7404D01*
G01X1288Y-7424D01*
G01X1308Y-7415D01*
G01X1328Y-7424D01*
G01X1319Y-7404D01*
G01X1328Y-7384D01*
G01X1308Y-7393D01*
G37*
G36*
G01X1542Y-7384D02*
G01X1545Y-7391D01*
G01X1549D01*
G01X1561Y-7396D01*
G01X1562Y-7397D01*
G01X1563Y-7396D01*
G01X1575Y-7391D01*
G01X1570Y-7403D01*
G01X1569Y-7404D01*
G01X1570Y-7405D01*
G01X1575Y-7417D01*
G01X1563Y-7412D01*
G01X1562Y-7411D01*
G01X1561Y-7412D01*
G01X1549Y-7417D01*
G01X1554Y-7405D01*
G01X1555Y-7404D01*
G01X1554Y-7403D01*
G01X1549Y-7391D01*
G01X1545D01*
G01X1551Y-7404D01*
G01X1542Y-7424D01*
G01X1562Y-7415D01*
G01X1582Y-7424D01*
G01X1573Y-7404D01*
G01X1582Y-7384D01*
G01X1562Y-7393D01*
G37*
G36*
G01X1796Y-7384D02*
G01X1799Y-7391D01*
G01X1803D01*
G01X1815Y-7396D01*
G01X1816Y-7397D01*
G01X1817Y-7396D01*
G01X1829Y-7391D01*
G01X1824Y-7403D01*
G01X1823Y-7404D01*
G01X1824Y-7405D01*
G01X1829Y-7417D01*
G01X1817Y-7412D01*
G01X1816Y-7411D01*
G01X1815Y-7412D01*
G01X1803Y-7417D01*
G01X1808Y-7405D01*
G01X1809Y-7404D01*
G01X1808Y-7403D01*
G01X1803Y-7391D01*
G01X1799D01*
G01X1805Y-7404D01*
G01X1796Y-7424D01*
G01X1816Y-7415D01*
G01X1836Y-7424D01*
G01X1827Y-7404D01*
G01X1836Y-7384D01*
G01X1816Y-7393D01*
G37*
G36*
G01X2050Y-7384D02*
G01X2053Y-7391D01*
G01X2057D01*
G01X2069Y-7396D01*
G01X2070Y-7397D01*
G01X2071Y-7396D01*
G01X2083Y-7391D01*
G01X2078Y-7403D01*
G01X2077Y-7404D01*
G01X2078Y-7405D01*
G01X2083Y-7417D01*
G01X2071Y-7412D01*
G01X2070Y-7411D01*
G01X2069Y-7412D01*
G01X2057Y-7417D01*
G01X2062Y-7405D01*
G01X2063Y-7404D01*
G01X2062Y-7403D01*
G01X2057Y-7391D01*
G01X2053D01*
G01X2059Y-7404D01*
G01X2050Y-7424D01*
G01X2070Y-7415D01*
G01X2090Y-7424D01*
G01X2081Y-7404D01*
G01X2090Y-7384D01*
G01X2070Y-7393D01*
G37*
G36*
G01X2304Y-7384D02*
G01X2307Y-7391D01*
G01X2311D01*
G01X2323Y-7396D01*
G01X2324Y-7397D01*
G01X2325Y-7396D01*
G01X2337Y-7391D01*
G01X2332Y-7403D01*
G01X2331Y-7404D01*
G01X2332Y-7405D01*
G01X2337Y-7417D01*
G01X2325Y-7412D01*
G01X2324Y-7411D01*
G01X2323Y-7412D01*
G01X2311Y-7417D01*
G01X2316Y-7405D01*
G01X2317Y-7404D01*
G01X2316Y-7403D01*
G01X2311Y-7391D01*
G01X2307D01*
G01X2313Y-7404D01*
G01X2304Y-7424D01*
G01X2324Y-7415D01*
G01X2344Y-7424D01*
G01X2335Y-7404D01*
G01X2344Y-7384D01*
G01X2324Y-7393D01*
G37*
G36*
G01X2558Y-7384D02*
G01X2561Y-7391D01*
G01X2565D01*
G01X2577Y-7396D01*
G01X2578Y-7397D01*
G01X2579Y-7396D01*
G01X2591Y-7391D01*
G01X2586Y-7403D01*
G01X2585Y-7404D01*
G01X2586Y-7405D01*
G01X2591Y-7417D01*
G01X2579Y-7412D01*
G01X2578Y-7411D01*
G01X2577Y-7412D01*
G01X2565Y-7417D01*
G01X2570Y-7405D01*
G01X2571Y-7404D01*
G01X2570Y-7403D01*
G01X2565Y-7391D01*
G01X2561D01*
G01X2567Y-7404D01*
G01X2558Y-7424D01*
G01X2578Y-7415D01*
G01X2598Y-7424D01*
G01X2589Y-7404D01*
G01X2598Y-7384D01*
G01X2578Y-7393D01*
G37*
G36*
G01X2812Y-7384D02*
G01X2815Y-7391D01*
G01X2819D01*
G01X2831Y-7396D01*
G01X2832Y-7397D01*
G01X2833Y-7396D01*
G01X2845Y-7391D01*
G01X2840Y-7403D01*
G01X2839Y-7404D01*
G01X2840Y-7405D01*
G01X2845Y-7417D01*
G01X2833Y-7412D01*
G01X2832Y-7411D01*
G01X2831Y-7412D01*
G01X2819Y-7417D01*
G01X2824Y-7405D01*
G01X2825Y-7404D01*
G01X2824Y-7403D01*
G01X2819Y-7391D01*
G01X2815D01*
G01X2821Y-7404D01*
G01X2812Y-7424D01*
G01X2832Y-7415D01*
G01X2852Y-7424D01*
G01X2843Y-7404D01*
G01X2852Y-7384D01*
G01X2832Y-7393D01*
G37*
G36*
G01X3066Y-7384D02*
G01X3069Y-7391D01*
G01X3073D01*
G01X3085Y-7396D01*
G01X3086Y-7397D01*
G01X3087Y-7396D01*
G01X3099Y-7391D01*
G01X3094Y-7403D01*
G01X3093Y-7404D01*
G01X3094Y-7405D01*
G01X3099Y-7417D01*
G01X3087Y-7412D01*
G01X3086Y-7411D01*
G01X3085Y-7412D01*
G01X3073Y-7417D01*
G01X3078Y-7405D01*
G01X3079Y-7404D01*
G01X3078Y-7403D01*
G01X3073Y-7391D01*
G01X3069D01*
G01X3075Y-7404D01*
G01X3066Y-7424D01*
G01X3086Y-7415D01*
G01X3106Y-7424D01*
G01X3097Y-7404D01*
G01X3106Y-7384D01*
G01X3086Y-7393D01*
G37*
G36*
G01X3320Y-7384D02*
G01X3323Y-7391D01*
G01X3327D01*
G01X3339Y-7396D01*
G01X3340Y-7397D01*
G01X3341Y-7396D01*
G01X3353Y-7391D01*
G01X3348Y-7403D01*
G01X3347Y-7404D01*
G01X3348Y-7405D01*
G01X3353Y-7417D01*
G01X3341Y-7412D01*
G01X3340Y-7411D01*
G01X3339Y-7412D01*
G01X3327Y-7417D01*
G01X3332Y-7405D01*
G01X3333Y-7404D01*
G01X3332Y-7403D01*
G01X3327Y-7391D01*
G01X3323D01*
G01X3329Y-7404D01*
G01X3320Y-7424D01*
G01X3340Y-7415D01*
G01X3360Y-7424D01*
G01X3351Y-7404D01*
G01X3360Y-7384D01*
G01X3340Y-7393D01*
G37*
G36*
G01X3574Y-7384D02*
G01X3577Y-7391D01*
G01X3581D01*
G01X3593Y-7396D01*
G01X3594Y-7397D01*
G01X3595Y-7396D01*
G01X3607Y-7391D01*
G01X3602Y-7403D01*
G01X3601Y-7404D01*
G01X3602Y-7405D01*
G01X3607Y-7417D01*
G01X3595Y-7412D01*
G01X3594Y-7411D01*
G01X3593Y-7412D01*
G01X3581Y-7417D01*
G01X3586Y-7405D01*
G01X3587Y-7404D01*
G01X3586Y-7403D01*
G01X3581Y-7391D01*
G01X3577D01*
G01X3583Y-7404D01*
G01X3574Y-7424D01*
G01X3594Y-7415D01*
G01X3614Y-7424D01*
G01X3605Y-7404D01*
G01X3614Y-7384D01*
G01X3594Y-7393D01*
G37*
G36*
G01X3828Y-7384D02*
G01X3831Y-7391D01*
G01X3835D01*
G01X3847Y-7396D01*
G01X3848Y-7397D01*
G01X3849Y-7396D01*
G01X3861Y-7391D01*
G01X3856Y-7403D01*
G01X3855Y-7404D01*
G01X3856Y-7405D01*
G01X3861Y-7417D01*
G01X3849Y-7412D01*
G01X3848Y-7411D01*
G01X3847Y-7412D01*
G01X3835Y-7417D01*
G01X3840Y-7405D01*
G01X3841Y-7404D01*
G01X3840Y-7403D01*
G01X3835Y-7391D01*
G01X3831D01*
G01X3837Y-7404D01*
G01X3828Y-7424D01*
G01X3848Y-7415D01*
G01X3868Y-7424D01*
G01X3859Y-7404D01*
G01X3868Y-7384D01*
G01X3848Y-7393D01*
G37*
G36*
G01X4082Y-7384D02*
G01X4085Y-7391D01*
G01X4089D01*
G01X4101Y-7396D01*
G01X4102Y-7397D01*
G01X4103Y-7396D01*
G01X4115Y-7391D01*
G01X4110Y-7403D01*
G01X4109Y-7404D01*
G01X4110Y-7405D01*
G01X4115Y-7417D01*
G01X4103Y-7412D01*
G01X4102Y-7411D01*
G01X4101Y-7412D01*
G01X4089Y-7417D01*
G01X4094Y-7405D01*
G01X4095Y-7404D01*
G01X4094Y-7403D01*
G01X4089Y-7391D01*
G01X4085D01*
G01X4091Y-7404D01*
G01X4082Y-7424D01*
G01X4102Y-7415D01*
G01X4122Y-7424D01*
G01X4113Y-7404D01*
G01X4122Y-7384D01*
G01X4102Y-7393D01*
G37*
G36*
G01X397Y-1695D02*
G01X397Y-1705D01*
G01X386D01*
G01Y-1720D01*
G01X390D01*
G01Y-1709D01*
G01X401D01*
G01Y-1698D01*
G01X412D01*
G01Y-1709D01*
G01X423D01*
G01Y-1720D01*
G01X412D01*
G01Y-1731D01*
G01X401D01*
G01Y-1720D01*
G01X390D01*
G01X386D01*
G01Y-1724D01*
G01X397D01*
G01Y-1734D01*
G01X415D01*
G01Y-1724D01*
G01X426D01*
G01Y-1705D01*
G01X415D01*
G01Y-1695D01*
G37*
G36*
G01X397Y-2203D02*
G01X397Y-2213D01*
G01X386D01*
G01Y-2228D01*
G01X390D01*
G01Y-2217D01*
G01X401D01*
G01Y-2206D01*
G01X412D01*
G01Y-2217D01*
G01X423D01*
G01Y-2228D01*
G01X412D01*
G01Y-2239D01*
G01X401D01*
G01Y-2228D01*
G01X390D01*
G01X386D01*
G01Y-2232D01*
G01X397D01*
G01Y-2242D01*
G01X415D01*
G01Y-2232D01*
G01X426D01*
G01Y-2213D01*
G01X415D01*
G01Y-2203D01*
G37*
G36*
G01X397Y-2711D02*
G01X397Y-2721D01*
G01X386D01*
G01Y-2736D01*
G01X390D01*
G01Y-2725D01*
G01X401D01*
G01Y-2714D01*
G01X412D01*
G01Y-2725D01*
G01X423D01*
G01Y-2736D01*
G01X412D01*
G01Y-2747D01*
G01X401D01*
G01Y-2736D01*
G01X390D01*
G01X386D01*
G01Y-2740D01*
G01X397D01*
G01Y-2750D01*
G01X415D01*
G01Y-2740D01*
G01X426D01*
G01Y-2721D01*
G01X415D01*
G01Y-2711D01*
G37*
G36*
G01X397Y-3219D02*
G01X397Y-3229D01*
G01X386D01*
G01Y-3244D01*
G01X390D01*
G01Y-3233D01*
G01X401D01*
G01Y-3222D01*
G01X412D01*
G01Y-3233D01*
G01X423D01*
G01Y-3244D01*
G01X412D01*
G01Y-3255D01*
G01X401D01*
G01Y-3244D01*
G01X390D01*
G01X386D01*
G01Y-3248D01*
G01X397D01*
G01Y-3258D01*
G01X415D01*
G01Y-3248D01*
G01X426D01*
G01Y-3229D01*
G01X415D01*
G01Y-3219D01*
G37*
G36*
G01X397Y-4235D02*
G01X397Y-4245D01*
G01X386D01*
G01Y-4260D01*
G01X390D01*
G01Y-4249D01*
G01X401D01*
G01Y-4238D01*
G01X412D01*
G01Y-4249D01*
G01X423D01*
G01Y-4260D01*
G01X412D01*
G01Y-4271D01*
G01X401D01*
G01Y-4260D01*
G01X390D01*
G01X386D01*
G01Y-4264D01*
G01X397D01*
G01Y-4274D01*
G01X415D01*
G01Y-4264D01*
G01X426D01*
G01Y-4245D01*
G01X415D01*
G01Y-4235D01*
G37*
G36*
G01X397Y-4743D02*
G01X397Y-4753D01*
G01X386D01*
G01Y-4768D01*
G01X390D01*
G01Y-4757D01*
G01X401D01*
G01Y-4746D01*
G01X412D01*
G01Y-4757D01*
G01X423D01*
G01Y-4768D01*
G01X412D01*
G01Y-4779D01*
G01X401D01*
G01Y-4768D01*
G01X390D01*
G01X386D01*
G01Y-4772D01*
G01X397D01*
G01Y-4782D01*
G01X415D01*
G01Y-4772D01*
G01X426D01*
G01Y-4753D01*
G01X415D01*
G01Y-4743D01*
G37*
G36*
G01X397Y-5251D02*
G01X397Y-5261D01*
G01X386D01*
G01Y-5276D01*
G01X390D01*
G01Y-5265D01*
G01X401D01*
G01Y-5254D01*
G01X412D01*
G01Y-5265D01*
G01X423D01*
G01Y-5276D01*
G01X412D01*
G01Y-5287D01*
G01X401D01*
G01Y-5276D01*
G01X390D01*
G01X386D01*
G01Y-5280D01*
G01X397D01*
G01Y-5290D01*
G01X415D01*
G01Y-5280D01*
G01X426D01*
G01Y-5261D01*
G01X415D01*
G01Y-5251D01*
G37*
G36*
G01X397Y-5759D02*
G01X397Y-5769D01*
G01X386D01*
G01Y-5784D01*
G01X390D01*
G01Y-5773D01*
G01X401D01*
G01Y-5762D01*
G01X412D01*
G01Y-5773D01*
G01X423D01*
G01Y-5784D01*
G01X412D01*
G01Y-5795D01*
G01X401D01*
G01Y-5784D01*
G01X390D01*
G01X386D01*
G01Y-5788D01*
G01X397D01*
G01Y-5798D01*
G01X415D01*
G01Y-5788D01*
G01X426D01*
G01Y-5769D01*
G01X415D01*
G01Y-5759D01*
G37*
G36*
G01X397Y-6267D02*
G01X397Y-6277D01*
G01X386D01*
G01Y-6292D01*
G01X390D01*
G01Y-6281D01*
G01X401D01*
G01Y-6270D01*
G01X412D01*
G01Y-6281D01*
G01X423D01*
G01Y-6292D01*
G01X412D01*
G01Y-6303D01*
G01X401D01*
G01Y-6292D01*
G01X390D01*
G01X386D01*
G01Y-6296D01*
G01X397D01*
G01Y-6306D01*
G01X415D01*
G01Y-6296D01*
G01X426D01*
G01Y-6277D01*
G01X415D01*
G01Y-6267D01*
G37*
G36*
G01X397Y-6775D02*
G01X397Y-6785D01*
G01X386D01*
G01Y-6800D01*
G01X390D01*
G01Y-6789D01*
G01X401D01*
G01Y-6778D01*
G01X412D01*
G01Y-6789D01*
G01X423D01*
G01Y-6800D01*
G01X412D01*
G01Y-6811D01*
G01X401D01*
G01Y-6800D01*
G01X390D01*
G01X386D01*
G01Y-6804D01*
G01X397D01*
G01Y-6814D01*
G01X415D01*
G01Y-6804D01*
G01X426D01*
G01Y-6785D01*
G01X415D01*
G01Y-6775D01*
G37*
G36*
G01X397Y-7283D02*
G01X397Y-7293D01*
G01X386D01*
G01Y-7308D01*
G01X390D01*
G01Y-7297D01*
G01X401D01*
G01Y-7286D01*
G01X412D01*
G01Y-7297D01*
G01X423D01*
G01Y-7308D01*
G01X412D01*
G01Y-7319D01*
G01X401D01*
G01Y-7308D01*
G01X390D01*
G01X386D01*
G01Y-7312D01*
G01X397D01*
G01Y-7322D01*
G01X415D01*
G01Y-7312D01*
G01X426D01*
G01Y-7293D01*
G01X415D01*
G01Y-7283D01*
G37*
G36*
G01X-111Y-1695D02*
G01X-111Y-1705D01*
G01X-122D01*
G01Y-1720D01*
G01X-118D01*
G01Y-1709D01*
G01X-107D01*
G01Y-1698D01*
G01X-96D01*
G01Y-1709D01*
G01X-85D01*
G01Y-1720D01*
G01X-96D01*
G01Y-1731D01*
G01X-107D01*
G01Y-1720D01*
G01X-118D01*
G01X-122D01*
G01Y-1724D01*
G01X-111D01*
G01Y-1734D01*
G01X-93D01*
G01Y-1724D01*
G01X-82D01*
G01Y-1705D01*
G01X-93D01*
G01Y-1695D01*
G37*
G36*
G01X-111Y-2203D02*
G01X-111Y-2213D01*
G01X-122D01*
G01Y-2228D01*
G01X-118D01*
G01Y-2217D01*
G01X-107D01*
G01Y-2206D01*
G01X-96D01*
G01Y-2217D01*
G01X-85D01*
G01Y-2228D01*
G01X-96D01*
G01Y-2239D01*
G01X-107D01*
G01Y-2228D01*
G01X-118D01*
G01X-122D01*
G01Y-2232D01*
G01X-111D01*
G01Y-2242D01*
G01X-93D01*
G01Y-2232D01*
G01X-82D01*
G01Y-2213D01*
G01X-93D01*
G01Y-2203D01*
G37*
G36*
G01X-111Y-3219D02*
G01X-111Y-3229D01*
G01X-122D01*
G01Y-3244D01*
G01X-118D01*
G01Y-3233D01*
G01X-107D01*
G01Y-3222D01*
G01X-96D01*
G01Y-3233D01*
G01X-85D01*
G01Y-3244D01*
G01X-96D01*
G01Y-3255D01*
G01X-107D01*
G01Y-3244D01*
G01X-118D01*
G01X-122D01*
G01Y-3248D01*
G01X-111D01*
G01Y-3258D01*
G01X-93D01*
G01Y-3248D01*
G01X-82D01*
G01Y-3229D01*
G01X-93D01*
G01Y-3219D01*
G37*
G36*
G01X-111Y-4235D02*
G01X-111Y-4245D01*
G01X-122D01*
G01Y-4260D01*
G01X-118D01*
G01Y-4249D01*
G01X-107D01*
G01Y-4238D01*
G01X-96D01*
G01Y-4249D01*
G01X-85D01*
G01Y-4260D01*
G01X-96D01*
G01Y-4271D01*
G01X-107D01*
G01Y-4260D01*
G01X-118D01*
G01X-122D01*
G01Y-4264D01*
G01X-111D01*
G01Y-4274D01*
G01X-93D01*
G01Y-4264D01*
G01X-82D01*
G01Y-4245D01*
G01X-93D01*
G01Y-4235D01*
G37*
G36*
G01X-111Y-4743D02*
G01X-111Y-4753D01*
G01X-122D01*
G01Y-4768D01*
G01X-118D01*
G01Y-4757D01*
G01X-107D01*
G01Y-4746D01*
G01X-96D01*
G01Y-4757D01*
G01X-85D01*
G01Y-4768D01*
G01X-96D01*
G01Y-4779D01*
G01X-107D01*
G01Y-4768D01*
G01X-118D01*
G01X-122D01*
G01Y-4772D01*
G01X-111D01*
G01Y-4782D01*
G01X-93D01*
G01Y-4772D01*
G01X-82D01*
G01Y-4753D01*
G01X-93D01*
G01Y-4743D01*
G37*
G36*
G01X-111Y-5251D02*
G01X-111Y-5261D01*
G01X-122D01*
G01Y-5276D01*
G01X-118D01*
G01Y-5265D01*
G01X-107D01*
G01Y-5254D01*
G01X-96D01*
G01Y-5265D01*
G01X-85D01*
G01Y-5276D01*
G01X-96D01*
G01Y-5287D01*
G01X-107D01*
G01Y-5276D01*
G01X-118D01*
G01X-122D01*
G01Y-5280D01*
G01X-111D01*
G01Y-5290D01*
G01X-93D01*
G01Y-5280D01*
G01X-82D01*
G01Y-5261D01*
G01X-93D01*
G01Y-5251D01*
G37*
G36*
G01X-111Y-5759D02*
G01X-111Y-5769D01*
G01X-122D01*
G01Y-5784D01*
G01X-118D01*
G01Y-5773D01*
G01X-107D01*
G01Y-5762D01*
G01X-96D01*
G01Y-5773D01*
G01X-85D01*
G01Y-5784D01*
G01X-96D01*
G01Y-5795D01*
G01X-107D01*
G01Y-5784D01*
G01X-118D01*
G01X-122D01*
G01Y-5788D01*
G01X-111D01*
G01Y-5798D01*
G01X-93D01*
G01Y-5788D01*
G01X-82D01*
G01Y-5769D01*
G01X-93D01*
G01Y-5759D01*
G37*
G36*
G01X-111Y-6267D02*
G01X-111Y-6277D01*
G01X-122D01*
G01Y-6292D01*
G01X-118D01*
G01Y-6281D01*
G01X-107D01*
G01Y-6270D01*
G01X-96D01*
G01Y-6281D01*
G01X-85D01*
G01Y-6292D01*
G01X-96D01*
G01Y-6303D01*
G01X-107D01*
G01Y-6292D01*
G01X-118D01*
G01X-122D01*
G01Y-6296D01*
G01X-111D01*
G01Y-6306D01*
G01X-93D01*
G01Y-6296D01*
G01X-82D01*
G01Y-6277D01*
G01X-93D01*
G01Y-6267D01*
G37*
G36*
G01X-111Y-6775D02*
G01X-111Y-6785D01*
G01X-122D01*
G01Y-6800D01*
G01X-118D01*
G01Y-6789D01*
G01X-107D01*
G01Y-6778D01*
G01X-96D01*
G01Y-6789D01*
G01X-85D01*
G01Y-6800D01*
G01X-96D01*
G01Y-6811D01*
G01X-107D01*
G01Y-6800D01*
G01X-118D01*
G01X-122D01*
G01Y-6804D01*
G01X-111D01*
G01Y-6814D01*
G01X-93D01*
G01Y-6804D01*
G01X-82D01*
G01Y-6785D01*
G01X-93D01*
G01Y-6775D01*
G37*
G36*
G01X-111Y-7283D02*
G01X-111Y-7293D01*
G01X-122D01*
G01Y-7308D01*
G01X-118D01*
G01Y-7297D01*
G01X-107D01*
G01Y-7286D01*
G01X-96D01*
G01Y-7297D01*
G01X-85D01*
G01Y-7308D01*
G01X-96D01*
G01Y-7319D01*
G01X-107D01*
G01Y-7308D01*
G01X-118D01*
G01X-122D01*
G01Y-7312D01*
G01X-111D01*
G01Y-7322D01*
G01X-93D01*
G01Y-7312D01*
G01X-82D01*
G01Y-7293D01*
G01X-93D01*
G01Y-7283D01*
G37*
G36*
G01X-619Y-1695D02*
G01X-619Y-1705D01*
G01X-630D01*
G01Y-1720D01*
G01X-626D01*
G01Y-1709D01*
G01X-615D01*
G01Y-1698D01*
G01X-604D01*
G01Y-1709D01*
G01X-593D01*
G01Y-1720D01*
G01X-604D01*
G01Y-1731D01*
G01X-615D01*
G01Y-1720D01*
G01X-626D01*
G01X-630D01*
G01Y-1724D01*
G01X-619D01*
G01Y-1734D01*
G01X-601D01*
G01Y-1724D01*
G01X-590D01*
G01Y-1705D01*
G01X-601D01*
G01Y-1695D01*
G37*
G36*
G01X-619Y-2203D02*
G01X-619Y-2213D01*
G01X-630D01*
G01Y-2228D01*
G01X-626D01*
G01Y-2217D01*
G01X-615D01*
G01Y-2206D01*
G01X-604D01*
G01Y-2217D01*
G01X-593D01*
G01Y-2228D01*
G01X-604D01*
G01Y-2239D01*
G01X-615D01*
G01Y-2228D01*
G01X-626D01*
G01X-630D01*
G01Y-2232D01*
G01X-619D01*
G01Y-2242D01*
G01X-601D01*
G01Y-2232D01*
G01X-590D01*
G01Y-2213D01*
G01X-601D01*
G01Y-2203D01*
G37*
G36*
G01X-619Y-3219D02*
G01X-619Y-3229D01*
G01X-630D01*
G01Y-3244D01*
G01X-626D01*
G01Y-3233D01*
G01X-615D01*
G01Y-3222D01*
G01X-604D01*
G01Y-3233D01*
G01X-593D01*
G01Y-3244D01*
G01X-604D01*
G01Y-3255D01*
G01X-615D01*
G01Y-3244D01*
G01X-626D01*
G01X-630D01*
G01Y-3248D01*
G01X-619D01*
G01Y-3258D01*
G01X-601D01*
G01Y-3248D01*
G01X-590D01*
G01Y-3229D01*
G01X-601D01*
G01Y-3219D01*
G37*
G36*
G01X-619Y-4235D02*
G01X-619Y-4245D01*
G01X-630D01*
G01Y-4260D01*
G01X-626D01*
G01Y-4249D01*
G01X-615D01*
G01Y-4238D01*
G01X-604D01*
G01Y-4249D01*
G01X-593D01*
G01Y-4260D01*
G01X-604D01*
G01Y-4271D01*
G01X-615D01*
G01Y-4260D01*
G01X-626D01*
G01X-630D01*
G01Y-4264D01*
G01X-619D01*
G01Y-4274D01*
G01X-601D01*
G01Y-4264D01*
G01X-590D01*
G01Y-4245D01*
G01X-601D01*
G01Y-4235D01*
G37*
G36*
G01X-619Y-5251D02*
G01X-619Y-5261D01*
G01X-630D01*
G01Y-5276D01*
G01X-626D01*
G01Y-5265D01*
G01X-615D01*
G01Y-5254D01*
G01X-604D01*
G01Y-5265D01*
G01X-593D01*
G01Y-5276D01*
G01X-604D01*
G01Y-5287D01*
G01X-615D01*
G01Y-5276D01*
G01X-626D01*
G01X-630D01*
G01Y-5280D01*
G01X-619D01*
G01Y-5290D01*
G01X-601D01*
G01Y-5280D01*
G01X-590D01*
G01Y-5261D01*
G01X-601D01*
G01Y-5251D01*
G37*
G36*
G01X-619Y-5759D02*
G01X-619Y-5769D01*
G01X-630D01*
G01Y-5784D01*
G01X-626D01*
G01Y-5773D01*
G01X-615D01*
G01Y-5762D01*
G01X-604D01*
G01Y-5773D01*
G01X-593D01*
G01Y-5784D01*
G01X-604D01*
G01Y-5795D01*
G01X-615D01*
G01Y-5784D01*
G01X-626D01*
G01X-630D01*
G01Y-5788D01*
G01X-619D01*
G01Y-5798D01*
G01X-601D01*
G01Y-5788D01*
G01X-590D01*
G01Y-5769D01*
G01X-601D01*
G01Y-5759D01*
G37*
G36*
G01X-619Y-6775D02*
G01X-619Y-6785D01*
G01X-630D01*
G01Y-6800D01*
G01X-626D01*
G01Y-6789D01*
G01X-615D01*
G01Y-6778D01*
G01X-604D01*
G01Y-6789D01*
G01X-593D01*
G01Y-6800D01*
G01X-604D01*
G01Y-6811D01*
G01X-615D01*
G01Y-6800D01*
G01X-626D01*
G01X-630D01*
G01Y-6804D01*
G01X-619D01*
G01Y-6814D01*
G01X-601D01*
G01Y-6804D01*
G01X-590D01*
G01Y-6785D01*
G01X-601D01*
G01Y-6775D01*
G37*
G36*
G01X-1127Y-1695D02*
G01X-1127Y-1705D01*
G01X-1138D01*
G01Y-1720D01*
G01X-1134D01*
G01Y-1709D01*
G01X-1123D01*
G01Y-1698D01*
G01X-1112D01*
G01Y-1709D01*
G01X-1101D01*
G01Y-1720D01*
G01X-1112D01*
G01Y-1731D01*
G01X-1123D01*
G01Y-1720D01*
G01X-1134D01*
G01X-1138D01*
G01Y-1724D01*
G01X-1127D01*
G01Y-1734D01*
G01X-1109D01*
G01Y-1724D01*
G01X-1098D01*
G01Y-1705D01*
G01X-1109D01*
G01Y-1695D01*
G37*
G36*
G01X-1127Y-2203D02*
G01X-1127Y-2213D01*
G01X-1138D01*
G01Y-2228D01*
G01X-1134D01*
G01Y-2217D01*
G01X-1123D01*
G01Y-2206D01*
G01X-1112D01*
G01Y-2217D01*
G01X-1101D01*
G01Y-2228D01*
G01X-1112D01*
G01Y-2239D01*
G01X-1123D01*
G01Y-2228D01*
G01X-1134D01*
G01X-1138D01*
G01Y-2232D01*
G01X-1127D01*
G01Y-2242D01*
G01X-1109D01*
G01Y-2232D01*
G01X-1098D01*
G01Y-2213D01*
G01X-1109D01*
G01Y-2203D01*
G37*
G36*
G01X-1127Y-2711D02*
G01X-1127Y-2721D01*
G01X-1138D01*
G01Y-2736D01*
G01X-1134D01*
G01Y-2725D01*
G01X-1123D01*
G01Y-2714D01*
G01X-1112D01*
G01Y-2725D01*
G01X-1101D01*
G01Y-2736D01*
G01X-1112D01*
G01Y-2747D01*
G01X-1123D01*
G01Y-2736D01*
G01X-1134D01*
G01X-1138D01*
G01Y-2740D01*
G01X-1127D01*
G01Y-2750D01*
G01X-1109D01*
G01Y-2740D01*
G01X-1098D01*
G01Y-2721D01*
G01X-1109D01*
G01Y-2711D01*
G37*
G36*
G01X-1127Y-3219D02*
G01X-1127Y-3229D01*
G01X-1138D01*
G01Y-3244D01*
G01X-1134D01*
G01Y-3233D01*
G01X-1123D01*
G01Y-3222D01*
G01X-1112D01*
G01Y-3233D01*
G01X-1101D01*
G01Y-3244D01*
G01X-1112D01*
G01Y-3255D01*
G01X-1123D01*
G01Y-3244D01*
G01X-1134D01*
G01X-1138D01*
G01Y-3248D01*
G01X-1127D01*
G01Y-3258D01*
G01X-1109D01*
G01Y-3248D01*
G01X-1098D01*
G01Y-3229D01*
G01X-1109D01*
G01Y-3219D01*
G37*
G36*
G01X-1127Y-5251D02*
G01X-1127Y-5261D01*
G01X-1138D01*
G01Y-5276D01*
G01X-1134D01*
G01Y-5265D01*
G01X-1123D01*
G01Y-5254D01*
G01X-1112D01*
G01Y-5265D01*
G01X-1101D01*
G01Y-5276D01*
G01X-1112D01*
G01Y-5287D01*
G01X-1123D01*
G01Y-5276D01*
G01X-1134D01*
G01X-1138D01*
G01Y-5280D01*
G01X-1127D01*
G01Y-5290D01*
G01X-1109D01*
G01Y-5280D01*
G01X-1098D01*
G01Y-5261D01*
G01X-1109D01*
G01Y-5251D01*
G37*
G36*
G01X-1127Y-5759D02*
G01X-1127Y-5769D01*
G01X-1138D01*
G01Y-5784D01*
G01X-1134D01*
G01Y-5773D01*
G01X-1123D01*
G01Y-5762D01*
G01X-1112D01*
G01Y-5773D01*
G01X-1101D01*
G01Y-5784D01*
G01X-1112D01*
G01Y-5795D01*
G01X-1123D01*
G01Y-5784D01*
G01X-1134D01*
G01X-1138D01*
G01Y-5788D01*
G01X-1127D01*
G01Y-5798D01*
G01X-1109D01*
G01Y-5788D01*
G01X-1098D01*
G01Y-5769D01*
G01X-1109D01*
G01Y-5759D01*
G37*
G36*
G01X-1127Y-6267D02*
G01X-1127Y-6277D01*
G01X-1138D01*
G01Y-6292D01*
G01X-1134D01*
G01Y-6281D01*
G01X-1123D01*
G01Y-6270D01*
G01X-1112D01*
G01Y-6281D01*
G01X-1101D01*
G01Y-6292D01*
G01X-1112D01*
G01Y-6303D01*
G01X-1123D01*
G01Y-6292D01*
G01X-1134D01*
G01X-1138D01*
G01Y-6296D01*
G01X-1127D01*
G01Y-6306D01*
G01X-1109D01*
G01Y-6296D01*
G01X-1098D01*
G01Y-6277D01*
G01X-1109D01*
G01Y-6267D01*
G37*
G36*
G01X-1127Y-6775D02*
G01X-1127Y-6785D01*
G01X-1138D01*
G01Y-6800D01*
G01X-1134D01*
G01Y-6789D01*
G01X-1123D01*
G01Y-6778D01*
G01X-1112D01*
G01Y-6789D01*
G01X-1101D01*
G01Y-6800D01*
G01X-1112D01*
G01Y-6811D01*
G01X-1123D01*
G01Y-6800D01*
G01X-1134D01*
G01X-1138D01*
G01Y-6804D01*
G01X-1127D01*
G01Y-6814D01*
G01X-1109D01*
G01Y-6804D01*
G01X-1098D01*
G01Y-6785D01*
G01X-1109D01*
G01Y-6775D01*
G37*
G36*
G01X-1127Y-7283D02*
G01X-1127Y-7293D01*
G01X-1138D01*
G01Y-7308D01*
G01X-1134D01*
G01Y-7297D01*
G01X-1123D01*
G01Y-7286D01*
G01X-1112D01*
G01Y-7297D01*
G01X-1101D01*
G01Y-7308D01*
G01X-1112D01*
G01Y-7319D01*
G01X-1123D01*
G01Y-7308D01*
G01X-1134D01*
G01X-1138D01*
G01Y-7312D01*
G01X-1127D01*
G01Y-7322D01*
G01X-1109D01*
G01Y-7312D01*
G01X-1098D01*
G01Y-7293D01*
G01X-1109D01*
G01Y-7283D01*
G37*
G36*
G01X-1635Y-3219D02*
G01X-1635Y-3229D01*
G01X-1646D01*
G01Y-3244D01*
G01X-1642D01*
G01Y-3233D01*
G01X-1631D01*
G01Y-3222D01*
G01X-1620D01*
G01Y-3233D01*
G01X-1609D01*
G01Y-3244D01*
G01X-1620D01*
G01Y-3255D01*
G01X-1631D01*
G01Y-3244D01*
G01X-1642D01*
G01X-1646D01*
G01Y-3248D01*
G01X-1635D01*
G01Y-3258D01*
G01X-1617D01*
G01Y-3248D01*
G01X-1606D01*
G01Y-3229D01*
G01X-1617D01*
G01Y-3219D01*
G37*
G36*
G01X-1635Y-4235D02*
G01X-1635Y-4245D01*
G01X-1646D01*
G01Y-4260D01*
G01X-1642D01*
G01Y-4249D01*
G01X-1631D01*
G01Y-4238D01*
G01X-1620D01*
G01Y-4249D01*
G01X-1609D01*
G01Y-4260D01*
G01X-1620D01*
G01Y-4271D01*
G01X-1631D01*
G01Y-4260D01*
G01X-1642D01*
G01X-1646D01*
G01Y-4264D01*
G01X-1635D01*
G01Y-4274D01*
G01X-1617D01*
G01Y-4264D01*
G01X-1606D01*
G01Y-4245D01*
G01X-1617D01*
G01Y-4235D01*
G37*
G36*
G01X-1635Y-5251D02*
G01X-1635Y-5261D01*
G01X-1646D01*
G01Y-5276D01*
G01X-1642D01*
G01Y-5265D01*
G01X-1631D01*
G01Y-5254D01*
G01X-1620D01*
G01Y-5265D01*
G01X-1609D01*
G01Y-5276D01*
G01X-1620D01*
G01Y-5287D01*
G01X-1631D01*
G01Y-5276D01*
G01X-1642D01*
G01X-1646D01*
G01Y-5280D01*
G01X-1635D01*
G01Y-5290D01*
G01X-1617D01*
G01Y-5280D01*
G01X-1606D01*
G01Y-5261D01*
G01X-1617D01*
G01Y-5251D01*
G37*
G36*
G01X-1635Y-5759D02*
G01X-1635Y-5769D01*
G01X-1646D01*
G01Y-5784D01*
G01X-1642D01*
G01Y-5773D01*
G01X-1631D01*
G01Y-5762D01*
G01X-1620D01*
G01Y-5773D01*
G01X-1609D01*
G01Y-5784D01*
G01X-1620D01*
G01Y-5795D01*
G01X-1631D01*
G01Y-5784D01*
G01X-1642D01*
G01X-1646D01*
G01Y-5788D01*
G01X-1635D01*
G01Y-5798D01*
G01X-1617D01*
G01Y-5788D01*
G01X-1606D01*
G01Y-5769D01*
G01X-1617D01*
G01Y-5759D01*
G37*
G36*
G01X-1635Y-7283D02*
G01X-1635Y-7293D01*
G01X-1646D01*
G01Y-7308D01*
G01X-1642D01*
G01Y-7297D01*
G01X-1631D01*
G01Y-7286D01*
G01X-1620D01*
G01Y-7297D01*
G01X-1609D01*
G01Y-7308D01*
G01X-1620D01*
G01Y-7319D01*
G01X-1631D01*
G01Y-7308D01*
G01X-1642D01*
G01X-1646D01*
G01Y-7312D01*
G01X-1635D01*
G01Y-7322D01*
G01X-1617D01*
G01Y-7312D01*
G01X-1606D01*
G01Y-7293D01*
G01X-1617D01*
G01Y-7283D01*
G37*
G36*
G01X-2143Y-1695D02*
G01X-2143Y-1705D01*
G01X-2154D01*
G01Y-1720D01*
G01X-2150D01*
G01Y-1709D01*
G01X-2139D01*
G01Y-1698D01*
G01X-2128D01*
G01Y-1709D01*
G01X-2117D01*
G01Y-1720D01*
G01X-2128D01*
G01Y-1731D01*
G01X-2139D01*
G01Y-1720D01*
G01X-2150D01*
G01X-2154D01*
G01Y-1724D01*
G01X-2143D01*
G01Y-1734D01*
G01X-2125D01*
G01Y-1724D01*
G01X-2114D01*
G01Y-1705D01*
G01X-2125D01*
G01Y-1695D01*
G37*
G36*
G01X-2143Y-3219D02*
G01X-2143Y-3229D01*
G01X-2154D01*
G01Y-3244D01*
G01X-2150D01*
G01Y-3233D01*
G01X-2139D01*
G01Y-3222D01*
G01X-2128D01*
G01Y-3233D01*
G01X-2117D01*
G01Y-3244D01*
G01X-2128D01*
G01Y-3255D01*
G01X-2139D01*
G01Y-3244D01*
G01X-2150D01*
G01X-2154D01*
G01Y-3248D01*
G01X-2143D01*
G01Y-3258D01*
G01X-2125D01*
G01Y-3248D01*
G01X-2114D01*
G01Y-3229D01*
G01X-2125D01*
G01Y-3219D01*
G37*
G36*
G01X-2143Y-5251D02*
G01X-2143Y-5261D01*
G01X-2154D01*
G01Y-5276D01*
G01X-2150D01*
G01Y-5265D01*
G01X-2139D01*
G01Y-5254D01*
G01X-2128D01*
G01Y-5265D01*
G01X-2117D01*
G01Y-5276D01*
G01X-2128D01*
G01Y-5287D01*
G01X-2139D01*
G01Y-5276D01*
G01X-2150D01*
G01X-2154D01*
G01Y-5280D01*
G01X-2143D01*
G01Y-5290D01*
G01X-2125D01*
G01Y-5280D01*
G01X-2114D01*
G01Y-5261D01*
G01X-2125D01*
G01Y-5251D01*
G37*
G36*
G01X-2143Y-5759D02*
G01X-2143Y-5769D01*
G01X-2154D01*
G01Y-5784D01*
G01X-2150D01*
G01Y-5773D01*
G01X-2139D01*
G01Y-5762D01*
G01X-2128D01*
G01Y-5773D01*
G01X-2117D01*
G01Y-5784D01*
G01X-2128D01*
G01Y-5795D01*
G01X-2139D01*
G01Y-5784D01*
G01X-2150D01*
G01X-2154D01*
G01Y-5788D01*
G01X-2143D01*
G01Y-5798D01*
G01X-2125D01*
G01Y-5788D01*
G01X-2114D01*
G01Y-5769D01*
G01X-2125D01*
G01Y-5759D01*
G37*
G36*
G01X-2143Y-7283D02*
G01X-2143Y-7293D01*
G01X-2154D01*
G01Y-7308D01*
G01X-2150D01*
G01Y-7297D01*
G01X-2139D01*
G01Y-7286D01*
G01X-2128D01*
G01Y-7297D01*
G01X-2117D01*
G01Y-7308D01*
G01X-2128D01*
G01Y-7319D01*
G01X-2139D01*
G01Y-7308D01*
G01X-2150D01*
G01X-2154D01*
G01Y-7312D01*
G01X-2143D01*
G01Y-7322D01*
G01X-2125D01*
G01Y-7312D01*
G01X-2114D01*
G01Y-7293D01*
G01X-2125D01*
G01Y-7283D01*
G37*
G36*
G01X-2651Y-3219D02*
G01X-2651Y-3229D01*
G01X-2662D01*
G01Y-3244D01*
G01X-2658D01*
G01Y-3233D01*
G01X-2647D01*
G01Y-3222D01*
G01X-2636D01*
G01Y-3233D01*
G01X-2625D01*
G01Y-3244D01*
G01X-2636D01*
G01Y-3255D01*
G01X-2647D01*
G01Y-3244D01*
G01X-2658D01*
G01X-2662D01*
G01Y-3248D01*
G01X-2651D01*
G01Y-3258D01*
G01X-2633D01*
G01Y-3248D01*
G01X-2622D01*
G01Y-3229D01*
G01X-2633D01*
G01Y-3219D01*
G37*
G36*
G01X-2651Y-3727D02*
G01X-2651Y-3737D01*
G01X-2662D01*
G01Y-3752D01*
G01X-2658D01*
G01Y-3741D01*
G01X-2647D01*
G01Y-3730D01*
G01X-2636D01*
G01Y-3741D01*
G01X-2625D01*
G01Y-3752D01*
G01X-2636D01*
G01Y-3763D01*
G01X-2647D01*
G01Y-3752D01*
G01X-2658D01*
G01X-2662D01*
G01Y-3756D01*
G01X-2651D01*
G01Y-3766D01*
G01X-2633D01*
G01Y-3756D01*
G01X-2622D01*
G01Y-3737D01*
G01X-2633D01*
G01Y-3727D01*
G37*
G36*
G01X-2651Y-5759D02*
G01X-2651Y-5769D01*
G01X-2662D01*
G01Y-5784D01*
G01X-2658D01*
G01Y-5773D01*
G01X-2647D01*
G01Y-5762D01*
G01X-2636D01*
G01Y-5773D01*
G01X-2625D01*
G01Y-5784D01*
G01X-2636D01*
G01Y-5795D01*
G01X-2647D01*
G01Y-5784D01*
G01X-2658D01*
G01X-2662D01*
G01Y-5788D01*
G01X-2651D01*
G01Y-5798D01*
G01X-2633D01*
G01Y-5788D01*
G01X-2622D01*
G01Y-5769D01*
G01X-2633D01*
G01Y-5759D01*
G37*
G36*
G01X-2651Y-6267D02*
G01X-2651Y-6277D01*
G01X-2662D01*
G01Y-6292D01*
G01X-2658D01*
G01Y-6281D01*
G01X-2647D01*
G01Y-6270D01*
G01X-2636D01*
G01Y-6281D01*
G01X-2625D01*
G01Y-6292D01*
G01X-2636D01*
G01Y-6303D01*
G01X-2647D01*
G01Y-6292D01*
G01X-2658D01*
G01X-2662D01*
G01Y-6296D01*
G01X-2651D01*
G01Y-6306D01*
G01X-2633D01*
G01Y-6296D01*
G01X-2622D01*
G01Y-6277D01*
G01X-2633D01*
G01Y-6267D01*
G37*
G36*
G01X-2651Y-6775D02*
G01X-2651Y-6785D01*
G01X-2662D01*
G01Y-6800D01*
G01X-2658D01*
G01Y-6789D01*
G01X-2647D01*
G01Y-6778D01*
G01X-2636D01*
G01Y-6789D01*
G01X-2625D01*
G01Y-6800D01*
G01X-2636D01*
G01Y-6811D01*
G01X-2647D01*
G01Y-6800D01*
G01X-2658D01*
G01X-2662D01*
G01Y-6804D01*
G01X-2651D01*
G01Y-6814D01*
G01X-2633D01*
G01Y-6804D01*
G01X-2622D01*
G01Y-6785D01*
G01X-2633D01*
G01Y-6775D01*
G37*
G36*
G01X-2651Y-7283D02*
G01X-2651Y-7293D01*
G01X-2662D01*
G01Y-7308D01*
G01X-2658D01*
G01Y-7297D01*
G01X-2647D01*
G01Y-7286D01*
G01X-2636D01*
G01Y-7297D01*
G01X-2625D01*
G01Y-7308D01*
G01X-2636D01*
G01Y-7319D01*
G01X-2647D01*
G01Y-7308D01*
G01X-2658D01*
G01X-2662D01*
G01Y-7312D01*
G01X-2651D01*
G01Y-7322D01*
G01X-2633D01*
G01Y-7312D01*
G01X-2622D01*
G01Y-7293D01*
G01X-2633D01*
G01Y-7283D01*
G37*
G36*
G01X-3159Y-1695D02*
G01X-3159Y-1705D01*
G01X-3170D01*
G01Y-1720D01*
G01X-3166D01*
G01Y-1709D01*
G01X-3155D01*
G01Y-1698D01*
G01X-3144D01*
G01Y-1709D01*
G01X-3133D01*
G01Y-1720D01*
G01X-3144D01*
G01Y-1731D01*
G01X-3155D01*
G01Y-1720D01*
G01X-3166D01*
G01X-3170D01*
G01Y-1724D01*
G01X-3159D01*
G01Y-1734D01*
G01X-3141D01*
G01Y-1724D01*
G01X-3130D01*
G01Y-1705D01*
G01X-3141D01*
G01Y-1695D01*
G37*
G36*
G01X-3159Y-3219D02*
G01X-3159Y-3229D01*
G01X-3170D01*
G01Y-3244D01*
G01X-3166D01*
G01Y-3233D01*
G01X-3155D01*
G01Y-3222D01*
G01X-3144D01*
G01Y-3233D01*
G01X-3133D01*
G01Y-3244D01*
G01X-3144D01*
G01Y-3255D01*
G01X-3155D01*
G01Y-3244D01*
G01X-3166D01*
G01X-3170D01*
G01Y-3248D01*
G01X-3159D01*
G01Y-3258D01*
G01X-3141D01*
G01Y-3248D01*
G01X-3130D01*
G01Y-3229D01*
G01X-3141D01*
G01Y-3219D01*
G37*
G36*
G01X-3159Y-3727D02*
G01X-3159Y-3737D01*
G01X-3170D01*
G01Y-3752D01*
G01X-3166D01*
G01Y-3741D01*
G01X-3155D01*
G01Y-3730D01*
G01X-3144D01*
G01Y-3741D01*
G01X-3133D01*
G01Y-3752D01*
G01X-3144D01*
G01Y-3763D01*
G01X-3155D01*
G01Y-3752D01*
G01X-3166D01*
G01X-3170D01*
G01Y-3756D01*
G01X-3159D01*
G01Y-3766D01*
G01X-3141D01*
G01Y-3756D01*
G01X-3130D01*
G01Y-3737D01*
G01X-3141D01*
G01Y-3727D01*
G37*
G36*
G01X-3159Y-4235D02*
G01X-3159Y-4245D01*
G01X-3170D01*
G01Y-4260D01*
G01X-3166D01*
G01Y-4249D01*
G01X-3155D01*
G01Y-4238D01*
G01X-3144D01*
G01Y-4249D01*
G01X-3133D01*
G01Y-4260D01*
G01X-3144D01*
G01Y-4271D01*
G01X-3155D01*
G01Y-4260D01*
G01X-3166D01*
G01X-3170D01*
G01Y-4264D01*
G01X-3159D01*
G01Y-4274D01*
G01X-3141D01*
G01Y-4264D01*
G01X-3130D01*
G01Y-4245D01*
G01X-3141D01*
G01Y-4235D01*
G37*
G36*
G01X-3159Y-4743D02*
G01X-3159Y-4753D01*
G01X-3170D01*
G01Y-4768D01*
G01X-3166D01*
G01Y-4757D01*
G01X-3155D01*
G01Y-4746D01*
G01X-3144D01*
G01Y-4757D01*
G01X-3133D01*
G01Y-4768D01*
G01X-3144D01*
G01Y-4779D01*
G01X-3155D01*
G01Y-4768D01*
G01X-3166D01*
G01X-3170D01*
G01Y-4772D01*
G01X-3159D01*
G01Y-4782D01*
G01X-3141D01*
G01Y-4772D01*
G01X-3130D01*
G01Y-4753D01*
G01X-3141D01*
G01Y-4743D01*
G37*
G36*
G01X-3159Y-5251D02*
G01X-3159Y-5261D01*
G01X-3170D01*
G01Y-5276D01*
G01X-3166D01*
G01Y-5265D01*
G01X-3155D01*
G01Y-5254D01*
G01X-3144D01*
G01Y-5265D01*
G01X-3133D01*
G01Y-5276D01*
G01X-3144D01*
G01Y-5287D01*
G01X-3155D01*
G01Y-5276D01*
G01X-3166D01*
G01X-3170D01*
G01Y-5280D01*
G01X-3159D01*
G01Y-5290D01*
G01X-3141D01*
G01Y-5280D01*
G01X-3130D01*
G01Y-5261D01*
G01X-3141D01*
G01Y-5251D01*
G37*
G36*
G01X-3159Y-5759D02*
G01X-3159Y-5769D01*
G01X-3170D01*
G01Y-5784D01*
G01X-3166D01*
G01Y-5773D01*
G01X-3155D01*
G01Y-5762D01*
G01X-3144D01*
G01Y-5773D01*
G01X-3133D01*
G01Y-5784D01*
G01X-3144D01*
G01Y-5795D01*
G01X-3155D01*
G01Y-5784D01*
G01X-3166D01*
G01X-3170D01*
G01Y-5788D01*
G01X-3159D01*
G01Y-5798D01*
G01X-3141D01*
G01Y-5788D01*
G01X-3130D01*
G01Y-5769D01*
G01X-3141D01*
G01Y-5759D01*
G37*
G36*
G01X-3159Y-6267D02*
G01X-3159Y-6277D01*
G01X-3170D01*
G01Y-6292D01*
G01X-3166D01*
G01Y-6281D01*
G01X-3155D01*
G01Y-6270D01*
G01X-3144D01*
G01Y-6281D01*
G01X-3133D01*
G01Y-6292D01*
G01X-3144D01*
G01Y-6303D01*
G01X-3155D01*
G01Y-6292D01*
G01X-3166D01*
G01X-3170D01*
G01Y-6296D01*
G01X-3159D01*
G01Y-6306D01*
G01X-3141D01*
G01Y-6296D01*
G01X-3130D01*
G01Y-6277D01*
G01X-3141D01*
G01Y-6267D01*
G37*
G36*
G01X-3159Y-6775D02*
G01X-3159Y-6785D01*
G01X-3170D01*
G01Y-6800D01*
G01X-3166D01*
G01Y-6789D01*
G01X-3155D01*
G01Y-6778D01*
G01X-3144D01*
G01Y-6789D01*
G01X-3133D01*
G01Y-6800D01*
G01X-3144D01*
G01Y-6811D01*
G01X-3155D01*
G01Y-6800D01*
G01X-3166D01*
G01X-3170D01*
G01Y-6804D01*
G01X-3159D01*
G01Y-6814D01*
G01X-3141D01*
G01Y-6804D01*
G01X-3130D01*
G01Y-6785D01*
G01X-3141D01*
G01Y-6775D01*
G37*
G36*
G01X-3159Y-7283D02*
G01X-3159Y-7293D01*
G01X-3170D01*
G01Y-7308D01*
G01X-3166D01*
G01Y-7297D01*
G01X-3155D01*
G01Y-7286D01*
G01X-3144D01*
G01Y-7297D01*
G01X-3133D01*
G01Y-7308D01*
G01X-3144D01*
G01Y-7319D01*
G01X-3155D01*
G01Y-7308D01*
G01X-3166D01*
G01X-3170D01*
G01Y-7312D01*
G01X-3159D01*
G01Y-7322D01*
G01X-3141D01*
G01Y-7312D01*
G01X-3130D01*
G01Y-7293D01*
G01X-3141D01*
G01Y-7283D01*
G37*
G36*
G01X-3667Y-1695D02*
G01X-3667Y-1705D01*
G01X-3678D01*
G01Y-1720D01*
G01X-3674D01*
G01Y-1709D01*
G01X-3663D01*
G01Y-1698D01*
G01X-3652D01*
G01Y-1709D01*
G01X-3641D01*
G01Y-1720D01*
G01X-3652D01*
G01Y-1731D01*
G01X-3663D01*
G01Y-1720D01*
G01X-3674D01*
G01X-3678D01*
G01Y-1724D01*
G01X-3667D01*
G01Y-1734D01*
G01X-3649D01*
G01Y-1724D01*
G01X-3638D01*
G01Y-1705D01*
G01X-3649D01*
G01Y-1695D01*
G37*
G36*
G01X-3667Y-2711D02*
G01X-3667Y-2721D01*
G01X-3678D01*
G01Y-2736D01*
G01X-3674D01*
G01Y-2725D01*
G01X-3663D01*
G01Y-2714D01*
G01X-3652D01*
G01Y-2725D01*
G01X-3641D01*
G01Y-2736D01*
G01X-3652D01*
G01Y-2747D01*
G01X-3663D01*
G01Y-2736D01*
G01X-3674D01*
G01X-3678D01*
G01Y-2740D01*
G01X-3667D01*
G01Y-2750D01*
G01X-3649D01*
G01Y-2740D01*
G01X-3638D01*
G01Y-2721D01*
G01X-3649D01*
G01Y-2711D01*
G37*
G36*
G01X-3667Y-3219D02*
G01X-3667Y-3229D01*
G01X-3678D01*
G01Y-3244D01*
G01X-3674D01*
G01Y-3233D01*
G01X-3663D01*
G01Y-3222D01*
G01X-3652D01*
G01Y-3233D01*
G01X-3641D01*
G01Y-3244D01*
G01X-3652D01*
G01Y-3255D01*
G01X-3663D01*
G01Y-3244D01*
G01X-3674D01*
G01X-3678D01*
G01Y-3248D01*
G01X-3667D01*
G01Y-3258D01*
G01X-3649D01*
G01Y-3248D01*
G01X-3638D01*
G01Y-3229D01*
G01X-3649D01*
G01Y-3219D01*
G37*
G36*
G01X-3667Y-3727D02*
G01X-3667Y-3737D01*
G01X-3678D01*
G01Y-3752D01*
G01X-3674D01*
G01Y-3741D01*
G01X-3663D01*
G01Y-3730D01*
G01X-3652D01*
G01Y-3741D01*
G01X-3641D01*
G01Y-3752D01*
G01X-3652D01*
G01Y-3763D01*
G01X-3663D01*
G01Y-3752D01*
G01X-3674D01*
G01X-3678D01*
G01Y-3756D01*
G01X-3667D01*
G01Y-3766D01*
G01X-3649D01*
G01Y-3756D01*
G01X-3638D01*
G01Y-3737D01*
G01X-3649D01*
G01Y-3727D01*
G37*
G36*
G01X-3667Y-4235D02*
G01X-3667Y-4245D01*
G01X-3678D01*
G01Y-4260D01*
G01X-3674D01*
G01Y-4249D01*
G01X-3663D01*
G01Y-4238D01*
G01X-3652D01*
G01Y-4249D01*
G01X-3641D01*
G01Y-4260D01*
G01X-3652D01*
G01Y-4271D01*
G01X-3663D01*
G01Y-4260D01*
G01X-3674D01*
G01X-3678D01*
G01Y-4264D01*
G01X-3667D01*
G01Y-4274D01*
G01X-3649D01*
G01Y-4264D01*
G01X-3638D01*
G01Y-4245D01*
G01X-3649D01*
G01Y-4235D01*
G37*
G36*
G01X-3667Y-4743D02*
G01X-3667Y-4753D01*
G01X-3678D01*
G01Y-4768D01*
G01X-3674D01*
G01Y-4757D01*
G01X-3663D01*
G01Y-4746D01*
G01X-3652D01*
G01Y-4757D01*
G01X-3641D01*
G01Y-4768D01*
G01X-3652D01*
G01Y-4779D01*
G01X-3663D01*
G01Y-4768D01*
G01X-3674D01*
G01X-3678D01*
G01Y-4772D01*
G01X-3667D01*
G01Y-4782D01*
G01X-3649D01*
G01Y-4772D01*
G01X-3638D01*
G01Y-4753D01*
G01X-3649D01*
G01Y-4743D01*
G37*
G36*
G01X-3667Y-5251D02*
G01X-3667Y-5261D01*
G01X-3678D01*
G01Y-5276D01*
G01X-3674D01*
G01Y-5265D01*
G01X-3663D01*
G01Y-5254D01*
G01X-3652D01*
G01Y-5265D01*
G01X-3641D01*
G01Y-5276D01*
G01X-3652D01*
G01Y-5287D01*
G01X-3663D01*
G01Y-5276D01*
G01X-3674D01*
G01X-3678D01*
G01Y-5280D01*
G01X-3667D01*
G01Y-5290D01*
G01X-3649D01*
G01Y-5280D01*
G01X-3638D01*
G01Y-5261D01*
G01X-3649D01*
G01Y-5251D01*
G37*
G36*
G01X-3667Y-5759D02*
G01X-3667Y-5769D01*
G01X-3678D01*
G01Y-5784D01*
G01X-3674D01*
G01Y-5773D01*
G01X-3663D01*
G01Y-5762D01*
G01X-3652D01*
G01Y-5773D01*
G01X-3641D01*
G01Y-5784D01*
G01X-3652D01*
G01Y-5795D01*
G01X-3663D01*
G01Y-5784D01*
G01X-3674D01*
G01X-3678D01*
G01Y-5788D01*
G01X-3667D01*
G01Y-5798D01*
G01X-3649D01*
G01Y-5788D01*
G01X-3638D01*
G01Y-5769D01*
G01X-3649D01*
G01Y-5759D01*
G37*
G36*
G01X-3667Y-6267D02*
G01X-3667Y-6277D01*
G01X-3678D01*
G01Y-6292D01*
G01X-3674D01*
G01Y-6281D01*
G01X-3663D01*
G01Y-6270D01*
G01X-3652D01*
G01Y-6281D01*
G01X-3641D01*
G01Y-6292D01*
G01X-3652D01*
G01Y-6303D01*
G01X-3663D01*
G01Y-6292D01*
G01X-3674D01*
G01X-3678D01*
G01Y-6296D01*
G01X-3667D01*
G01Y-6306D01*
G01X-3649D01*
G01Y-6296D01*
G01X-3638D01*
G01Y-6277D01*
G01X-3649D01*
G01Y-6267D01*
G37*
G36*
G01X-3667Y-6775D02*
G01X-3667Y-6785D01*
G01X-3678D01*
G01Y-6800D01*
G01X-3674D01*
G01Y-6789D01*
G01X-3663D01*
G01Y-6778D01*
G01X-3652D01*
G01Y-6789D01*
G01X-3641D01*
G01Y-6800D01*
G01X-3652D01*
G01Y-6811D01*
G01X-3663D01*
G01Y-6800D01*
G01X-3674D01*
G01X-3678D01*
G01Y-6804D01*
G01X-3667D01*
G01Y-6814D01*
G01X-3649D01*
G01Y-6804D01*
G01X-3638D01*
G01Y-6785D01*
G01X-3649D01*
G01Y-6775D01*
G37*
G36*
G01X-3667Y-7283D02*
G01X-3667Y-7293D01*
G01X-3678D01*
G01Y-7308D01*
G01X-3674D01*
G01Y-7297D01*
G01X-3663D01*
G01Y-7286D01*
G01X-3652D01*
G01Y-7297D01*
G01X-3641D01*
G01Y-7308D01*
G01X-3652D01*
G01Y-7319D01*
G01X-3663D01*
G01Y-7308D01*
G01X-3674D01*
G01X-3678D01*
G01Y-7312D01*
G01X-3667D01*
G01Y-7322D01*
G01X-3649D01*
G01Y-7312D01*
G01X-3638D01*
G01Y-7293D01*
G01X-3649D01*
G01Y-7283D01*
G37*
G36*
G01X-3667Y-1504D02*
G01X-3667Y-1515D01*
G01X-3678D01*
G01Y-1530D01*
G01X-3674D01*
G01Y-1518D01*
G01X-3663D01*
G01Y-1507D01*
G01X-3652D01*
G01Y-1518D01*
G01X-3641D01*
G01Y-1530D01*
G01X-3652D01*
G01Y-1541D01*
G01X-3663D01*
G01Y-1530D01*
G01X-3674D01*
G01X-3678D01*
G01Y-1533D01*
G01X-3667D01*
G01Y-1544D01*
G01X-3649D01*
G01Y-1533D01*
G01X-3638D01*
G01Y-1515D01*
G01X-3649D01*
G01Y-1504D01*
G37*
G36*
G01X-3667Y-2012D02*
G01X-3667Y-2023D01*
G01X-3678D01*
G01Y-2038D01*
G01X-3674D01*
G01Y-2026D01*
G01X-3663D01*
G01Y-2015D01*
G01X-3652D01*
G01Y-2026D01*
G01X-3641D01*
G01Y-2038D01*
G01X-3652D01*
G01Y-2049D01*
G01X-3663D01*
G01Y-2038D01*
G01X-3674D01*
G01X-3678D01*
G01Y-2041D01*
G01X-3667D01*
G01Y-2052D01*
G01X-3649D01*
G01Y-2041D01*
G01X-3638D01*
G01Y-2023D01*
G01X-3649D01*
G01Y-2012D01*
G37*
G36*
G01X-3667Y-2520D02*
G01X-3667Y-2531D01*
G01X-3678D01*
G01Y-2546D01*
G01X-3674D01*
G01Y-2534D01*
G01X-3663D01*
G01Y-2523D01*
G01X-3652D01*
G01Y-2534D01*
G01X-3641D01*
G01Y-2546D01*
G01X-3652D01*
G01Y-2557D01*
G01X-3663D01*
G01Y-2546D01*
G01X-3674D01*
G01X-3678D01*
G01Y-2549D01*
G01X-3667D01*
G01Y-2560D01*
G01X-3649D01*
G01Y-2549D01*
G01X-3638D01*
G01Y-2531D01*
G01X-3649D01*
G01Y-2520D01*
G37*
G36*
G01X-3667Y-3028D02*
G01X-3667Y-3039D01*
G01X-3678D01*
G01Y-3054D01*
G01X-3674D01*
G01Y-3042D01*
G01X-3663D01*
G01Y-3031D01*
G01X-3652D01*
G01Y-3042D01*
G01X-3641D01*
G01Y-3054D01*
G01X-3652D01*
G01Y-3065D01*
G01X-3663D01*
G01Y-3054D01*
G01X-3674D01*
G01X-3678D01*
G01Y-3057D01*
G01X-3667D01*
G01Y-3068D01*
G01X-3649D01*
G01Y-3057D01*
G01X-3638D01*
G01Y-3039D01*
G01X-3649D01*
G01Y-3028D01*
G37*
G36*
G01X-3667Y-3536D02*
G01X-3667Y-3547D01*
G01X-3678D01*
G01Y-3562D01*
G01X-3674D01*
G01Y-3550D01*
G01X-3663D01*
G01Y-3539D01*
G01X-3652D01*
G01Y-3550D01*
G01X-3641D01*
G01Y-3562D01*
G01X-3652D01*
G01Y-3573D01*
G01X-3663D01*
G01Y-3562D01*
G01X-3674D01*
G01X-3678D01*
G01Y-3565D01*
G01X-3667D01*
G01Y-3576D01*
G01X-3649D01*
G01Y-3565D01*
G01X-3638D01*
G01Y-3547D01*
G01X-3649D01*
G01Y-3536D01*
G37*
G36*
G01X-3667Y-4044D02*
G01X-3667Y-4055D01*
G01X-3678D01*
G01Y-4070D01*
G01X-3674D01*
G01Y-4058D01*
G01X-3663D01*
G01Y-4047D01*
G01X-3652D01*
G01Y-4058D01*
G01X-3641D01*
G01Y-4070D01*
G01X-3652D01*
G01Y-4081D01*
G01X-3663D01*
G01Y-4070D01*
G01X-3674D01*
G01X-3678D01*
G01Y-4073D01*
G01X-3667D01*
G01Y-4084D01*
G01X-3649D01*
G01Y-4073D01*
G01X-3638D01*
G01Y-4055D01*
G01X-3649D01*
G01Y-4044D01*
G37*
G36*
G01X-3997Y-3765D02*
G01X-3997Y-3776D01*
G01X-4008D01*
G01Y-3790D01*
G01X-4004D01*
G01Y-3779D01*
G01X-3994D01*
G01Y-3768D01*
G01X-3982D01*
G01Y-3779D01*
G01X-3971D01*
G01Y-3790D01*
G01X-3982D01*
G01Y-3801D01*
G01X-3994D01*
G01Y-3790D01*
G01X-4004D01*
G01X-4008D01*
G01Y-3794D01*
G01X-3997D01*
G01Y-3805D01*
G01X-3979D01*
G01Y-3794D01*
G01X-3968D01*
G01Y-3776D01*
G01X-3979D01*
G01Y-3765D01*
G37*
G36*
G01X-3997Y-4273D02*
G01X-3997Y-4284D01*
G01X-4008D01*
G01Y-4298D01*
G01X-4004D01*
G01Y-4287D01*
G01X-3994D01*
G01Y-4276D01*
G01X-3982D01*
G01Y-4287D01*
G01X-3971D01*
G01Y-4298D01*
G01X-3982D01*
G01Y-4309D01*
G01X-3994D01*
G01Y-4298D01*
G01X-4004D01*
G01X-4008D01*
G01Y-4302D01*
G01X-3997D01*
G01Y-4313D01*
G01X-3979D01*
G01Y-4302D01*
G01X-3968D01*
G01Y-4284D01*
G01X-3979D01*
G01Y-4273D01*
G37*
G36*
G01X-3997Y-4781D02*
G01X-3997Y-4792D01*
G01X-4008D01*
G01Y-4806D01*
G01X-4004D01*
G01Y-4795D01*
G01X-3994D01*
G01Y-4784D01*
G01X-3982D01*
G01Y-4795D01*
G01X-3971D01*
G01Y-4806D01*
G01X-3982D01*
G01Y-4817D01*
G01X-3994D01*
G01Y-4806D01*
G01X-4004D01*
G01X-4008D01*
G01Y-4810D01*
G01X-3997D01*
G01Y-4821D01*
G01X-3979D01*
G01Y-4810D01*
G01X-3968D01*
G01Y-4792D01*
G01X-3979D01*
G01Y-4781D01*
G37*
G36*
G01X-3997Y-5289D02*
G01X-3997Y-5300D01*
G01X-4008D01*
G01Y-5314D01*
G01X-4004D01*
G01Y-5303D01*
G01X-3994D01*
G01Y-5292D01*
G01X-3982D01*
G01Y-5303D01*
G01X-3971D01*
G01Y-5314D01*
G01X-3982D01*
G01Y-5325D01*
G01X-3994D01*
G01Y-5314D01*
G01X-4004D01*
G01X-4008D01*
G01Y-5318D01*
G01X-3997D01*
G01Y-5329D01*
G01X-3979D01*
G01Y-5318D01*
G01X-3968D01*
G01Y-5300D01*
G01X-3979D01*
G01Y-5289D01*
G37*
G36*
G01X-3997Y-5797D02*
G01X-3997Y-5808D01*
G01X-4008D01*
G01Y-5822D01*
G01X-4004D01*
G01Y-5811D01*
G01X-3994D01*
G01Y-5800D01*
G01X-3982D01*
G01Y-5811D01*
G01X-3971D01*
G01Y-5822D01*
G01X-3982D01*
G01Y-5833D01*
G01X-3994D01*
G01Y-5822D01*
G01X-4004D01*
G01X-4008D01*
G01Y-5826D01*
G01X-3997D01*
G01Y-5837D01*
G01X-3979D01*
G01Y-5826D01*
G01X-3968D01*
G01Y-5808D01*
G01X-3979D01*
G01Y-5797D01*
G37*
G36*
G01X-3997Y-6305D02*
G01X-3997Y-6316D01*
G01X-4008D01*
G01Y-6330D01*
G01X-4004D01*
G01Y-6319D01*
G01X-3994D01*
G01Y-6308D01*
G01X-3982D01*
G01Y-6319D01*
G01X-3971D01*
G01Y-6330D01*
G01X-3982D01*
G01Y-6341D01*
G01X-3994D01*
G01Y-6330D01*
G01X-4004D01*
G01X-4008D01*
G01Y-6334D01*
G01X-3997D01*
G01Y-6345D01*
G01X-3979D01*
G01Y-6334D01*
G01X-3968D01*
G01Y-6316D01*
G01X-3979D01*
G01Y-6305D01*
G37*
G36*
G01X-3997Y-6813D02*
G01X-3997Y-6824D01*
G01X-4008D01*
G01Y-6838D01*
G01X-4004D01*
G01Y-6827D01*
G01X-3994D01*
G01Y-6816D01*
G01X-3982D01*
G01Y-6827D01*
G01X-3971D01*
G01Y-6838D01*
G01X-3982D01*
G01Y-6849D01*
G01X-3994D01*
G01Y-6838D01*
G01X-4004D01*
G01X-4008D01*
G01Y-6842D01*
G01X-3997D01*
G01Y-6853D01*
G01X-3979D01*
G01Y-6842D01*
G01X-3968D01*
G01Y-6824D01*
G01X-3979D01*
G01Y-6813D01*
G37*
G36*
G01X-3997Y-7321D02*
G01X-3997Y-7332D01*
G01X-4008D01*
G01Y-7346D01*
G01X-4004D01*
G01Y-7335D01*
G01X-3994D01*
G01Y-7324D01*
G01X-3982D01*
G01Y-7335D01*
G01X-3971D01*
G01Y-7346D01*
G01X-3982D01*
G01Y-7357D01*
G01X-3994D01*
G01Y-7346D01*
G01X-4004D01*
G01X-4008D01*
G01Y-7350D01*
G01X-3997D01*
G01Y-7361D01*
G01X-3979D01*
G01Y-7350D01*
G01X-3968D01*
G01Y-7332D01*
G01X-3979D01*
G01Y-7321D01*
G37*
G36*
G01X-3997Y-7829D02*
G01X-3997Y-7840D01*
G01X-4008D01*
G01Y-7854D01*
G01X-4004D01*
G01Y-7843D01*
G01X-3994D01*
G01Y-7832D01*
G01X-3982D01*
G01Y-7843D01*
G01X-3971D01*
G01Y-7854D01*
G01X-3982D01*
G01Y-7865D01*
G01X-3994D01*
G01Y-7854D01*
G01X-4004D01*
G01X-4008D01*
G01Y-7858D01*
G01X-3997D01*
G01Y-7869D01*
G01X-3979D01*
G01Y-7858D01*
G01X-3968D01*
G01Y-7840D01*
G01X-3979D01*
G01Y-7829D01*
G37*
G36*
G01X-4505Y-3765D02*
G01X-4505Y-3776D01*
G01X-4516D01*
G01Y-3790D01*
G01X-4512D01*
G01Y-3779D01*
G01X-4502D01*
G01Y-3768D01*
G01X-4490D01*
G01Y-3779D01*
G01X-4479D01*
G01Y-3790D01*
G01X-4490D01*
G01Y-3801D01*
G01X-4502D01*
G01Y-3790D01*
G01X-4512D01*
G01X-4516D01*
G01Y-3794D01*
G01X-4505D01*
G01Y-3805D01*
G01X-4487D01*
G01Y-3794D01*
G01X-4476D01*
G01Y-3776D01*
G01X-4487D01*
G01Y-3765D01*
G37*
G36*
G01X-4505Y-4273D02*
G01X-4505Y-4284D01*
G01X-4516D01*
G01Y-4298D01*
G01X-4512D01*
G01Y-4287D01*
G01X-4502D01*
G01Y-4276D01*
G01X-4490D01*
G01Y-4287D01*
G01X-4479D01*
G01Y-4298D01*
G01X-4490D01*
G01Y-4309D01*
G01X-4502D01*
G01Y-4298D01*
G01X-4512D01*
G01X-4516D01*
G01Y-4302D01*
G01X-4505D01*
G01Y-4313D01*
G01X-4487D01*
G01Y-4302D01*
G01X-4476D01*
G01Y-4284D01*
G01X-4487D01*
G01Y-4273D01*
G37*
G36*
G01X-4505Y-4781D02*
G01X-4505Y-4792D01*
G01X-4516D01*
G01Y-4806D01*
G01X-4512D01*
G01Y-4795D01*
G01X-4502D01*
G01Y-4784D01*
G01X-4490D01*
G01Y-4795D01*
G01X-4479D01*
G01Y-4806D01*
G01X-4490D01*
G01Y-4817D01*
G01X-4502D01*
G01Y-4806D01*
G01X-4512D01*
G01X-4516D01*
G01Y-4810D01*
G01X-4505D01*
G01Y-4821D01*
G01X-4487D01*
G01Y-4810D01*
G01X-4476D01*
G01Y-4792D01*
G01X-4487D01*
G01Y-4781D01*
G37*
G36*
G01X-4505Y-5289D02*
G01X-4505Y-5300D01*
G01X-4516D01*
G01Y-5314D01*
G01X-4512D01*
G01Y-5303D01*
G01X-4502D01*
G01Y-5292D01*
G01X-4490D01*
G01Y-5303D01*
G01X-4479D01*
G01Y-5314D01*
G01X-4490D01*
G01Y-5325D01*
G01X-4502D01*
G01Y-5314D01*
G01X-4512D01*
G01X-4516D01*
G01Y-5318D01*
G01X-4505D01*
G01Y-5329D01*
G01X-4487D01*
G01Y-5318D01*
G01X-4476D01*
G01Y-5300D01*
G01X-4487D01*
G01Y-5289D01*
G37*
G36*
G01X-4505Y-5797D02*
G01X-4505Y-5808D01*
G01X-4516D01*
G01Y-5822D01*
G01X-4512D01*
G01Y-5811D01*
G01X-4502D01*
G01Y-5800D01*
G01X-4490D01*
G01Y-5811D01*
G01X-4479D01*
G01Y-5822D01*
G01X-4490D01*
G01Y-5833D01*
G01X-4502D01*
G01Y-5822D01*
G01X-4512D01*
G01X-4516D01*
G01Y-5826D01*
G01X-4505D01*
G01Y-5837D01*
G01X-4487D01*
G01Y-5826D01*
G01X-4476D01*
G01Y-5808D01*
G01X-4487D01*
G01Y-5797D01*
G37*
G36*
G01X-4505Y-6813D02*
G01X-4505Y-6824D01*
G01X-4516D01*
G01Y-6838D01*
G01X-4512D01*
G01Y-6827D01*
G01X-4502D01*
G01Y-6816D01*
G01X-4490D01*
G01Y-6827D01*
G01X-4479D01*
G01Y-6838D01*
G01X-4490D01*
G01Y-6849D01*
G01X-4502D01*
G01Y-6838D01*
G01X-4512D01*
G01X-4516D01*
G01Y-6842D01*
G01X-4505D01*
G01Y-6853D01*
G01X-4487D01*
G01Y-6842D01*
G01X-4476D01*
G01Y-6824D01*
G01X-4487D01*
G01Y-6813D01*
G37*
G36*
G01X-4505Y-7321D02*
G01X-4505Y-7332D01*
G01X-4516D01*
G01Y-7346D01*
G01X-4512D01*
G01Y-7335D01*
G01X-4502D01*
G01Y-7324D01*
G01X-4490D01*
G01Y-7335D01*
G01X-4479D01*
G01Y-7346D01*
G01X-4490D01*
G01Y-7357D01*
G01X-4502D01*
G01Y-7346D01*
G01X-4512D01*
G01X-4516D01*
G01Y-7350D01*
G01X-4505D01*
G01Y-7361D01*
G01X-4487D01*
G01Y-7350D01*
G01X-4476D01*
G01Y-7332D01*
G01X-4487D01*
G01Y-7321D01*
G37*
G36*
G01X-4505Y-7829D02*
G01X-4505Y-7840D01*
G01X-4516D01*
G01Y-7854D01*
G01X-4512D01*
G01Y-7843D01*
G01X-4502D01*
G01Y-7832D01*
G01X-4490D01*
G01Y-7843D01*
G01X-4479D01*
G01Y-7854D01*
G01X-4490D01*
G01Y-7865D01*
G01X-4502D01*
G01Y-7854D01*
G01X-4512D01*
G01X-4516D01*
G01Y-7858D01*
G01X-4505D01*
G01Y-7869D01*
G01X-4487D01*
G01Y-7858D01*
G01X-4476D01*
G01Y-7840D01*
G01X-4487D01*
G01Y-7829D01*
G37*
G36*
G01X-4505Y-8337D02*
G01X-4505Y-8348D01*
G01X-4516D01*
G01Y-8362D01*
G01X-4512D01*
G01Y-8351D01*
G01X-4502D01*
G01Y-8340D01*
G01X-4490D01*
G01Y-8351D01*
G01X-4479D01*
G01Y-8362D01*
G01X-4490D01*
G01Y-8373D01*
G01X-4502D01*
G01Y-8362D01*
G01X-4512D01*
G01X-4516D01*
G01Y-8366D01*
G01X-4505D01*
G01Y-8377D01*
G01X-4487D01*
G01Y-8366D01*
G01X-4476D01*
G01Y-8348D01*
G01X-4487D01*
G01Y-8337D01*
G37*
G36*
G01X-5013Y-3765D02*
G01X-5013Y-3776D01*
G01X-5024D01*
G01Y-3790D01*
G01X-5020D01*
G01Y-3779D01*
G01X-5010D01*
G01Y-3768D01*
G01X-4998D01*
G01Y-3779D01*
G01X-4987D01*
G01Y-3790D01*
G01X-4998D01*
G01Y-3801D01*
G01X-5010D01*
G01Y-3790D01*
G01X-5020D01*
G01X-5024D01*
G01Y-3794D01*
G01X-5013D01*
G01Y-3805D01*
G01X-4995D01*
G01Y-3794D01*
G01X-4984D01*
G01Y-3776D01*
G01X-4995D01*
G01Y-3765D01*
G37*
G36*
G01X-5013Y-4273D02*
G01X-5013Y-4284D01*
G01X-5024D01*
G01Y-4298D01*
G01X-5020D01*
G01Y-4287D01*
G01X-5010D01*
G01Y-4276D01*
G01X-4998D01*
G01Y-4287D01*
G01X-4987D01*
G01Y-4298D01*
G01X-4998D01*
G01Y-4309D01*
G01X-5010D01*
G01Y-4298D01*
G01X-5020D01*
G01X-5024D01*
G01Y-4302D01*
G01X-5013D01*
G01Y-4313D01*
G01X-4995D01*
G01Y-4302D01*
G01X-4984D01*
G01Y-4284D01*
G01X-4995D01*
G01Y-4273D01*
G37*
G36*
G01X-5013Y-4781D02*
G01X-5013Y-4792D01*
G01X-5024D01*
G01Y-4806D01*
G01X-5020D01*
G01Y-4795D01*
G01X-5010D01*
G01Y-4784D01*
G01X-4998D01*
G01Y-4795D01*
G01X-4987D01*
G01Y-4806D01*
G01X-4998D01*
G01Y-4817D01*
G01X-5010D01*
G01Y-4806D01*
G01X-5020D01*
G01X-5024D01*
G01Y-4810D01*
G01X-5013D01*
G01Y-4821D01*
G01X-4995D01*
G01Y-4810D01*
G01X-4984D01*
G01Y-4792D01*
G01X-4995D01*
G01Y-4781D01*
G37*
G36*
G01X-5013Y-5289D02*
G01X-5013Y-5300D01*
G01X-5024D01*
G01Y-5314D01*
G01X-5020D01*
G01Y-5303D01*
G01X-5010D01*
G01Y-5292D01*
G01X-4998D01*
G01Y-5303D01*
G01X-4987D01*
G01Y-5314D01*
G01X-4998D01*
G01Y-5325D01*
G01X-5010D01*
G01Y-5314D01*
G01X-5020D01*
G01X-5024D01*
G01Y-5318D01*
G01X-5013D01*
G01Y-5329D01*
G01X-4995D01*
G01Y-5318D01*
G01X-4984D01*
G01Y-5300D01*
G01X-4995D01*
G01Y-5289D01*
G37*
G36*
G01X-5013Y-5797D02*
G01X-5013Y-5808D01*
G01X-5024D01*
G01Y-5822D01*
G01X-5020D01*
G01Y-5811D01*
G01X-5010D01*
G01Y-5800D01*
G01X-4998D01*
G01Y-5811D01*
G01X-4987D01*
G01Y-5822D01*
G01X-4998D01*
G01Y-5833D01*
G01X-5010D01*
G01Y-5822D01*
G01X-5020D01*
G01X-5024D01*
G01Y-5826D01*
G01X-5013D01*
G01Y-5837D01*
G01X-4995D01*
G01Y-5826D01*
G01X-4984D01*
G01Y-5808D01*
G01X-4995D01*
G01Y-5797D01*
G37*
G36*
G01X-5013Y-6813D02*
G01X-5013Y-6824D01*
G01X-5024D01*
G01Y-6838D01*
G01X-5020D01*
G01Y-6827D01*
G01X-5010D01*
G01Y-6816D01*
G01X-4998D01*
G01Y-6827D01*
G01X-4987D01*
G01Y-6838D01*
G01X-4998D01*
G01Y-6849D01*
G01X-5010D01*
G01Y-6838D01*
G01X-5020D01*
G01X-5024D01*
G01Y-6842D01*
G01X-5013D01*
G01Y-6853D01*
G01X-4995D01*
G01Y-6842D01*
G01X-4984D01*
G01Y-6824D01*
G01X-4995D01*
G01Y-6813D01*
G37*
G36*
G01X-5013Y-7321D02*
G01X-5013Y-7332D01*
G01X-5024D01*
G01Y-7346D01*
G01X-5020D01*
G01Y-7335D01*
G01X-5010D01*
G01Y-7324D01*
G01X-4998D01*
G01Y-7335D01*
G01X-4987D01*
G01Y-7346D01*
G01X-4998D01*
G01Y-7357D01*
G01X-5010D01*
G01Y-7346D01*
G01X-5020D01*
G01X-5024D01*
G01Y-7350D01*
G01X-5013D01*
G01Y-7361D01*
G01X-4995D01*
G01Y-7350D01*
G01X-4984D01*
G01Y-7332D01*
G01X-4995D01*
G01Y-7321D01*
G37*
G36*
G01X-5013Y-7829D02*
G01X-5013Y-7840D01*
G01X-5024D01*
G01Y-7854D01*
G01X-5020D01*
G01Y-7843D01*
G01X-5010D01*
G01Y-7832D01*
G01X-4998D01*
G01Y-7843D01*
G01X-4987D01*
G01Y-7854D01*
G01X-4998D01*
G01Y-7865D01*
G01X-5010D01*
G01Y-7854D01*
G01X-5020D01*
G01X-5024D01*
G01Y-7858D01*
G01X-5013D01*
G01Y-7869D01*
G01X-4995D01*
G01Y-7858D01*
G01X-4984D01*
G01Y-7840D01*
G01X-4995D01*
G01Y-7829D01*
G37*
G36*
G01X-5013Y-8337D02*
G01X-5013Y-8348D01*
G01X-5024D01*
G01Y-8362D01*
G01X-5020D01*
G01Y-8351D01*
G01X-5010D01*
G01Y-8340D01*
G01X-4998D01*
G01Y-8351D01*
G01X-4987D01*
G01Y-8362D01*
G01X-4998D01*
G01Y-8373D01*
G01X-5010D01*
G01Y-8362D01*
G01X-5020D01*
G01X-5024D01*
G01Y-8366D01*
G01X-5013D01*
G01Y-8377D01*
G01X-4995D01*
G01Y-8366D01*
G01X-4984D01*
G01Y-8348D01*
G01X-4995D01*
G01Y-8337D01*
G37*
G36*
G01X-5521Y-3765D02*
G01X-5521Y-3776D01*
G01X-5532D01*
G01Y-3790D01*
G01X-5528D01*
G01Y-3779D01*
G01X-5518D01*
G01Y-3768D01*
G01X-5506D01*
G01Y-3779D01*
G01X-5495D01*
G01Y-3790D01*
G01X-5506D01*
G01Y-3801D01*
G01X-5518D01*
G01Y-3790D01*
G01X-5528D01*
G01X-5532D01*
G01Y-3794D01*
G01X-5521D01*
G01Y-3805D01*
G01X-5503D01*
G01Y-3794D01*
G01X-5492D01*
G01Y-3776D01*
G01X-5503D01*
G01Y-3765D01*
G37*
G36*
G01X-5521Y-4273D02*
G01X-5521Y-4284D01*
G01X-5532D01*
G01Y-4298D01*
G01X-5528D01*
G01Y-4287D01*
G01X-5518D01*
G01Y-4276D01*
G01X-5506D01*
G01Y-4287D01*
G01X-5495D01*
G01Y-4298D01*
G01X-5506D01*
G01Y-4309D01*
G01X-5518D01*
G01Y-4298D01*
G01X-5528D01*
G01X-5532D01*
G01Y-4302D01*
G01X-5521D01*
G01Y-4313D01*
G01X-5503D01*
G01Y-4302D01*
G01X-5492D01*
G01Y-4284D01*
G01X-5503D01*
G01Y-4273D01*
G37*
G36*
G01X-5521Y-4781D02*
G01X-5521Y-4792D01*
G01X-5532D01*
G01Y-4806D01*
G01X-5528D01*
G01Y-4795D01*
G01X-5518D01*
G01Y-4784D01*
G01X-5506D01*
G01Y-4795D01*
G01X-5495D01*
G01Y-4806D01*
G01X-5506D01*
G01Y-4817D01*
G01X-5518D01*
G01Y-4806D01*
G01X-5528D01*
G01X-5532D01*
G01Y-4810D01*
G01X-5521D01*
G01Y-4821D01*
G01X-5503D01*
G01Y-4810D01*
G01X-5492D01*
G01Y-4792D01*
G01X-5503D01*
G01Y-4781D01*
G37*
G36*
G01X-5521Y-5289D02*
G01X-5521Y-5300D01*
G01X-5532D01*
G01Y-5314D01*
G01X-5528D01*
G01Y-5303D01*
G01X-5518D01*
G01Y-5292D01*
G01X-5506D01*
G01Y-5303D01*
G01X-5495D01*
G01Y-5314D01*
G01X-5506D01*
G01Y-5325D01*
G01X-5518D01*
G01Y-5314D01*
G01X-5528D01*
G01X-5532D01*
G01Y-5318D01*
G01X-5521D01*
G01Y-5329D01*
G01X-5503D01*
G01Y-5318D01*
G01X-5492D01*
G01Y-5300D01*
G01X-5503D01*
G01Y-5289D01*
G37*
G36*
G01X-5521Y-5797D02*
G01X-5521Y-5808D01*
G01X-5532D01*
G01Y-5822D01*
G01X-5528D01*
G01Y-5811D01*
G01X-5518D01*
G01Y-5800D01*
G01X-5506D01*
G01Y-5811D01*
G01X-5495D01*
G01Y-5822D01*
G01X-5506D01*
G01Y-5833D01*
G01X-5518D01*
G01Y-5822D01*
G01X-5528D01*
G01X-5532D01*
G01Y-5826D01*
G01X-5521D01*
G01Y-5837D01*
G01X-5503D01*
G01Y-5826D01*
G01X-5492D01*
G01Y-5808D01*
G01X-5503D01*
G01Y-5797D01*
G37*
G36*
G01X-5521Y-6305D02*
G01X-5521Y-6316D01*
G01X-5532D01*
G01Y-6330D01*
G01X-5528D01*
G01Y-6319D01*
G01X-5518D01*
G01Y-6308D01*
G01X-5506D01*
G01Y-6319D01*
G01X-5495D01*
G01Y-6330D01*
G01X-5506D01*
G01Y-6341D01*
G01X-5518D01*
G01Y-6330D01*
G01X-5528D01*
G01X-5532D01*
G01Y-6334D01*
G01X-5521D01*
G01Y-6345D01*
G01X-5503D01*
G01Y-6334D01*
G01X-5492D01*
G01Y-6316D01*
G01X-5503D01*
G01Y-6305D01*
G37*
G36*
G01X-5521Y-6813D02*
G01X-5521Y-6824D01*
G01X-5532D01*
G01Y-6838D01*
G01X-5528D01*
G01Y-6827D01*
G01X-5518D01*
G01Y-6816D01*
G01X-5506D01*
G01Y-6827D01*
G01X-5495D01*
G01Y-6838D01*
G01X-5506D01*
G01Y-6849D01*
G01X-5518D01*
G01Y-6838D01*
G01X-5528D01*
G01X-5532D01*
G01Y-6842D01*
G01X-5521D01*
G01Y-6853D01*
G01X-5503D01*
G01Y-6842D01*
G01X-5492D01*
G01Y-6824D01*
G01X-5503D01*
G01Y-6813D01*
G37*
G36*
G01X-5521Y-7321D02*
G01X-5521Y-7332D01*
G01X-5532D01*
G01Y-7346D01*
G01X-5528D01*
G01Y-7335D01*
G01X-5518D01*
G01Y-7324D01*
G01X-5506D01*
G01Y-7335D01*
G01X-5495D01*
G01Y-7346D01*
G01X-5506D01*
G01Y-7357D01*
G01X-5518D01*
G01Y-7346D01*
G01X-5528D01*
G01X-5532D01*
G01Y-7350D01*
G01X-5521D01*
G01Y-7361D01*
G01X-5503D01*
G01Y-7350D01*
G01X-5492D01*
G01Y-7332D01*
G01X-5503D01*
G01Y-7321D01*
G37*
G36*
G01X-5521Y-7829D02*
G01X-5521Y-7840D01*
G01X-5532D01*
G01Y-7854D01*
G01X-5528D01*
G01Y-7843D01*
G01X-5518D01*
G01Y-7832D01*
G01X-5506D01*
G01Y-7843D01*
G01X-5495D01*
G01Y-7854D01*
G01X-5506D01*
G01Y-7865D01*
G01X-5518D01*
G01Y-7854D01*
G01X-5528D01*
G01X-5532D01*
G01Y-7858D01*
G01X-5521D01*
G01Y-7869D01*
G01X-5503D01*
G01Y-7858D01*
G01X-5492D01*
G01Y-7840D01*
G01X-5503D01*
G01Y-7829D01*
G37*
G36*
G01X-3667Y-1326D02*
G01X-3667Y-1337D01*
G01X-3678D01*
G01Y-1352D01*
G01X-3674D01*
G01Y-1340D01*
G01X-3663D01*
G01Y-1330D01*
G01X-3652D01*
G01Y-1340D01*
G01X-3641D01*
G01Y-1352D01*
G01X-3652D01*
G01Y-1363D01*
G01X-3663D01*
G01Y-1352D01*
G01X-3674D01*
G01X-3678D01*
G01Y-1355D01*
G01X-3667D01*
G01Y-1366D01*
G01X-3649D01*
G01Y-1355D01*
G01X-3638D01*
G01Y-1337D01*
G01X-3649D01*
G01Y-1326D01*
G37*
G36*
G01X-3667Y-1834D02*
G01X-3667Y-1845D01*
G01X-3678D01*
G01Y-1860D01*
G01X-3674D01*
G01Y-1848D01*
G01X-3663D01*
G01Y-1838D01*
G01X-3652D01*
G01Y-1848D01*
G01X-3641D01*
G01Y-1860D01*
G01X-3652D01*
G01Y-1871D01*
G01X-3663D01*
G01Y-1860D01*
G01X-3674D01*
G01X-3678D01*
G01Y-1863D01*
G01X-3667D01*
G01Y-1874D01*
G01X-3649D01*
G01Y-1863D01*
G01X-3638D01*
G01Y-1845D01*
G01X-3649D01*
G01Y-1834D01*
G37*
G36*
G01X-3667Y-2850D02*
G01X-3667Y-2861D01*
G01X-3678D01*
G01Y-2876D01*
G01X-3674D01*
G01Y-2864D01*
G01X-3663D01*
G01Y-2854D01*
G01X-3652D01*
G01Y-2864D01*
G01X-3641D01*
G01Y-2876D01*
G01X-3652D01*
G01Y-2887D01*
G01X-3663D01*
G01Y-2876D01*
G01X-3674D01*
G01X-3678D01*
G01Y-2879D01*
G01X-3667D01*
G01Y-2890D01*
G01X-3649D01*
G01Y-2879D01*
G01X-3638D01*
G01Y-2861D01*
G01X-3649D01*
G01Y-2850D01*
G37*
G36*
G01X-3667Y-3358D02*
G01X-3667Y-3369D01*
G01X-3678D01*
G01Y-3384D01*
G01X-3674D01*
G01Y-3372D01*
G01X-3663D01*
G01Y-3362D01*
G01X-3652D01*
G01Y-3372D01*
G01X-3641D01*
G01Y-3384D01*
G01X-3652D01*
G01Y-3395D01*
G01X-3663D01*
G01Y-3384D01*
G01X-3674D01*
G01X-3678D01*
G01Y-3387D01*
G01X-3667D01*
G01Y-3398D01*
G01X-3649D01*
G01Y-3387D01*
G01X-3638D01*
G01Y-3369D01*
G01X-3649D01*
G01Y-3358D01*
G37*
G36*
G01X-3667Y-3866D02*
G01X-3667Y-3877D01*
G01X-3678D01*
G01Y-3892D01*
G01X-3674D01*
G01Y-3880D01*
G01X-3663D01*
G01Y-3870D01*
G01X-3652D01*
G01Y-3880D01*
G01X-3641D01*
G01Y-3892D01*
G01X-3652D01*
G01Y-3903D01*
G01X-3663D01*
G01Y-3892D01*
G01X-3674D01*
G01X-3678D01*
G01Y-3895D01*
G01X-3667D01*
G01Y-3906D01*
G01X-3649D01*
G01Y-3895D01*
G01X-3638D01*
G01Y-3877D01*
G01X-3649D01*
G01Y-3866D01*
G37*
G04 Image End*
G54D10*

M02*
