G04 Layer: BottomPasteMaskLayer*
G04 EasyEDA Pro v1.6.32, 2022-10-17 22:27:42*
G04 Gerber Generator version 0.3*
G04 Scale: 100 percent, Rotated: No, Reflected: No*
G04 Dimensions in millimeters*
G04 Leading zeros omitted, absolute positions, 4 integers and 2 decimals*
G04 Panelize: V-CUT, Column: 1, Row: 1, Board Size: 99.693mm x 90.043mm, Panelized Board Size: 99.693mm x 95.438mm, Panelized Method: Only Board Outline*
%FSLAX42Y42*%
%MOMM*%
%ADD10C,1.000001*%
%ADD11C,0.00508*%
G75*


G04 Panelize Start*
G54D10*
G01X-4639Y-130D03*
G01X3330Y-130D03*
G01X-4139Y-8874D03*
G01X2830Y-8874D03*
G04 Panelize End*

G04 PolygonModel Start*
G36*
G01X3993Y-2795D02*
G03X3993Y-2695I0J50D01*
G01X3923D01*
G03Y-2795I0J-50D01*
G01X3993D01*
G37*
G54D11*
G01X3993Y-2795D02*
G03X3993Y-2695I0J50D01*
G01X3923D01*
G03Y-2795I0J-50D01*
G01X3993D01*
G36*
G01X3646Y-2795D02*
G03X3646Y-2695I0J50D01*
G01X3576D01*
G03Y-2795I0J-50D01*
G01X3646D01*
G37*
G01X3646Y-2795D02*
G03X3646Y-2695I0J50D01*
G01X3576D01*
G03Y-2795I0J-50D01*
G01X3646D01*
G36*
G01X3646Y-2080D02*
G03X3646Y-1980I0J50D01*
G01X3576D01*
G03Y-2080I0J-50D01*
G01X3646D01*
G37*
G01X3646Y-2080D02*
G03X3646Y-1980I0J50D01*
G01X3576D01*
G03Y-2080I0J-50D01*
G01X3646D01*
G36*
G01X3993Y-2080D02*
G03X3993Y-1980I0J50D01*
G01X3923D01*
G03Y-2080I0J-50D01*
G01X3993D01*
G37*
G01X3993Y-2080D02*
G03X3993Y-1980I0J50D01*
G01X3923D01*
G03Y-2080I0J-50D01*
G01X3993D01*
G36*
G01X3547Y-2498D02*
G01X3547Y-2538D01*
G01X3761D01*
G01Y-2498D01*
G01X3547D01*
G37*
G01X3547Y-2498D02*
G01X3547Y-2538D01*
G01X3761D01*
G01Y-2498D01*
G01X3547D01*
G36*
G01X3547Y-2433D02*
G01X3547Y-2473D01*
G01X3761D01*
G01Y-2433D01*
G01X3547D01*
G37*
G01X3547Y-2433D02*
G01X3547Y-2473D01*
G01X3761D01*
G01Y-2433D01*
G01X3547D01*
G36*
G01X3547Y-2368D02*
G01X3547Y-2408D01*
G01X3761D01*
G01Y-2368D01*
G01X3547D01*
G37*
G01X3547Y-2368D02*
G01X3547Y-2408D01*
G01X3761D01*
G01Y-2368D01*
G01X3547D01*
G36*
G01X3547Y-2303D02*
G01X3547Y-2343D01*
G01X3761D01*
G01Y-2303D01*
G01X3547D01*
G37*
G01X3547Y-2303D02*
G01X3547Y-2343D01*
G01X3761D01*
G01Y-2303D01*
G01X3547D01*
G36*
G01X3547Y-2237D02*
G01X3547Y-2278D01*
G01X3761D01*
G01Y-2237D01*
G01X3547D01*
G37*
G01X3547Y-2237D02*
G01X3547Y-2278D01*
G01X3761D01*
G01Y-2237D01*
G01X3547D01*
G36*
G01X940Y-7161D02*
G01X977Y-7161D01*
G01X987Y-7151D01*
G01Y-7120D01*
G01X997Y-7110D01*
G01X1035D01*
G01X1045Y-7120D01*
G01Y-7151D01*
G01X1055Y-7161D01*
G01X1092D01*
G01X1102Y-7151D01*
G01Y-7022D01*
G01X1092Y-7012D01*
G01X940D01*
G01X930Y-7022D01*
G01Y-7151D01*
G01X940Y-7161D01*
G37*
G01X940Y-7161D02*
G01X977Y-7161D01*
G01X987Y-7151D01*
G01Y-7120D01*
G01X997Y-7110D01*
G01X1035D01*
G01X1045Y-7120D01*
G01Y-7151D01*
G01X1055Y-7161D01*
G01X1092D01*
G01X1102Y-7151D01*
G01Y-7022D01*
G01X1092Y-7012D01*
G01X940D01*
G01X930Y-7022D01*
G01Y-7151D01*
G01X940Y-7161D01*
G36*
G01X940Y-7331D02*
G01X977Y-7331D01*
G01X987Y-7341D01*
G01Y-7371D01*
G01X997Y-7381D01*
G01X1035D01*
G01X1045Y-7371D01*
G01Y-7341D01*
G01X1055Y-7331D01*
G01X1092D01*
G01X1102Y-7341D01*
G01Y-7469D01*
G01X1092Y-7479D01*
G01X940D01*
G01X930Y-7469D01*
G01Y-7341D01*
G01X940Y-7331D01*
G37*
G01X940Y-7331D02*
G01X977Y-7331D01*
G01X987Y-7341D01*
G01Y-7371D01*
G01X997Y-7381D01*
G01X1035D01*
G01X1045Y-7371D01*
G01Y-7341D01*
G01X1055Y-7331D01*
G01X1092D01*
G01X1102Y-7341D01*
G01Y-7469D01*
G01X1092Y-7479D01*
G01X940D01*
G01X930Y-7469D01*
G01Y-7341D01*
G01X940Y-7331D01*
G04 PolygonModel End*

G04 Pad Start*
G04 Pad End*

M02*
