G04 Layer: MechanicalLayer*
G04 EasyEDA Pro v1.6.32, 2022-10-17 22:27:42*
G04 Gerber Generator version 0.3*
G04 Scale: 100 percent, Rotated: No, Reflected: No*
G04 Dimensions in millimeters*
G04 Leading zeros omitted, absolute positions, 4 integers and 2 decimals*
G04 Panelize: V-CUT, Column: 1, Row: 1, Board Size: 99.693mm x 90.043mm, Panelized Board Size: 99.693mm x 95.438mm, Panelized Method: Only Board Outline*
%FSLAX42Y42*%
%MOMM*%
%ADD10C,0.1524*%
%ADD11C,0.254*%
G75*


G04 Panelize Start*
G54D10*
G01X4897Y-8637D02*
G01X4922Y-8702D01*
G01X4946Y-8637D02*
G01X4922Y-8702D01*
G01X4976Y-8674D02*
G01X5032Y-8674D01*
G01X5108Y-8653D02*
G01X5105Y-8646D01*
G01X5099Y-8640D01*
G01X5093Y-8637D01*
G01X5081D01*
G01X5074Y-8640D01*
G01X5068Y-8646D01*
G01X5065Y-8653D01*
G01X5062Y-8662D01*
G01Y-8677D01*
G01X5065Y-8687D01*
G01X5068Y-8693D01*
G01X5074Y-8699D01*
G01X5081Y-8702D01*
G01X5093D01*
G01X5099Y-8699D01*
G01X5105Y-8693D01*
G01X5108Y-8687D01*
G01X5139Y-8637D02*
G01X5139Y-8683D01*
G01X5142Y-8693D01*
G01X5148Y-8699D01*
G01X5157Y-8702D01*
G01X5163D01*
G01X5173Y-8699D01*
G01X5179Y-8693D01*
G01X5182Y-8683D01*
G01Y-8637D01*
G01X5234Y-8637D02*
G01X5234Y-8702D01*
G01X5212Y-8637D02*
G01X5255Y-8637D01*
G54D11*
G01X4381Y-8674D02*
G01X4838Y-8674D01*
G01X4381Y-8674D02*
G01X4432Y-8623D01*
G01X4381Y-8674D02*
G01X4432Y-8725D01*
G54D10*
G01X4897Y-293D02*
G01X4922Y-358D01*
G01X4946Y-293D02*
G01X4922Y-358D01*
G01X4976Y-330D02*
G01X5032Y-330D01*
G01X5108Y-309D02*
G01X5105Y-302D01*
G01X5099Y-296D01*
G01X5093Y-293D01*
G01X5081D01*
G01X5074Y-296D01*
G01X5068Y-302D01*
G01X5065Y-309D01*
G01X5062Y-318D01*
G01Y-333D01*
G01X5065Y-343D01*
G01X5068Y-349D01*
G01X5074Y-355D01*
G01X5081Y-358D01*
G01X5093D01*
G01X5099Y-355D01*
G01X5105Y-349D01*
G01X5108Y-343D01*
G01X5139Y-293D02*
G01X5139Y-340D01*
G01X5142Y-349D01*
G01X5148Y-355D01*
G01X5157Y-358D01*
G01X5163D01*
G01X5173Y-355D01*
G01X5179Y-349D01*
G01X5182Y-340D01*
G01Y-293D01*
G01X5234Y-293D02*
G01X5234Y-358D01*
G01X5212Y-293D02*
G01X5255Y-293D01*
G54D11*
G01X4381Y-330D02*
G01X4838Y-330D01*
G01X4381Y-330D02*
G01X4432Y-279D01*
G01X4381Y-330D02*
G01X4432Y-381D01*
G04 Panelize End*

G04 Text Start*
G04 //text: V-CUT*
G54D10*
G01X4897Y-8637D02*
G01X4922Y-8702D01*
G01X4946Y-8637D02*
G01X4922Y-8702D01*
G01X4976Y-8674D02*
G01X5032Y-8674D01*
G01X5108Y-8653D02*
G01X5105Y-8646D01*
G01X5099Y-8640D01*
G01X5093Y-8637D01*
G01X5081D01*
G01X5074Y-8640D01*
G01X5068Y-8646D01*
G01X5065Y-8653D01*
G01X5062Y-8662D01*
G01Y-8677D01*
G01X5065Y-8687D01*
G01X5068Y-8693D01*
G01X5074Y-8699D01*
G01X5081Y-8702D01*
G01X5093D01*
G01X5099Y-8699D01*
G01X5105Y-8693D01*
G01X5108Y-8687D01*
G01X5139Y-8637D02*
G01X5139Y-8683D01*
G01X5142Y-8693D01*
G01X5148Y-8699D01*
G01X5157Y-8702D01*
G01X5163D01*
G01X5173Y-8699D01*
G01X5179Y-8693D01*
G01X5182Y-8683D01*
G01Y-8637D01*
G01X5234Y-8637D02*
G01X5234Y-8702D01*
G01X5212Y-8637D02*
G01X5255Y-8637D01*
G04 //text: V-CUT*
G01X4897Y-293D02*
G01X4922Y-358D01*
G01X4946Y-293D02*
G01X4922Y-358D01*
G01X4976Y-330D02*
G01X5032Y-330D01*
G01X5108Y-309D02*
G01X5105Y-302D01*
G01X5099Y-296D01*
G01X5093Y-293D01*
G01X5081D01*
G01X5074Y-296D01*
G01X5068Y-302D01*
G01X5065Y-309D01*
G01X5062Y-318D01*
G01Y-333D01*
G01X5065Y-343D01*
G01X5068Y-349D01*
G01X5074Y-355D01*
G01X5081Y-358D01*
G01X5093D01*
G01X5099Y-355D01*
G01X5105Y-349D01*
G01X5108Y-343D01*
G01X5139Y-293D02*
G01X5139Y-340D01*
G01X5142Y-349D01*
G01X5148Y-355D01*
G01X5157Y-358D01*
G01X5163D01*
G01X5173Y-355D01*
G01X5179Y-349D01*
G01X5182Y-340D01*
G01Y-293D01*
G01X5234Y-293D02*
G01X5234Y-358D01*
G01X5212Y-293D02*
G01X5255Y-293D01*
G04 Text End*

M02*
