G04 Layer: BottomLayer*
G04 EasyEDA Pro v1.6.32, 2022-10-17 22:27:42*
G04 Gerber Generator version 0.3*
G04 Scale: 100 percent, Rotated: No, Reflected: No*
G04 Dimensions in millimeters*
G04 Leading zeros omitted, absolute positions, 4 integers and 2 decimals*
G04 Panelize: V-CUT, Column: 1, Row: 1, Board Size: 99.693mm x 90.043mm, Panelized Board Size: 99.693mm x 95.438mm, Panelized Method: Only Board Outline*
%FSLAX42Y42*%
%MOMM*%
%ADD10C,1.000001*%
%ADD999C,0.2032*%
%ADD11C,0.254*%
%ADD12O,1.69926X1.00076*%
%ADD13C,1.399997*%
%ADD14C,1.524*%
%ADD15C,0.610001*%
%ADD16C,0.619999*%
%ADD17C,1.849984*%
%ADD18C,0.800001*%
%ADD19C,0.499999*%
%ADD20C,0.599999*%
%ADD21C,0.700001*%
G75*


G04 Panelize Start*
G54D10*
G01X-4639Y-130D03*
G01X3330Y-130D03*
G01X-4139Y-8874D03*
G01X2830Y-8874D03*
G04 Panelize End*

G04 Copper Start*
G36*
G01X-5603Y-8638D02*
G01X-5595Y-3388D01*
G01X-3147D01*
G01Y-7585D01*
G01X-3696Y-7584D01*
G03X-3732Y-7620I0J-36D01*
G01Y-8357D01*
G03X-3873Y-8272I-142J-76D01*
G03X-4034Y-8433I0J-161D01*
G03X-3873Y-8594I161J0D01*
G03X-3732Y-8508I0J161D01*
G01Y-8638D01*
G01X-5603D01*
G37*
%LPC*%
G36*
G01X-5410Y-8594D02*
G03X-5249Y-8433I0J161D01*
G03X-5410Y-8272I-161J0D01*
G03X-5571Y-8433I0J-161D01*
G03X-5410Y-8594I161J0D01*
G37*
%LPD*%
G36*
G01X853Y-1307D02*
G01X853Y-7591D01*
G01X-3635Y-7584D01*
G01Y-1293D01*
G01X853Y-1307D01*
G37*
%LPC*%
G36*
G01X-3628Y-7417D02*
G03X-3492Y-7553I136J0D01*
G03X-3357Y-7417I0J136D01*
G03X-3492Y-7281I-136J0D01*
G03X-3628Y-7417I0J-136D01*
G37*
%LPD*%
G36*
G01X417Y-3228D02*
G01X417Y-2498D01*
G01X3511D01*
G01Y-2538D01*
G03X3547Y-2573I36J0D01*
G01X3679D01*
G03X3677Y-2587I64J-14D01*
G03X3743Y-2653I66J0D01*
G03X3809Y-2587I0J66D01*
G03X3796Y-2548I-66J0D01*
G03X3797Y-2538I-34J10D01*
G01Y-2498D01*
G01X3893D01*
G01Y-2665D01*
G03X3837Y-2745I31J-80D01*
G03X3893Y-2825I86J0D01*
G01Y-3228D01*
G01X417D01*
G37*
%LPC*%
G36*
G01X3490Y-2745D02*
G03X3576Y-2831I86J0D01*
G01X3646D01*
G03X3732Y-2745I0J86D01*
G03X3646Y-2659I-86J0D01*
G01X3576D01*
G03X3490Y-2745I0J-86D01*
G37*
%LPD*%
G54D999*
G01X-5603Y-8638D02*
G01X-5595Y-3388D01*
G01X-3147D01*
G01Y-7585D01*
G01X-3696Y-7584D01*
G03X-3732Y-7620I0J-36D01*
G01Y-8357D01*
G03X-3873Y-8272I-142J-76D01*
G03X-4034Y-8433I0J-161D01*
G03X-3873Y-8594I161J0D01*
G03X-3732Y-8508I0J161D01*
G01Y-8638D01*
G01X-5603D01*
G01X-5410Y-8594D02*
G03X-5249Y-8433I0J161D01*
G03X-5410Y-8272I-161J0D01*
G03X-5571Y-8433I0J-161D01*
G03X-5410Y-8594I161J0D01*
G01X853Y-1307D02*
G01X853Y-7591D01*
G01X-3635Y-7584D01*
G01Y-1293D01*
G01X853Y-1307D01*
G01X-3628Y-7417D02*
G03X-3492Y-7553I136J0D01*
G03X-3357Y-7417I0J136D01*
G03X-3492Y-7281I-136J0D01*
G03X-3628Y-7417I0J-136D01*
G01X417Y-3228D02*
G01X417Y-2498D01*
G01X3511D01*
G01Y-2538D01*
G03X3547Y-2573I36J0D01*
G01X3679D01*
G03X3677Y-2587I64J-14D01*
G03X3743Y-2653I66J0D01*
G03X3809Y-2587I0J66D01*
G03X3796Y-2548I-66J0D01*
G03X3797Y-2538I-34J10D01*
G01Y-2498D01*
G01X3893D01*
G01Y-2665D01*
G03X3837Y-2745I31J-80D01*
G03X3893Y-2825I86J0D01*
G01Y-3228D01*
G01X417D01*
G01X3490Y-2745D02*
G03X3576Y-2831I86J0D01*
G01X3646D01*
G03X3732Y-2745I0J86D01*
G03X3646Y-2659I-86J0D01*
G01X3576D01*
G03X3490Y-2745I0J-86D01*
G54D11*
G01X3654Y-2518D02*
G01X3654Y-2563D01*
G01X3654Y-2518D02*
G01X3787Y-2518D01*
G01X3654Y-2518D02*
G01X3521Y-2518D01*
G04 Copper End*

G04 Pad Start*
G36*
G01X3761Y-2238D02*
G01X3547Y-2238D01*
G01Y-2277D01*
G01X3761D01*
G01Y-2238D01*
G37*
G36*
G01X3761Y-2303D02*
G01X3547Y-2303D01*
G01Y-2343D01*
G01X3761D01*
G01Y-2303D01*
G37*
G36*
G01X3761Y-2368D02*
G01X3547Y-2368D01*
G01Y-2408D01*
G01X3761D01*
G01Y-2368D01*
G37*
G36*
G01X3761Y-2433D02*
G01X3547Y-2433D01*
G01Y-2473D01*
G01X3761D01*
G01Y-2433D01*
G37*
G36*
G01X3761Y-2498D02*
G01X3547Y-2498D01*
G01Y-2538D01*
G01X3761D01*
G01Y-2498D01*
G37*
G54D12*
G01X3611Y-2745D03*
G01X3958Y-2745D03*
G01X3958Y-2030D03*
G01X3611Y-2030D03*
G36*
G01X3740Y-4572D02*
G01X3600Y-4572D01*
G01Y-4722D01*
G01X3740D01*
G01Y-4572D01*
G37*
G54D13*
G01X3670Y-4447D03*
G36*
G01X3740Y-3556D02*
G01X3600Y-3556D01*
G01Y-3706D01*
G01X3740D01*
G01Y-3556D01*
G37*
G01X3670Y-3431D03*
G36*
G01X930Y-7161D02*
G01X1102Y-7161D01*
G01Y-7012D01*
G01X930D01*
G01Y-7161D01*
G37*
G36*
G01X930Y-7479D02*
G01X1102Y-7479D01*
G01Y-7331D01*
G01X930D01*
G01Y-7479D01*
G37*
G54D14*
G01X1308Y-7404D03*
G01X1562Y-7404D03*
G01X1816Y-7404D03*
G01X2070Y-7404D03*
G01X2324Y-7404D03*
G01X2578Y-7404D03*
G01X2832Y-7404D03*
G01X3086Y-7404D03*
G01X3340Y-7404D03*
G01X3594Y-7404D03*
G01X3848Y-7404D03*
G36*
G01X4178Y-7480D02*
G01X4178Y-7328D01*
G01X4026D01*
G01Y-7480D01*
G01X4178D01*
G37*
G04 Pad End*

G04 Via Start*
G54D15*
G01X-4724Y-711D03*
G54D16*
G01X406Y-1714D03*
G01X406Y-2222D03*
G01X406Y-2730D03*
G01X406Y-3238D03*
G01X406Y-4254D03*
G01X406Y-4762D03*
G01X406Y-5270D03*
G01X406Y-5778D03*
G01X406Y-6286D03*
G01X406Y-6794D03*
G01X406Y-7302D03*
G01X-102Y-1714D03*
G01X-102Y-2222D03*
G01X-102Y-3238D03*
G01X-102Y-4254D03*
G01X-102Y-4762D03*
G01X-102Y-5270D03*
G01X-102Y-5778D03*
G01X-102Y-6286D03*
G01X-102Y-6794D03*
G01X-102Y-7302D03*
G01X-610Y-1714D03*
G01X-610Y-2222D03*
G01X-610Y-3238D03*
G01X-610Y-4254D03*
G01X-610Y-5270D03*
G01X-610Y-5778D03*
G01X-610Y-6794D03*
G01X-1118Y-1714D03*
G01X-1118Y-2222D03*
G01X-1118Y-2730D03*
G01X-1118Y-3238D03*
G01X-1118Y-5270D03*
G01X-1118Y-5778D03*
G01X-1118Y-6286D03*
G01X-1118Y-6794D03*
G01X-1118Y-7302D03*
G01X-1626Y-3238D03*
G01X-1626Y-4254D03*
G01X-1626Y-5270D03*
G01X-1626Y-5778D03*
G01X-1626Y-7302D03*
G01X-2134Y-1714D03*
G01X-2134Y-3238D03*
G01X-2134Y-5270D03*
G01X-2134Y-5778D03*
G01X-2134Y-7302D03*
G01X-2642Y-3238D03*
G01X-2642Y-3746D03*
G01X-2642Y-5778D03*
G01X-2642Y-6286D03*
G01X-2642Y-6794D03*
G01X-2642Y-7302D03*
G01X-3150Y-1714D03*
G01X-3150Y-3238D03*
G01X-3150Y-3746D03*
G01X-3150Y-4254D03*
G01X-3150Y-4762D03*
G01X-3150Y-5270D03*
G01X-3150Y-5778D03*
G01X-3150Y-6286D03*
G01X-3150Y-6794D03*
G01X-3150Y-7302D03*
G01X-3658Y-1714D03*
G01X-3658Y-2730D03*
G01X-3658Y-3238D03*
G01X-3658Y-3746D03*
G01X-3658Y-4254D03*
G01X-3658Y-4762D03*
G01X-3658Y-5270D03*
G01X-3658Y-5778D03*
G01X-3658Y-6286D03*
G01X-3658Y-6794D03*
G01X-3658Y-7302D03*
G01X-3658Y-1524D03*
G01X-3658Y-2032D03*
G01X-3658Y-2540D03*
G01X-3658Y-3048D03*
G01X-3658Y-3556D03*
G01X-3658Y-4064D03*
G01X-3988Y-3785D03*
G01X-3988Y-4293D03*
G01X-3988Y-4801D03*
G01X-3988Y-5309D03*
G01X-3988Y-5817D03*
G01X-3988Y-6325D03*
G01X-3988Y-6833D03*
G01X-3988Y-7341D03*
G01X-3988Y-7849D03*
G01X-4496Y-3785D03*
G01X-4496Y-4293D03*
G01X-4496Y-4801D03*
G01X-4496Y-5309D03*
G01X-4496Y-5817D03*
G01X-4496Y-6833D03*
G01X-4496Y-7341D03*
G01X-4496Y-7849D03*
G01X-4496Y-8357D03*
G01X-5004Y-3785D03*
G01X-5004Y-4293D03*
G01X-5004Y-4801D03*
G01X-5004Y-5309D03*
G01X-5004Y-5817D03*
G01X-5004Y-6833D03*
G01X-5004Y-7341D03*
G01X-5004Y-7849D03*
G01X-5004Y-8357D03*
G01X-5512Y-3785D03*
G01X-5512Y-4293D03*
G01X-5512Y-4801D03*
G01X-5512Y-5309D03*
G01X-5512Y-5817D03*
G01X-5512Y-6325D03*
G01X-5512Y-6833D03*
G01X-5512Y-7341D03*
G01X-5512Y-7849D03*
G01X-3658Y-1346D03*
G01X-3658Y-1854D03*
G01X-3658Y-2870D03*
G01X-3658Y-3378D03*
G01X-3658Y-3886D03*
G54D15*
G01X-4737Y-6515D03*
G01X-4737Y-8115D03*
G01X1016Y-6413D03*
G01X1791Y-4496D03*
G01X1791Y-4674D03*
G01X1829Y-2184D03*
G54D17*
G01X-4724Y-8115D03*
G01X-4724Y-6515D03*
G01X-4724Y-711D03*
G01X-4724Y-2311D03*
G04 Via End*

G04 Track Start*
G54D18*
G01X1791Y-4496D02*
G01X648Y-4496D01*
G01X406Y-4254D01*
G54D19*
G01X1791Y-4674D02*
G01X1791Y-4496D01*
G54D11*
G01X1016Y-7087D02*
G01X1016Y-6413D01*
G01X1207Y-7277D02*
G01X1372Y-7277D01*
G01X1499Y-7404D01*
G54D18*
G01X1308Y-7404D02*
G01X1017Y-7404D01*
G01X1016Y-7405D01*
G01X406Y-7302D02*
G01X913Y-7302D01*
G01X1016Y-7405D01*
G54D19*
G01X1829Y-2184D02*
G01X3581Y-2184D01*
G01X3654Y-2258D01*
G01X3654Y-2518D02*
G01X3581Y-2591D01*
G54D18*
G01X406Y-2222D02*
G01X775Y-2591D01*
G01X1283D01*
G54D20*
G01X3581Y-2591D02*
G01X2070Y-2591D01*
G54D21*
G01X1283Y-2591D01*
G54D11*
G01X1016Y-7087D02*
G01X1207Y-7277D01*
G01X1562Y-7404D02*
G01X1499Y-7404D01*
G04 Track End*

M02*
